SplineFontDB: 3.2
FontName: NotoSansChakma-Regular
FullName: Noto Sans Chakma Regular
FamilyName: Noto Sans Chakma
Weight: Book
Copyright: Copyright 2017 Google Inc. All Rights Reserved.
Version: 2.001; ttfautohint (v1.8.3) -l 8 -r 50 -G 200 -x 14 -D cakm -f none -a qsq -X ""
ItalicAngle: 0
UnderlinePosition: -125
UnderlineWidth: 50
Ascent: 800
Descent: 200
InvalidEm: 0
sfntRevision: 0x00020042
LayerCount: 2
Layer: 0 1 "+BBcEMAQ0BD0EOAQ5 +BD8EOwQwBD0A" 1
Layer: 1 1 "+BB8ENQRABDUENAQ9BDgEOQAA +BD8EOwQwBD0A" 0
XUID: [1021 59 1751208496 20184]
StyleMap: 0x0040
FSType: 0
OS2Version: 4
OS2_WeightWidthSlopeOnly: 1
OS2_UseTypoMetrics: 0
CreationTime: 1482972743
ModificationTime: 1618953471
PfmFamily: 17
TTFWeight: 400
TTFWidth: 5
LineGap: 0
VLineGap: 0
Panose: 2 11 5 2 4 5 4 2 2 4
OS2TypoAscent: 1140
OS2TypoAOffset: 0
OS2TypoDescent: -320
OS2TypoDOffset: 0
OS2TypoLinegap: 0
OS2WinAscent: 1140
OS2WinAOffset: 0
OS2WinDescent: 320
OS2WinDOffset: 0
HheadAscent: 1140
HheadAOffset: 0
HheadDescent: -320
HheadDOffset: 0
OS2SubXSize: 650
OS2SubYSize: 600
OS2SubXOff: 0
OS2SubYOff: 75
OS2SupXSize: 650
OS2SupYSize: 600
OS2SupXOff: 0
OS2SupYOff: 350
OS2StrikeYSize: 50
OS2StrikeYPos: 322
OS2CapHeight: 714
OS2XHeight: 536
OS2Vendor: 'GOOG'
OS2CodePages: 00000001.00000000
OS2UnicodeRanges: 80010003.02002000.00000400.00000000
Lookup: 4 0 0 "'blwf' Below Base Forms lookup 0" { "'blwf' Below Base Forms lookup 0 subtable"  } ['blwf' ('bng2' <'dflt' > 'cakm' <'dflt' > 'mym2' <'dflt' > ) ]
Lookup: 4 0 0 "'pstf' Post Base Forms lookup 1" { "'pstf' Post Base Forms lookup 1 subtable"  } ['pstf' ('bng2' <'dflt' > 'cakm' <'dflt' > 'mym2' <'dflt' > ) ]
Lookup: 1 0 0 "Single Substitution lookup 2" { "Single Substitution lookup 2 subtable"  } []
Lookup: 1 0 0 "Single Substitution lookup 3" { "Single Substitution lookup 3 subtable"  } []
Lookup: 1 0 0 "Single Substitution lookup 4" { "Single Substitution lookup 4 subtable"  } []

StartChar: .notdef
Encoding: 1114112 -1 0
Width: 600
Flags: W
LayerCount: 2
Fore
SplineSet
94 0 m 1,0,-1
 94 714 l 1,1,-1
 505 714 l 1,2,-1
 505 0 l 1,3,-1
 94 0 l 1,0,-1
145 51 m 1,4,-1
 454 51 l 1,5,-1
 454 663 l 1,6,-1
 145 663 l 1,7,-1
 145 51 l 1,4,-1
EndSplineSet
EndChar

StartChar: dottedCircle
Encoding: 9676 9676 7
Width: 600
GlyphClass: 2
Flags: W
LayerCount: 2
Fore
SplineSet
295 462 m 256,0,1
 285 462 285 462 278 469 c 128,-1,2
 271 476 271 476 271 486 c 256,3,4
 271 496 271 496 278 503 c 128,-1,5
 285 510 285 510 295 510 c 256,6,7
 305 510 305 510 312 503 c 128,-1,8
 319 496 319 496 319 486 c 256,9,10
 319 476 319 476 312 469 c 128,-1,11
 305 462 305 462 295 462 c 256,0,1
198 438 m 256,12,13
 188 438 188 438 181 445 c 128,-1,14
 174 452 174 452 174 462 c 256,15,16
 174 472 174 472 181 479 c 128,-1,17
 188 486 188 486 198 486 c 256,18,19
 208 486 208 486 215 479 c 128,-1,20
 222 472 222 472 222 462 c 256,21,22
 222 452 222 452 215 445 c 128,-1,23
 208 438 208 438 198 438 c 256,12,13
392 438 m 256,24,25
 382 438 382 438 375 445 c 128,-1,26
 368 452 368 452 368 462 c 256,27,28
 368 472 368 472 375 479 c 128,-1,29
 382 486 382 486 392 486 c 256,30,31
 402 486 402 486 409 479 c 128,-1,32
 416 472 416 472 416 462 c 256,33,34
 416 452 416 452 409 445 c 128,-1,35
 402 438 402 438 392 438 c 256,24,25
127 368 m 256,36,37
 117 368 117 368 110 375 c 128,-1,38
 103 382 103 382 103 392 c 256,39,40
 103 402 103 402 110 409 c 128,-1,41
 117 416 117 416 127 416 c 256,42,43
 137 416 137 416 144 409 c 128,-1,44
 151 402 151 402 151 392 c 256,45,46
 151 382 151 382 144 375 c 128,-1,47
 137 368 137 368 127 368 c 256,36,37
462 366 m 256,48,49
 452 366 452 366 445 373 c 128,-1,50
 438 380 438 380 438 390 c 256,51,52
 438 400 438 400 445 407 c 128,-1,53
 452 414 452 414 462 414 c 256,54,55
 472 414 472 414 479 407 c 128,-1,56
 486 400 486 400 486 390 c 256,57,58
 486 380 486 380 479 373 c 128,-1,59
 472 366 472 366 462 366 c 256,48,49
101 267 m 256,60,61
 91 267 91 267 84 274 c 128,-1,62
 77 281 77 281 77 291 c 256,63,64
 77 301 77 301 84 308 c 128,-1,65
 91 315 91 315 101 315 c 256,66,67
 111 315 111 315 118 308 c 128,-1,68
 125 301 125 301 125 291 c 256,69,70
 125 281 125 281 118 274 c 128,-1,71
 111 267 111 267 101 267 c 256,60,61
492 267 m 256,72,73
 482 267 482 267 475 274 c 128,-1,74
 468 281 468 281 468 291 c 256,75,76
 468 301 468 301 475 308 c 128,-1,77
 482 315 482 315 492 315 c 256,78,79
 502 315 502 315 509 308 c 128,-1,80
 516 301 516 301 516 291 c 256,81,82
 516 281 516 281 509 274 c 128,-1,83
 502 267 502 267 492 267 c 256,72,73
464 173 m 256,84,85
 454 173 454 173 447 180 c 128,-1,86
 440 187 440 187 440 197 c 256,87,88
 440 207 440 207 447 214 c 128,-1,89
 454 221 454 221 464 221 c 256,90,91
 474 221 474 221 481 214 c 128,-1,92
 488 207 488 207 488 197 c 256,93,94
 488 187 488 187 481 180 c 128,-1,95
 474 173 474 173 464 173 c 256,84,85
125 172 m 256,96,97
 115 172 115 172 108 179 c 128,-1,98
 101 186 101 186 101 196 c 256,99,100
 101 206 101 206 108 213 c 128,-1,101
 115 220 115 220 125 220 c 256,102,103
 135 220 135 220 142 213 c 128,-1,104
 149 206 149 206 149 196 c 256,105,106
 149 186 149 186 142 179 c 128,-1,107
 135 172 135 172 125 172 c 256,96,97
393 101 m 256,108,109
 383 101 383 101 376 108 c 128,-1,110
 369 115 369 115 369 125 c 256,111,112
 369 135 369 135 376 142 c 128,-1,113
 383 149 383 149 393 149 c 256,114,115
 403 149 403 149 410 142 c 128,-1,116
 417 135 417 135 417 125 c 256,117,118
 417 115 417 115 410 108 c 128,-1,119
 403 101 403 101 393 101 c 256,108,109
198 100 m 256,120,121
 188 100 188 100 181 107 c 128,-1,122
 174 114 174 114 174 124 c 256,123,124
 174 134 174 134 181 141 c 128,-1,125
 188 148 188 148 198 148 c 256,126,127
 208 148 208 148 215 141 c 128,-1,128
 222 134 222 134 222 124 c 256,129,130
 222 114 222 114 215 107 c 128,-1,131
 208 100 208 100 198 100 c 256,120,121
295 73 m 256,132,133
 285 73 285 73 278 80 c 128,-1,134
 271 87 271 87 271 97 c 256,135,136
 271 107 271 107 278 114 c 128,-1,137
 285 121 285 121 295 121 c 256,138,139
 305 121 305 121 312 114 c 128,-1,140
 319 107 319 107 319 97 c 256,141,142
 319 87 319 87 312 80 c 128,-1,143
 305 73 305 73 295 73 c 256,132,133
EndSplineSet
EndChar

StartChar: candrabindu_chakma
Encoding: 69888 69888 8
Width: 0
GlyphClass: 4
Flags: W
AnchorPoint: "+BBEENQQ3BEsEPARPBD0EPQQ+BDUA--11" -219 799 mark 0
AnchorPoint: "+BBEENQQ3BEsEPARPBD0EPQQ+BDUA--0" -219 799 mark 0
LayerCount: 2
Fore
SplineSet
-219 921 m 256,0,1
 -250 921 -250 921 -271.5 943 c 128,-1,2
 -293 965 -293 965 -293 996 c 0,3,4
 -293 1026 -293 1026 -271.5 1047.5 c 128,-1,5
 -250 1069 -250 1069 -219 1069 c 256,6,7
 -188 1069 -188 1069 -166.5 1047.5 c 128,-1,8
 -145 1026 -145 1026 -145 996 c 0,9,10
 -145 965 -145 965 -166.5 943 c 128,-1,11
 -188 921 -188 921 -219 921 c 256,0,1
-356 1036 m 1,12,13
 -356 991 -356 991 -338.5 954 c 128,-1,14
 -321 917 -321 917 -290 894.5 c 128,-1,15
 -259 872 -259 872 -219 872 c 256,16,17
 -179 872 -179 872 -149.5 894.5 c 128,-1,18
 -120 917 -120 917 -103.5 954 c 128,-1,19
 -87 991 -87 991 -87 1036 c 1,20,-1
 3 1036 l 1,21,22
 3 976 3 976 -23.5 922 c 128,-1,23
 -50 868 -50 868 -100 833.5 c 128,-1,24
 -150 799 -150 799 -219 799 c 256,25,26
 -288 799 -288 799 -339 833.5 c 128,-1,27
 -390 868 -390 868 -418 922 c 128,-1,28
 -446 976 -446 976 -446 1036 c 1,29,-1
 -356 1036 l 1,12,13
EndSplineSet
EndChar

StartChar: anusvara_chakma
Encoding: 69889 69889 14
Width: 0
GlyphClass: 4
Flags: W
AnchorPoint: "+BBEENQQ3BEsEPARPBD0EPQQ+BDUA--11" -214 905 mark 0
AnchorPoint: "+BBEENQQ3BEsEPARPBD0EPQQ+BDUA--0" -214 905 mark 0
LayerCount: 2
Fore
SplineSet
-214 915 m 256,0,1
 -245 915 -245 915 -266.5 937 c 128,-1,2
 -288 959 -288 959 -288 990 c 0,3,4
 -288 1020 -288 1020 -266.5 1041.5 c 128,-1,5
 -245 1063 -245 1063 -214 1063 c 256,6,7
 -183 1063 -183 1063 -161.5 1041.5 c 128,-1,8
 -140 1020 -140 1020 -140 990 c 0,9,10
 -140 959 -140 959 -161.5 937 c 128,-1,11
 -183 915 -183 915 -214 915 c 256,0,1
EndSplineSet
EndChar

StartChar: aa_chakma
Encoding: 69891 69891 27
Width: 1015
GlyphClass: 2
Flags: W
AnchorPoint: "+BBEENQQ3BEsEPARPBD0EPQQ+BDUA--6" 777 10 basechar 0
AnchorPoint: "+BBEENQQ3BEsEPARPBD0EPQQ+BDUA--5" 768 15 basechar 0
AnchorPoint: "+BBEENQQ3BEsEPARPBD0EPQQ+BDUA--4" 826 23 basechar 0
AnchorPoint: "+BBEENQQ3BEsEPARPBD0EPQQ+BDUA--3" 503 -12 basechar 0
AnchorPoint: "+BBEENQQ3BEsEPARPBD0EPQQ+BDUA--2" 928 382 basechar 0
AnchorPoint: "+BBEENQQ3BEsEPARPBD0EPQQ+BDUA--1" 818 514 basechar 0
AnchorPoint: "+BBEENQQ3BEsEPARPBD0EPQQ+BDUA--0" 515 590 basechar 0
LayerCount: 2
Fore
SplineSet
286 -10 m 0,0,1
 195 -10 195 -10 135.5 35 c 128,-1,2
 76 80 76 80 50 153 c 1,3,-1
 136 178 l 1,4,5
 155 123 155 123 193.5 90 c 128,-1,6
 232 57 232 57 288 57 c 0,7,8
 342 57 342 57 381.5 85.5 c 128,-1,9
 421 114 421 114 442 162.5 c 128,-1,10
 463 211 463 211 463 270 c 0,11,12
 463 333 463 333 442 381 c 128,-1,13
 421 429 421 429 382.5 456.5 c 128,-1,14
 344 484 344 484 289 484 c 0,15,16
 246 484 246 484 214.5 466 c 128,-1,17
 183 448 183 448 163.5 420 c 128,-1,18
 144 392 144 392 136 361 c 1,19,-1
 50 375 l 1,20,21
 73 455 73 455 138 503 c 128,-1,22
 203 551 203 551 290 551 c 0,23,24
 362 551 362 551 417 521.5 c 128,-1,25
 472 492 472 492 505 441 c 1,26,27
 523 468 523 468 550 493 c 128,-1,28
 577 518 577 518 615 534 c 128,-1,29
 653 550 653 550 705 550 c 0,30,31
 780 550 780 550 836 513.5 c 128,-1,32
 892 477 892 477 923.5 414.5 c 128,-1,33
 955 352 955 352 955 273 c 0,34,35
 955 192 955 192 923.5 128 c 128,-1,36
 892 64 892 64 835 27 c 128,-1,37
 778 -10 778 -10 702 -10 c 0,38,39
 660 -10 660 -10 631 0.5 c 128,-1,40
 602 11 602 11 582 22 c 1,41,-1
 633 76 l 1,42,43
 648 68 648 68 666 62.5 c 128,-1,44
 684 57 684 57 705 57 c 0,45,46
 753 57 753 57 789 85.5 c 128,-1,47
 825 114 825 114 845 162.5 c 128,-1,48
 865 211 865 211 865 271 c 256,49,50
 865 331 865 331 845.5 379 c 128,-1,51
 826 427 826 427 790.5 455 c 128,-1,52
 755 483 755 483 707 483 c 0,53,54
 662 483 662 483 630 459.5 c 128,-1,55
 598 436 598 436 577.5 399 c 128,-1,56
 557 362 557 362 549 321 c 1,57,58
 553 296 553 296 553 269 c 0,59,60
 553 189 553 189 520 125.5 c 128,-1,61
 487 62 487 62 427 26 c 128,-1,62
 367 -10 367 -10 286 -10 c 0,0,1
EndSplineSet
Position2: "Single Positioning lookup 6 subtable" dx=0 dy=0 dh=476 dv=0
Position2: "Single Positioning lookup 5 subtable" dx=0 dy=0 dh=310 dv=0
Position2: "Single Positioning lookup 4 subtable" dx=0 dy=0 dh=480 dv=0
Position2: "Single Positioning lookup 3 subtable" dx=0 dy=0 dh=640 dv=0
Position2: "Single Positioning lookup 2 subtable" dx=0 dy=0 dh=520 dv=0
Position2: "Single Positioning lookup 1 subtable" dx=0 dy=0 dh=370 dv=0
Position2: "Single Positioning lookup 0 subtable" dx=0 dy=0 dh=250 dv=0
EndChar

StartChar: i_chakma
Encoding: 69892 69892 28
Width: 733
GlyphClass: 2
Flags: W
AnchorPoint: "+BBEENQQ3BEsEPARPBD0EPQQ+BDUA--6" 537 10 basechar 0
AnchorPoint: "+BBEENQQ3BEsEPARPBD0EPQQ+BDUA--5" 561 25 basechar 0
AnchorPoint: "+BBEENQQ3BEsEPARPBD0EPQQ+BDUA--4" 582 10 basechar 0
AnchorPoint: "+BBEENQQ3BEsEPARPBD0EPQQ+BDUA--3" 402 -20 basechar 0
AnchorPoint: "+BBEENQQ3BEsEPARPBD0EPQQ+BDUA--2" 618 382 basechar 0
AnchorPoint: "+BBEENQQ3BEsEPARPBD0EPQQ+BDUA--1" 654 522 basechar 0
AnchorPoint: "+BBEENQQ3BEsEPARPBD0EPQQ+BDUA--0" 409 560 basechar 0
LayerCount: 2
Fore
SplineSet
583 280 m 0,0,1
 575 230 575 230 573.5 159 c 128,-1,2
 572 88 572 88 582 0 c 1,3,-1
 492 0 l 1,4,-1
 492 34 l 2,5,6
 492 113 492 113 467.5 161.5 c 128,-1,7
 443 210 443 210 407 234 c 1,8,9
 399 186 399 186 377.5 143 c 128,-1,10
 356 100 356 100 322.5 73.5 c 128,-1,11
 289 47 289 47 244 47 c 0,12,13
 212 47 212 47 182.5 62.5 c 128,-1,14
 153 78 153 78 135 106.5 c 128,-1,15
 117 135 117 135 117 174 c 0,16,17
 117 221 117 221 143.5 257 c 128,-1,18
 170 293 170 293 216 313 c 128,-1,19
 262 333 262 333 322 333 c 1,20,21
 312 399 312 399 279 430.5 c 128,-1,22
 246 462 246 462 204 462 c 0,23,24
 170 462 170 462 137 443.5 c 128,-1,25
 104 425 104 425 77 396 c 1,26,-1
 22 431 l 1,27,28
 62 477 62 477 111.5 503 c 128,-1,29
 161 529 161 529 214 529 c 0,30,31
 268 529 268 529 310.5 502.5 c 128,-1,32
 353 476 353 476 379 428.5 c 128,-1,33
 405 381 405 381 411 319 c 1,34,35
 433 310 433 310 453.5 295.5 c 128,-1,36
 474 281 474 281 492 259 c 1,37,38
 507 346 507 346 540.5 415 c 128,-1,39
 574 484 574 484 633 547 c 1,40,-1
 693 506 l 1,41,42
 654 457 654 457 625 405.5 c 128,-1,43
 596 354 596 354 583 280 c 0,0,1
207 174 m 0,44,45
 207 149 207 149 220 131.5 c 128,-1,46
 233 114 233 114 251 114 c 0,47,48
 271 114 271 114 287 136 c 128,-1,49
 303 158 303 158 312.5 192 c 128,-1,50
 322 226 322 226 324 264 c 1,51,52
 319 264 319 264 313 264 c 0,53,54
 267 264 267 264 237 239 c 128,-1,55
 207 214 207 214 207 174 c 0,44,45
EndSplineSet
Position2: "Single Positioning lookup 6 subtable" dx=0 dy=0 dh=476 dv=0
Position2: "Single Positioning lookup 5 subtable" dx=0 dy=0 dh=310 dv=0
Position2: "Single Positioning lookup 4 subtable" dx=0 dy=0 dh=480 dv=0
Position2: "Single Positioning lookup 3 subtable" dx=0 dy=0 dh=640 dv=0
Position2: "Single Positioning lookup 2 subtable" dx=0 dy=0 dh=520 dv=0
Position2: "Single Positioning lookup 1 subtable" dx=0 dy=0 dh=370 dv=0
Position2: "Single Positioning lookup 0 subtable" dx=0 dy=0 dh=250 dv=0
EndChar

StartChar: u_chakma
Encoding: 69893 69893 29
Width: 606
GlyphClass: 2
Flags: W
AnchorPoint: "+BBEENQQ3BEsEPARPBD0EPQQ+BDUA--6" 387 10 basechar 0
AnchorPoint: "+BBEENQQ3BEsEPARPBD0EPQQ+BDUA--5" 507 15 basechar 0
AnchorPoint: "+BBEENQQ3BEsEPARPBD0EPQQ+BDUA--4" 427 18 basechar 0
AnchorPoint: "+BBEENQQ3BEsEPARPBD0EPQQ+BDUA--3" 306 -5 basechar 0
AnchorPoint: "+BBEENQQ3BEsEPARPBD0EPQQ+BDUA--2" 515 382 basechar 0
AnchorPoint: "+BBEENQQ3BEsEPARPBD0EPQQ+BDUA--1" 432 523 basechar 0
AnchorPoint: "+BBEENQQ3BEsEPARPBD0EPQQ+BDUA--0" 303 590 basechar 0
LayerCount: 2
Fore
SplineSet
546 219 m 1,0,1
 546 180 546 180 533.5 139.5 c 128,-1,2
 521 99 521 99 492 65 c 128,-1,3
 463 31 463 31 412.5 10.5 c 128,-1,4
 362 -10 362 -10 286 -10 c 0,5,6
 224 -10 224 -10 172.5 6 c 128,-1,7
 121 22 121 22 90.5 55 c 128,-1,8
 60 88 60 88 60 137 c 0,9,10
 60 189 60 189 91 218.5 c 128,-1,11
 122 248 122 248 174 265.5 c 128,-1,12
 226 283 226 283 288 298 c 0,13,14
 344 312 344 312 375.5 325 c 128,-1,15
 407 338 407 338 420 355 c 128,-1,16
 433 372 433 372 433 399 c 0,17,18
 433 443 433 443 402 463 c 128,-1,19
 371 483 371 483 309 483 c 0,20,21
 245 483 245 483 212 464 c 128,-1,22
 179 445 179 445 168 416 c 128,-1,23
 157 387 157 387 157 357 c 1,24,-1
 62 337 l 1,25,26
 62 435 62 435 130 492.5 c 128,-1,27
 198 550 198 550 313 550 c 0,28,29
 369 550 369 550 417 537 c 128,-1,30
 465 524 465 524 494 493.5 c 128,-1,31
 523 463 523 463 523 409 c 0,32,33
 523 352 523 352 490.5 317.5 c 128,-1,34
 458 283 458 283 406.5 264 c 128,-1,35
 355 245 355 245 297 231 c 0,36,37
 253 221 253 221 220 211 c 128,-1,38
 187 201 187 201 168.5 185.5 c 128,-1,39
 150 170 150 170 150 142 c 0,40,41
 150 107 150 107 185.5 82 c 128,-1,42
 221 57 221 57 292 57 c 0,43,44
 350 57 350 57 382.5 73.5 c 128,-1,45
 415 90 415 90 430 113.5 c 128,-1,46
 445 137 445 137 449 158 c 128,-1,47
 453 179 453 179 453 189 c 1,48,-1
 546 219 l 1,0,1
EndSplineSet
Position2: "Single Positioning lookup 6 subtable" dx=0 dy=0 dh=476 dv=0
Position2: "Single Positioning lookup 5 subtable" dx=0 dy=0 dh=310 dv=0
Position2: "Single Positioning lookup 4 subtable" dx=0 dy=0 dh=480 dv=0
Position2: "Single Positioning lookup 3 subtable" dx=0 dy=0 dh=640 dv=0
Position2: "Single Positioning lookup 2 subtable" dx=0 dy=0 dh=520 dv=0
Position2: "Single Positioning lookup 1 subtable" dx=0 dy=0 dh=370 dv=0
Position2: "Single Positioning lookup 0 subtable" dx=0 dy=0 dh=250 dv=0
EndChar

StartChar: e_chakma
Encoding: 69894 69894 30
Width: 677
GlyphClass: 2
Flags: W
AnchorPoint: "+BBEENQQ3BEsEPARPBD0EPQQ+BDUA--6" 414 15 basechar 0
AnchorPoint: "+BBEENQQ3BEsEPARPBD0EPQQ+BDUA--5" 527 15 basechar 0
AnchorPoint: "+BBEENQQ3BEsEPARPBD0EPQQ+BDUA--4" 444 17 basechar 0
AnchorPoint: "+BBEENQQ3BEsEPARPBD0EPQQ+BDUA--3" 381 -20 basechar 0
AnchorPoint: "+BBEENQQ3BEsEPARPBD0EPQQ+BDUA--2" 589 382 basechar 0
AnchorPoint: "+BBEENQQ3BEsEPARPBD0EPQQ+BDUA--1" 495 506 basechar 0
AnchorPoint: "+BBEENQQ3BEsEPARPBD0EPQQ+BDUA--0" 338 590 basechar 0
LayerCount: 2
Fore
SplineSet
62 362 m 1,0,1
 78 413 78 413 110.5 448 c 128,-1,2
 143 483 143 483 185 504.5 c 128,-1,3
 227 526 227 526 272 535.5 c 128,-1,4
 317 545 317 545 359 545 c 0,5,6
 441 545 441 545 498.5 513 c 128,-1,7
 556 481 556 481 586.5 426 c 128,-1,8
 617 371 617 371 617 303 c 0,9,10
 617 238 617 238 592.5 185.5 c 128,-1,11
 568 133 568 133 532.5 93.5 c 128,-1,12
 497 54 497 54 461.5 28 c 128,-1,13
 426 2 426 2 403 -10 c 1,14,-1
 323 23 l 1,15,16
 368 84 368 84 368 144 c 0,17,18
 368 174 368 174 356 201.5 c 128,-1,19
 344 229 344 229 320 246.5 c 128,-1,20
 296 264 296 264 260 264 c 0,21,22
 255 264 255 264 250 264 c 1,23,24
 280 253 280 253 302.5 230 c 128,-1,25
 325 207 325 207 325 169 c 0,26,27
 325 142 325 142 311.5 113.5 c 128,-1,28
 298 85 298 85 269 65.5 c 128,-1,29
 240 46 240 46 195 46 c 0,30,31
 160 46 160 46 129 59.5 c 128,-1,32
 98 73 98 73 79 100 c 128,-1,33
 60 127 60 127 60 167 c 0,34,35
 60 213 60 213 85.5 250 c 128,-1,36
 111 287 111 287 158 309 c 128,-1,37
 205 331 205 331 267 331 c 0,38,39
 320 331 320 331 362 313.5 c 128,-1,40
 404 296 404 296 429 262 c 128,-1,41
 454 228 454 228 454 176 c 0,42,43
 454 158 454 158 449.5 133.5 c 128,-1,44
 445 109 445 109 431 80 c 1,45,46
 477 120 477 120 502 180.5 c 128,-1,47
 527 241 527 241 527 296 c 0,48,49
 527 345 527 345 505.5 386 c 128,-1,50
 484 427 484 427 442.5 452 c 128,-1,51
 401 477 401 477 339 477 c 0,52,53
 289 477 289 477 240.5 457 c 128,-1,54
 192 437 192 437 156 382 c 1,55,-1
 62 362 l 1,0,1
150 169 m 0,56,57
 150 113 150 113 195 113 c 0,58,59
 218 113 218 113 230.5 129 c 128,-1,60
 243 145 243 145 243 170 c 0,61,62
 243 202 243 202 223 216.5 c 128,-1,63
 203 231 203 231 175 231 c 2,64,-1
 174 231 l 1,65,66
 163 220 163 220 156.5 204.5 c 128,-1,67
 150 189 150 189 150 169 c 0,56,57
EndSplineSet
Position2: "Single Positioning lookup 6 subtable" dx=0 dy=0 dh=476 dv=0
Position2: "Single Positioning lookup 5 subtable" dx=0 dy=0 dh=310 dv=0
Position2: "Single Positioning lookup 4 subtable" dx=0 dy=0 dh=480 dv=0
Position2: "Single Positioning lookup 3 subtable" dx=0 dy=0 dh=640 dv=0
Position2: "Single Positioning lookup 2 subtable" dx=0 dy=0 dh=520 dv=0
Position2: "Single Positioning lookup 1 subtable" dx=0 dy=0 dh=370 dv=0
Position2: "Single Positioning lookup 0 subtable" dx=0 dy=0 dh=250 dv=0
EndChar

StartChar: kaa_chakma
Encoding: 69895 69895 31
Width: 988
GlyphClass: 2
Flags: W
AnchorPoint: "+BBEENQQ3BEsEPARPBD0EPQQ+BDUA--6" 787 52 basechar 0
AnchorPoint: "+BBEENQQ3BEsEPARPBD0EPQQ+BDUA--5" 816 15 basechar 0
AnchorPoint: "+BBEENQQ3BEsEPARPBD0EPQQ+BDUA--4" 823 46 basechar 0
AnchorPoint: "+BBEENQQ3BEsEPARPBD0EPQQ+BDUA--3" 498 -20 basechar 0
AnchorPoint: "+BBEENQQ3BEsEPARPBD0EPQQ+BDUA--2" 901 382 basechar 0
AnchorPoint: "+BBEENQQ3BEsEPARPBD0EPQQ+BDUA--1" 799 511 basechar 0
AnchorPoint: "+BBEENQQ3BEsEPARPBD0EPQQ+BDUA--0" 494 590 basechar 0
LayerCount: 2
Fore
SplineSet
198 -10 m 1,0,1
 162 19 162 19 130.5 62.5 c 128,-1,2
 99 106 99 106 79.5 160 c 128,-1,3
 60 214 60 214 60 274 c 0,4,5
 60 354 60 354 90.5 416.5 c 128,-1,6
 121 479 121 479 173 514.5 c 128,-1,7
 225 550 225 550 290 550 c 0,8,9
 357 550 357 550 410 512.5 c 128,-1,10
 463 475 463 475 494 402 c 1,11,12
 525 475 525 475 578 512.5 c 128,-1,13
 631 550 631 550 698 550 c 0,14,15
 764 550 764 550 816 515.5 c 128,-1,16
 868 481 868 481 898 420 c 128,-1,17
 928 359 928 359 928 279 c 0,18,19
 928 219 928 219 908.5 164 c 128,-1,20
 889 109 889 109 858 64 c 128,-1,21
 827 19 827 19 790 -10 c 1,22,-1
 742 46 l 1,23,24
 785 81 785 81 811.5 138 c 128,-1,25
 838 195 838 195 838 270 c 0,26,27
 838 363 838 363 798 419.5 c 128,-1,28
 758 476 758 476 692 476 c 0,29,30
 649 476 649 476 614 451 c 128,-1,31
 579 426 579 426 559 379.5 c 128,-1,32
 539 333 539 333 539 270 c 1,33,-1
 449 270 l 1,34,35
 449 366 449 366 405 421 c 128,-1,36
 361 476 361 476 296 476 c 0,37,38
 230 476 230 476 190 419.5 c 128,-1,39
 150 363 150 363 150 270 c 0,40,41
 150 195 150 195 176.5 138 c 128,-1,42
 203 81 203 81 246 46 c 1,43,-1
 198 -10 l 1,0,1
EndSplineSet
Position2: "Single Positioning lookup 6 subtable" dx=0 dy=0 dh=476 dv=0
Position2: "Single Positioning lookup 5 subtable" dx=0 dy=0 dh=310 dv=0
Position2: "Single Positioning lookup 4 subtable" dx=0 dy=0 dh=480 dv=0
Position2: "Single Positioning lookup 3 subtable" dx=0 dy=0 dh=640 dv=0
Position2: "Single Positioning lookup 2 subtable" dx=0 dy=0 dh=520 dv=0
Position2: "Single Positioning lookup 1 subtable" dx=0 dy=0 dh=370 dv=0
Position2: "Single Positioning lookup 0 subtable" dx=0 dy=0 dh=250 dv=0
EndChar

StartChar: khaa_chakma
Encoding: 69896 69896 32
Width: 696
GlyphClass: 2
Flags: W
AnchorPoint: "+BBEENQQ3BEsEPARPBD0EPQQ+BDUA--6" 478 10 basechar 0
AnchorPoint: "+BBEENQQ3BEsEPARPBD0EPQQ+BDUA--5" 567 15 basechar 0
AnchorPoint: "+BBEENQQ3BEsEPARPBD0EPQQ+BDUA--4" 519 8 basechar 0
AnchorPoint: "+BBEENQQ3BEsEPARPBD0EPQQ+BDUA--3" 345 -20 basechar 0
AnchorPoint: "+BBEENQQ3BEsEPARPBD0EPQQ+BDUA--2" 608 382 basechar 0
AnchorPoint: "+BBEENQQ3BEsEPARPBD0EPQQ+BDUA--1" 482 513 basechar 0
AnchorPoint: "+BBEENQQ3BEsEPARPBD0EPQQ+BDUA--0" 344 590 basechar 0
LayerCount: 2
Fore
SplineSet
636 258 m 0,0,1
 636 207 636 207 624.5 159 c 128,-1,2
 613 111 613 111 591.5 73 c 128,-1,3
 570 35 570 35 540 12.5 c 128,-1,4
 510 -10 510 -10 473 -10 c 0,5,6
 442 -10 442 -10 413.5 6 c 128,-1,7
 385 22 385 22 367.5 51 c 128,-1,8
 350 80 350 80 350 117 c 0,9,10
 350 158 350 158 371 189 c 128,-1,11
 392 220 392 220 427 237.5 c 128,-1,12
 462 255 462 255 504 255 c 0,13,14
 525 255 525 255 546 250 c 1,15,-1
 546 255 l 2,16,17
 546 327 546 327 519.5 378 c 128,-1,18
 493 429 493 429 448.5 456 c 128,-1,19
 404 483 404 483 349 483 c 256,20,21
 294 483 294 483 248.5 454 c 128,-1,22
 203 425 203 425 176.5 374 c 128,-1,23
 150 323 150 323 150 256 c 256,24,25
 150 189 150 189 176.5 135 c 128,-1,26
 203 81 203 81 246 46 c 1,27,-1
 198 -10 l 1,28,29
 162 14 162 14 130.5 55 c 128,-1,30
 99 96 99 96 79.5 148.5 c 128,-1,31
 60 201 60 201 60 258 c 0,32,33
 60 343 60 343 99 409 c 128,-1,34
 138 475 138 475 203.5 512.5 c 128,-1,35
 269 550 269 550 349 550 c 0,36,37
 430 550 430 550 495 515 c 128,-1,38
 560 480 560 480 598 415 c 128,-1,39
 636 350 636 350 636 258 c 0,0,1
428 112 m 0,40,41
 428 90 428 90 439.5 73.5 c 128,-1,42
 451 57 451 57 470 57 c 0,43,44
 498 57 498 57 516 94.5 c 128,-1,45
 534 132 534 132 541 184 c 1,46,47
 525 188 525 188 510 188 c 0,48,49
 473 188 473 188 450.5 165.5 c 128,-1,50
 428 143 428 143 428 112 c 0,40,41
EndSplineSet
Position2: "Single Positioning lookup 6 subtable" dx=0 dy=0 dh=476 dv=0
Position2: "Single Positioning lookup 5 subtable" dx=0 dy=0 dh=310 dv=0
Position2: "Single Positioning lookup 4 subtable" dx=0 dy=0 dh=480 dv=0
Position2: "Single Positioning lookup 3 subtable" dx=0 dy=0 dh=640 dv=0
Position2: "Single Positioning lookup 2 subtable" dx=0 dy=0 dh=520 dv=0
Position2: "Single Positioning lookup 1 subtable" dx=0 dy=0 dh=370 dv=0
Position2: "Single Positioning lookup 0 subtable" dx=0 dy=0 dh=250 dv=0
EndChar

StartChar: gaa_chakma
Encoding: 69897 69897 33
Width: 716
GlyphClass: 2
Flags: W
AnchorPoint: "+BBEENQQ3BEsEPARPBD0EPQQ+BDUA--6" 519 10 basechar 0
AnchorPoint: "+BBEENQQ3BEsEPARPBD0EPQQ+BDUA--5" 587 15 basechar 0
AnchorPoint: "+BBEENQQ3BEsEPARPBD0EPQQ+BDUA--4" 533 10 basechar 0
AnchorPoint: "+BBEENQQ3BEsEPARPBD0EPQQ+BDUA--3" 359 -20 basechar 0
AnchorPoint: "+BBEENQQ3BEsEPARPBD0EPQQ+BDUA--2" 630 382 basechar 0
AnchorPoint: "+BBEENQQ3BEsEPARPBD0EPQQ+BDUA--1" 498 509 basechar 0
AnchorPoint: "+BBEENQQ3BEsEPARPBD0EPQQ+BDUA--0" 358 590 basechar 0
LayerCount: 2
Fore
SplineSet
198 -10 m 1,0,1
 162 14 162 14 130.5 56 c 128,-1,2
 99 98 99 98 79.5 150.5 c 128,-1,3
 60 203 60 203 60 258 c 0,4,5
 60 343 60 343 99.5 409 c 128,-1,6
 139 475 139 475 206.5 512.5 c 128,-1,7
 274 550 274 550 359 550 c 256,8,9
 444 550 444 550 511 512 c 128,-1,10
 578 474 578 474 617 408 c 128,-1,11
 656 342 656 342 656 258 c 0,12,13
 656 203 656 203 636.5 150.5 c 128,-1,14
 617 98 617 98 586 56 c 128,-1,15
 555 14 555 14 518 -10 c 1,16,-1
 470 46 l 1,17,18
 513 81 513 81 539.5 137 c 128,-1,19
 566 193 566 193 566 256 c 0,20,21
 566 323 566 323 539.5 374 c 128,-1,22
 513 425 513 425 466 454 c 128,-1,23
 419 483 419 483 359 483 c 256,24,25
 299 483 299 483 251.5 454 c 128,-1,26
 204 425 204 425 177 374 c 128,-1,27
 150 323 150 323 150 256 c 0,28,29
 150 193 150 193 176.5 137 c 128,-1,30
 203 81 203 81 246 46 c 1,31,-1
 198 -10 l 1,0,1
EndSplineSet
Position2: "Single Positioning lookup 6 subtable" dx=0 dy=0 dh=476 dv=0
Position2: "Single Positioning lookup 5 subtable" dx=0 dy=0 dh=310 dv=0
Position2: "Single Positioning lookup 4 subtable" dx=0 dy=0 dh=480 dv=0
Position2: "Single Positioning lookup 3 subtable" dx=0 dy=0 dh=640 dv=0
Position2: "Single Positioning lookup 2 subtable" dx=0 dy=0 dh=520 dv=0
Position2: "Single Positioning lookup 1 subtable" dx=0 dy=0 dh=370 dv=0
Position2: "Single Positioning lookup 0 subtable" dx=0 dy=0 dh=250 dv=0
EndChar

StartChar: ghaa_chakma
Encoding: 69898 69898 34
Width: 1101
GlyphClass: 2
Flags: W
AnchorPoint: "+BBEENQQ3BEsEPARPBD0EPQQ+BDUA--6" 871 10 basechar 0
AnchorPoint: "+BBEENQQ3BEsEPARPBD0EPQQ+BDUA--5" 838 15 basechar 0
AnchorPoint: "+BBEENQQ3BEsEPARPBD0EPQQ+BDUA--4" 884 20 basechar 0
AnchorPoint: "+BBEENQQ3BEsEPARPBD0EPQQ+BDUA--3" 553 -20 basechar 0
AnchorPoint: "+BBEENQQ3BEsEPARPBD0EPQQ+BDUA--2" 1013 382 basechar 0
AnchorPoint: "+BBEENQQ3BEsEPARPBD0EPQQ+BDUA--1" 895 517 basechar 0
AnchorPoint: "+BBEENQQ3BEsEPARPBD0EPQQ+BDUA--0" 547 590 basechar 0
LayerCount: 2
Fore
SplineSet
79 510 m 1,0,1
 124 526 124 526 166 526 c 0,2,3
 241 526 241 526 290 478 c 128,-1,4
 339 430 339 430 339 344 c 0,5,6
 339 284 339 284 316.5 236 c 128,-1,7
 294 188 294 188 255.5 151 c 128,-1,8
 217 114 217 114 170 85 c 1,9,10
 190 76 190 76 222.5 67 c 128,-1,11
 255 58 255 58 296 58 c 0,12,13
 366 58 366 58 425.5 88 c 128,-1,14
 485 118 485 118 521.5 176.5 c 128,-1,15
 558 235 558 235 558 322 c 0,16,17
 558 356 558 356 545 404 c 128,-1,18
 532 452 532 452 486 499 c 1,19,-1
 568 520 l 1,20,21
 602 488 602 488 619 452.5 c 128,-1,22
 636 417 636 417 642 382.5 c 128,-1,23
 648 348 648 348 648 320 c 0,24,25
 648 276 648 276 640 238 c 128,-1,26
 632 200 632 200 617 167 c 1,27,28
 633 118 633 118 675.5 87.5 c 128,-1,29
 718 57 718 57 772 57 c 256,30,31
 826 57 826 57 866 85.5 c 128,-1,32
 906 114 906 114 928.5 162.5 c 128,-1,33
 951 211 951 211 951 270 c 0,34,35
 951 333 951 333 928 381 c 128,-1,36
 905 429 905 429 864 456.5 c 128,-1,37
 823 484 823 484 768 484 c 1,38,-1
 768 551 l 1,39,40
 849 551 849 551 910.5 517 c 128,-1,41
 972 483 972 483 1006.5 422 c 128,-1,42
 1041 361 1041 361 1041 279 c 0,43,44
 1041 199 1041 199 1005.5 133 c 128,-1,45
 970 67 970 67 908 28.5 c 128,-1,46
 846 -10 846 -10 765 -10 c 0,47,48
 697 -10 697 -10 645.5 16.5 c 128,-1,49
 594 43 594 43 562 88 c 1,50,51
 514 39 514 39 445.5 15 c 128,-1,52
 377 -9 377 -9 298 -9 c 0,53,54
 244 -9 244 -9 196.5 1.5 c 128,-1,55
 149 12 149 12 111.5 27 c 128,-1,56
 74 42 74 42 50 55 c 1,57,-1
 77 125 l 1,58,59
 115 139 115 139 154.5 165.5 c 128,-1,60
 194 192 194 192 221.5 234 c 128,-1,61
 249 276 249 276 249 336 c 0,62,63
 249 394 249 394 221.5 426.5 c 128,-1,64
 194 459 194 459 141 459 c 0,65,66
 114 459 114 459 79 447 c 1,67,-1
 79 510 l 1,0,1
EndSplineSet
Substitution2: "'ss02' Style Set 2 lookup 16 subtable" ghaa_chakma.alt
Substitution2: "'ss01' Style Set 1 lookup 15 subtable" ghaa_chakma.alt
Position2: "Single Positioning lookup 6 subtable" dx=0 dy=0 dh=476 dv=0
Position2: "Single Positioning lookup 5 subtable" dx=0 dy=0 dh=310 dv=0
Position2: "Single Positioning lookup 4 subtable" dx=0 dy=0 dh=480 dv=0
Position2: "Single Positioning lookup 3 subtable" dx=0 dy=0 dh=640 dv=0
Position2: "Single Positioning lookup 2 subtable" dx=0 dy=0 dh=520 dv=0
Position2: "Single Positioning lookup 1 subtable" dx=0 dy=0 dh=370 dv=0
Position2: "Single Positioning lookup 0 subtable" dx=0 dy=0 dh=250 dv=0
EndChar

StartChar: ngaa_chakma
Encoding: 69899 69899 35
Width: 584
GlyphClass: 2
Flags: W
AnchorPoint: "+BBEENQQ3BEsEPARPBD0EPQQ+BDUA--6" 401 10 basechar 0
AnchorPoint: "+BBEENQQ3BEsEPARPBD0EPQQ+BDUA--5" 505 15 basechar 0
AnchorPoint: "+BBEENQQ3BEsEPARPBD0EPQQ+BDUA--4" 403 34 basechar 0
AnchorPoint: "+BBEENQQ3BEsEPARPBD0EPQQ+BDUA--3" 288 -20 basechar 0
AnchorPoint: "+BBEENQQ3BEsEPARPBD0EPQQ+BDUA--2" 498 382 basechar 0
AnchorPoint: "+BBEENQQ3BEsEPARPBD0EPQQ+BDUA--1" 426 513 basechar 0
AnchorPoint: "+BBEENQQ3BEsEPARPBD0EPQQ+BDUA--0" 293 590 basechar 0
LayerCount: 2
Fore
SplineSet
554 156 m 1,0,1
 538 119 538 119 506 80.5 c 128,-1,2
 474 42 474 42 421 16 c 128,-1,3
 368 -10 368 -10 288 -10 c 0,4,5
 218 -10 218 -10 167 13 c 128,-1,6
 116 36 116 36 88 75.5 c 128,-1,7
 60 115 60 115 60 163 c 0,8,9
 60 202 60 202 78 235 c 128,-1,10
 96 268 96 268 132 285 c 1,11,12
 98 305 98 305 83.5 332 c 128,-1,13
 69 359 69 359 69 389 c 0,14,15
 69 434 69 434 96 470.5 c 128,-1,16
 123 507 123 507 174 528.5 c 128,-1,17
 225 550 225 550 296 550 c 0,18,19
 356 550 356 550 397.5 535 c 128,-1,20
 439 520 439 520 467 496 c 128,-1,21
 495 472 495 472 513 445 c 1,22,-1
 458 402 l 1,23,24
 449 416 449 416 430.5 435 c 128,-1,25
 412 454 412 454 381 468.5 c 128,-1,26
 350 483 350 483 304 483 c 0,27,28
 268 483 268 483 235 473 c 128,-1,29
 202 463 202 463 180.5 443.5 c 128,-1,30
 159 424 159 424 159 395 c 0,31,32
 159 367 159 367 177.5 350 c 128,-1,33
 196 333 196 333 222 325.5 c 128,-1,34
 248 318 248 318 271 318 c 2,35,-1
 289 318 l 1,36,-1
 289 251 l 1,37,-1
 268 251 l 2,38,39
 213 251 213 251 181.5 230 c 128,-1,40
 150 209 150 209 150 167 c 0,41,42
 150 129 150 129 172 104.5 c 128,-1,43
 194 80 194 80 228 68.5 c 128,-1,44
 262 57 262 57 297 57 c 0,45,46
 363 57 363 57 410.5 90.5 c 128,-1,47
 458 124 458 124 480 167 c 1,48,-1
 554 156 l 1,0,1
EndSplineSet
Position2: "Single Positioning lookup 6 subtable" dx=0 dy=0 dh=476 dv=0
Position2: "Single Positioning lookup 5 subtable" dx=0 dy=0 dh=310 dv=0
Position2: "Single Positioning lookup 4 subtable" dx=0 dy=0 dh=480 dv=0
Position2: "Single Positioning lookup 3 subtable" dx=0 dy=0 dh=640 dv=0
Position2: "Single Positioning lookup 2 subtable" dx=0 dy=0 dh=520 dv=0
Position2: "Single Positioning lookup 1 subtable" dx=0 dy=0 dh=370 dv=0
Position2: "Single Positioning lookup 0 subtable" dx=0 dy=0 dh=250 dv=0
EndChar

StartChar: caa_chakma
Encoding: 69900 69900 36
Width: 711
GlyphClass: 2
Flags: W
AnchorPoint: "+BBEENQQ3BEsEPARPBD0EPQQ+BDUA--6" 492 30 basechar 0
AnchorPoint: "+BBEENQQ3BEsEPARPBD0EPQQ+BDUA--5" 558 15 basechar 0
AnchorPoint: "+BBEENQQ3BEsEPARPBD0EPQQ+BDUA--4" 512 47 basechar 0
AnchorPoint: "+BBEENQQ3BEsEPARPBD0EPQQ+BDUA--3" 338 -20 basechar 0
AnchorPoint: "+BBEENQQ3BEsEPARPBD0EPQQ+BDUA--2" 627 382 basechar 0
AnchorPoint: "+BBEENQQ3BEsEPARPBD0EPQQ+BDUA--1" 552 517 basechar 0
AnchorPoint: "+BBEENQQ3BEsEPARPBD0EPQQ+BDUA--0" 351 590 basechar 0
LayerCount: 2
Fore
SplineSet
89 510 m 1,0,1
 134 526 134 526 176 526 c 0,2,3
 251 526 251 526 300 478 c 128,-1,4
 349 430 349 430 349 344 c 0,5,6
 349 284 349 284 326.5 236 c 128,-1,7
 304 188 304 188 265.5 151 c 128,-1,8
 227 114 227 114 180 85 c 1,9,10
 200 76 200 76 232.5 67 c 128,-1,11
 265 58 265 58 306 58 c 0,12,13
 374 58 374 58 433 88 c 128,-1,14
 492 118 492 118 529 176.5 c 128,-1,15
 566 235 566 235 566 322 c 0,16,17
 566 378 566 378 548 430 c 128,-1,18
 530 482 530 482 488 529 c 1,19,-1
 570 550 l 1,20,21
 617 502 617 502 636.5 443.5 c 128,-1,22
 656 385 656 385 656 320 c 0,23,24
 656 237 656 237 628.5 175 c 128,-1,25
 601 113 601 113 552.5 72 c 128,-1,26
 504 31 504 31 441.5 11 c 128,-1,27
 379 -9 379 -9 308 -9 c 0,28,29
 254 -9 254 -9 206.5 1.5 c 128,-1,30
 159 12 159 12 121.5 27 c 128,-1,31
 84 42 84 42 60 55 c 1,32,-1
 87 125 l 1,33,34
 125 139 125 139 164.5 165.5 c 128,-1,35
 204 192 204 192 231.5 234 c 128,-1,36
 259 276 259 276 259 336 c 0,37,38
 259 394 259 394 231.5 426.5 c 128,-1,39
 204 459 204 459 151 459 c 0,40,41
 124 459 124 459 89 447 c 1,42,-1
 89 510 l 1,0,1
EndSplineSet
Position2: "Single Positioning lookup 6 subtable" dx=0 dy=0 dh=476 dv=0
Position2: "Single Positioning lookup 5 subtable" dx=0 dy=0 dh=310 dv=0
Position2: "Single Positioning lookup 4 subtable" dx=0 dy=0 dh=480 dv=0
Position2: "Single Positioning lookup 3 subtable" dx=0 dy=0 dh=640 dv=0
Position2: "Single Positioning lookup 2 subtable" dx=0 dy=0 dh=520 dv=0
Position2: "Single Positioning lookup 1 subtable" dx=0 dy=0 dh=370 dv=0
Position2: "Single Positioning lookup 0 subtable" dx=0 dy=0 dh=250 dv=0
EndChar

StartChar: chaa_chakma
Encoding: 69901 69901 37
Width: 799
GlyphClass: 2
Flags: W
AnchorPoint: "+BBEENQQ3BEsEPARPBD0EPQQ+BDUA--6" 581 10 basechar 0
AnchorPoint: "+BBEENQQ3BEsEPARPBD0EPQQ+BDUA--5" 627 15 basechar 0
AnchorPoint: "+BBEENQQ3BEsEPARPBD0EPQQ+BDUA--4" 602 36 basechar 0
AnchorPoint: "+BBEENQQ3BEsEPARPBD0EPQQ+BDUA--3" 398 -20 basechar 0
AnchorPoint: "+BBEENQQ3BEsEPARPBD0EPQQ+BDUA--2" 722 382 basechar 0
AnchorPoint: "+BBEENQQ3BEsEPARPBD0EPQQ+BDUA--1" 629 524 basechar 0
AnchorPoint: "+BBEENQQ3BEsEPARPBD0EPQQ+BDUA--0" 398 590 basechar 0
LayerCount: 2
Fore
SplineSet
151 510 m 1,0,1
 196 526 196 526 235 526 c 0,2,3
 287 526 287 526 329 500 c 128,-1,4
 371 474 371 474 396 427 c 128,-1,5
 421 380 421 380 421 315 c 0,6,7
 421 275 421 275 410 225 c 128,-1,8
 399 175 399 175 377 129 c 1,9,10
 400 100 400 100 427 78.5 c 128,-1,11
 454 57 454 57 493 57 c 256,12,13
 532 57 532 57 561.5 79.5 c 128,-1,14
 591 102 591 102 610.5 138.5 c 128,-1,15
 630 175 630 175 639.5 218 c 128,-1,16
 649 261 649 261 649 302 c 0,17,18
 649 370 649 370 626 426.5 c 128,-1,19
 603 483 603 483 562 529 c 1,20,-1
 643 550 l 1,21,22
 685 507 685 507 712 448 c 128,-1,23
 739 389 739 389 739 313 c 0,24,25
 739 264 739 264 725.5 208 c 128,-1,26
 712 152 712 152 682.5 102.5 c 128,-1,27
 653 53 653 53 605 21.5 c 128,-1,28
 557 -10 557 -10 488 -10 c 0,29,30
 431 -10 431 -10 395 11 c 128,-1,31
 359 32 359 32 334 61 c 1,32,33
 307 29 307 29 272.5 9.5 c 128,-1,34
 238 -10 238 -10 194 -10 c 0,35,36
 163 -10 163 -10 132 2.5 c 128,-1,37
 101 15 101 15 80.5 42 c 128,-1,38
 60 69 60 69 60 113 c 0,39,40
 60 175 60 175 101.5 210.5 c 128,-1,41
 143 246 143 246 201 246 c 0,42,43
 238 246 238 246 265 233 c 128,-1,44
 292 220 292 220 314 200 c 1,45,46
 331 261 331 261 331 313 c 0,47,48
 331 380 331 380 299 419.5 c 128,-1,49
 267 459 267 459 214 459 c 0,50,51
 186 459 186 459 151 447 c 1,52,-1
 151 510 l 1,0,1
150 117 m 0,53,54
 150 90 150 90 167.5 73.5 c 128,-1,55
 185 57 185 57 206 57 c 0,56,57
 230 57 230 57 250 76 c 128,-1,58
 270 95 270 95 285 125 c 1,59,60
 269 148 269 148 251.5 163.5 c 128,-1,61
 234 179 234 179 210 179 c 0,62,63
 183 179 183 179 166.5 160.5 c 128,-1,64
 150 142 150 142 150 117 c 0,53,54
EndSplineSet
Substitution2: "'ss02' Style Set 2 lookup 16 subtable" chaa_chakma.alt
Substitution2: "'ss01' Style Set 1 lookup 15 subtable" chaa_chakma.alt
Position2: "Single Positioning lookup 6 subtable" dx=0 dy=0 dh=476 dv=0
Position2: "Single Positioning lookup 5 subtable" dx=0 dy=0 dh=310 dv=0
Position2: "Single Positioning lookup 4 subtable" dx=0 dy=0 dh=480 dv=0
Position2: "Single Positioning lookup 3 subtable" dx=0 dy=0 dh=640 dv=0
Position2: "Single Positioning lookup 2 subtable" dx=0 dy=0 dh=520 dv=0
Position2: "Single Positioning lookup 1 subtable" dx=0 dy=0 dh=370 dv=0
Position2: "Single Positioning lookup 0 subtable" dx=0 dy=0 dh=250 dv=0
EndChar

StartChar: jaa_chakma
Encoding: 69902 69902 38
Width: 656
GlyphClass: 2
Flags: W
AnchorPoint: "+BBEENQQ3BEsEPARPBD0EPQQ+BDUA--6" 449 10 basechar 0
AnchorPoint: "+BBEENQQ3BEsEPARPBD0EPQQ+BDUA--5" 534 15 basechar 0
AnchorPoint: "+BBEENQQ3BEsEPARPBD0EPQQ+BDUA--4" 501 46 basechar 0
AnchorPoint: "+BBEENQQ3BEsEPARPBD0EPQQ+BDUA--3" 340 -20 basechar 0
AnchorPoint: "+BBEENQQ3BEsEPARPBD0EPQQ+BDUA--2" 582 382 basechar 0
AnchorPoint: "+BBEENQQ3BEsEPARPBD0EPQQ+BDUA--1" 496 507 basechar 0
AnchorPoint: "+BBEENQQ3BEsEPARPBD0EPQQ+BDUA--0" 335 590 basechar 0
LayerCount: 2
Fore
SplineSet
145 168 m 1,0,1
 150 156 150 156 162 137 c 128,-1,2
 174 118 174 118 194.5 100 c 128,-1,3
 215 82 215 82 247 69.5 c 128,-1,4
 279 57 279 57 324 57 c 0,5,6
 360 57 360 57 395.5 68 c 128,-1,7
 431 79 431 79 460 102 c 128,-1,8
 489 125 489 125 504 161 c 1,9,10
 478 147 478 147 450 147 c 0,11,12
 425 147 425 147 399.5 159 c 128,-1,13
 374 171 374 171 357 194.5 c 128,-1,14
 340 218 340 218 340 252 c 0,15,16
 340 301 340 301 376 332.5 c 128,-1,17
 412 364 412 364 465 364 c 0,18,19
 484 364 484 364 501 360 c 1,20,21
 487 403 487 403 459 430 c 128,-1,22
 431 457 431 457 397 470 c 128,-1,23
 363 483 363 483 331 483 c 0,24,25
 296 483 296 483 264 474 c 1,26,27
 299 464 299 464 318.5 437 c 128,-1,28
 338 410 338 410 338 378 c 0,29,30
 338 349 338 349 322 320.5 c 128,-1,31
 306 292 306 292 275.5 273 c 128,-1,32
 245 254 245 254 203 254 c 0,33,34
 169 254 169 254 138.5 268.5 c 128,-1,35
 108 283 108 283 89 310.5 c 128,-1,36
 70 338 70 338 70 375 c 0,37,38
 70 416 70 416 92.5 448 c 128,-1,39
 115 480 115 480 153.5 503 c 128,-1,40
 192 526 192 526 240 538 c 128,-1,41
 288 550 288 550 340 550 c 0,42,43
 381 550 381 550 426.5 538.5 c 128,-1,44
 472 527 472 527 512 503 c 128,-1,45
 552 479 552 479 577 440 c 128,-1,46
 602 401 602 401 602 347 c 0,47,48
 602 316 602 316 592 283 c 1,49,50
 606 251 606 251 606 214 c 0,51,52
 606 150 606 150 569.5 99.5 c 128,-1,53
 533 49 533 49 470.5 19.5 c 128,-1,54
 408 -10 408 -10 330 -10 c 0,55,56
 251 -10 251 -10 193.5 17 c 128,-1,57
 136 44 136 44 102.5 85.5 c 128,-1,58
 69 127 69 127 60 168 c 1,59,-1
 145 168 l 1,0,1
156 376 m 0,60,61
 156 351 156 351 173.5 336 c 128,-1,62
 191 321 191 321 213 321 c 256,63,64
 235 321 235 321 251.5 336 c 128,-1,65
 268 351 268 351 268 377 c 0,66,67
 268 404 268 404 250 417.5 c 128,-1,68
 232 431 232 431 202 431 c 0,69,70
 191 431 191 431 180 429 c 1,71,72
 156 404 156 404 156 376 c 0,60,61
408 253 m 0,73,74
 408 231 408 231 421.5 219 c 128,-1,75
 435 207 435 207 457 207 c 0,76,77
 486 207 486 207 497 226 c 128,-1,78
 508 245 508 245 511 267 c 1,79,80
 506 282 506 282 495 292.5 c 128,-1,81
 484 303 484 303 463 303 c 0,82,83
 441 303 441 303 424.5 290 c 128,-1,84
 408 277 408 277 408 253 c 0,73,74
EndSplineSet
Substitution2: "'ss02' Style Set 2 lookup 16 subtable" jaa_chakma.alt
Substitution2: "'ss01' Style Set 1 lookup 15 subtable" jaa_chakma.alt
Position2: "Single Positioning lookup 6 subtable" dx=0 dy=0 dh=476 dv=0
Position2: "Single Positioning lookup 5 subtable" dx=0 dy=0 dh=310 dv=0
Position2: "Single Positioning lookup 4 subtable" dx=0 dy=0 dh=480 dv=0
Position2: "Single Positioning lookup 3 subtable" dx=0 dy=0 dh=640 dv=0
Position2: "Single Positioning lookup 2 subtable" dx=0 dy=0 dh=520 dv=0
Position2: "Single Positioning lookup 1 subtable" dx=0 dy=0 dh=370 dv=0
Position2: "Single Positioning lookup 0 subtable" dx=0 dy=0 dh=250 dv=0
EndChar

StartChar: jhaa_chakma
Encoding: 69903 69903 39
Width: 800
GlyphClass: 2
Flags: W
AnchorPoint: "+BBEENQQ3BEsEPARPBD0EPQQ+BDUA--6" 472 20 basechar 0
AnchorPoint: "+BBEENQQ3BEsEPARPBD0EPQQ+BDUA--5" 556 15 basechar 0
AnchorPoint: "+BBEENQQ3BEsEPARPBD0EPQQ+BDUA--4" 521 53 basechar 0
AnchorPoint: "+BBEENQQ3BEsEPARPBD0EPQQ+BDUA--3" 352 -20 basechar 0
AnchorPoint: "+BBEENQQ3BEsEPARPBD0EPQQ+BDUA--2" 712 382 basechar 0
AnchorPoint: "+BBEENQQ3BEsEPARPBD0EPQQ+BDUA--1" 634 492 basechar 0
AnchorPoint: "+BBEENQQ3BEsEPARPBD0EPQQ+BDUA--0" 432 590 basechar 0
LayerCount: 2
Fore
SplineSet
484 507 m 1,0,1
 495 487 495 487 512.5 464.5 c 128,-1,2
 530 442 530 442 554 426.5 c 128,-1,3
 578 411 578 411 606 411 c 0,4,5
 644 411 644 411 668.5 440 c 128,-1,6
 693 469 693 469 704 507 c 1,7,-1
 790 530 l 1,8,9
 787 495 787 495 770 457 c 128,-1,10
 753 419 753 419 721.5 388.5 c 128,-1,11
 690 358 690 358 646 345 c 1,12,-1
 646 320 l 2,13,14
 646 209 646 209 599.5 136 c 128,-1,15
 553 63 553 63 476.5 27 c 128,-1,16
 400 -9 400 -9 308 -9 c 0,17,18
 254 -9 254 -9 205.5 2 c 128,-1,19
 157 13 157 13 120 28.5 c 128,-1,20
 83 44 83 44 60 55 c 1,21,-1
 87 125 l 1,22,23
 135 150 135 150 174 175 c 128,-1,24
 213 200 213 200 236 235 c 128,-1,25
 259 270 259 270 259 324 c 0,26,27
 259 376 259 376 233.5 410.5 c 128,-1,28
 208 445 208 445 155 445 c 0,29,30
 124 445 124 445 89 433 c 1,31,-1
 89 495 l 1,32,33
 134 511 134 511 176 511 c 0,34,35
 226 511 226 511 265 488.5 c 128,-1,36
 304 466 304 466 326.5 426 c 128,-1,37
 349 386 349 386 349 332 c 256,38,39
 349 278 349 278 326.5 232.5 c 128,-1,40
 304 187 304 187 265.5 150.5 c 128,-1,41
 227 114 227 114 180 85 c 1,42,43
 200 76 200 76 232.5 67 c 128,-1,44
 265 58 265 58 306 58 c 0,45,46
 371 58 371 58 428 88 c 128,-1,47
 485 118 485 118 520.5 176.5 c 128,-1,48
 556 235 556 235 556 322 c 2,49,-1
 556 342 l 1,50,51
 520 350 520 350 493 368.5 c 128,-1,52
 466 387 466 387 447.5 408 c 128,-1,53
 429 429 429 429 419 444 c 1,54,-1
 484 507 l 1,0,1
EndSplineSet
Position2: "Single Positioning lookup 6 subtable" dx=0 dy=0 dh=476 dv=0
Position2: "Single Positioning lookup 5 subtable" dx=0 dy=0 dh=310 dv=0
Position2: "Single Positioning lookup 4 subtable" dx=0 dy=0 dh=480 dv=0
Position2: "Single Positioning lookup 3 subtable" dx=0 dy=0 dh=640 dv=0
Position2: "Single Positioning lookup 2 subtable" dx=0 dy=0 dh=520 dv=0
Position2: "Single Positioning lookup 1 subtable" dx=0 dy=0 dh=370 dv=0
Position2: "Single Positioning lookup 0 subtable" dx=0 dy=0 dh=250 dv=0
EndChar

StartChar: nyaa_chakma
Encoding: 69904 69904 40
Width: 756
GlyphClass: 2
Flags: W
AnchorPoint: "+BBEENQQ3BEsEPARPBD0EPQQ+BDUA--6" 473 40 basechar 0
AnchorPoint: "+BBEENQQ3BEsEPARPBD0EPQQ+BDUA--4" 553 49 basechar 0
AnchorPoint: "+BBEENQQ3BEsEPARPBD0EPQQ+BDUA--3" 371 -20 basechar 0
AnchorPoint: "+BBEENQQ3BEsEPARPBD0EPQQ+BDUA--2" 657 382 basechar 0
AnchorPoint: "+BBEENQQ3BEsEPARPBD0EPQQ+BDUA--1" 622 509 basechar 0
AnchorPoint: "+BBEENQQ3BEsEPARPBD0EPQQ+BDUA--0" 387 590 basechar 0
LayerCount: 2
Fore
SplineSet
505 171 m 1,0,1
 498 127 498 127 470.5 85 c 128,-1,2
 443 43 443 43 396 16.5 c 128,-1,3
 349 -10 349 -10 282 -10 c 0,4,5
 236 -10 236 -10 191.5 6 c 128,-1,6
 147 22 147 22 118 54.5 c 128,-1,7
 89 87 89 87 89 138 c 0,8,9
 89 178 89 178 106.5 208.5 c 128,-1,10
 124 239 124 239 152 263.5 c 128,-1,11
 180 288 180 288 211.5 309 c 128,-1,12
 243 330 243 330 271 349 c 128,-1,13
 299 368 299 368 316.5 388.5 c 128,-1,14
 334 409 334 409 334 433 c 0,15,16
 334 460 334 460 313.5 471.5 c 128,-1,17
 293 483 293 483 270 483 c 0,18,19
 245 483 245 483 221 470 c 128,-1,20
 197 457 197 457 180.5 436.5 c 128,-1,21
 164 416 164 416 158 393 c 1,22,-1
 70 377 l 1,23,24
 75 427 75 427 103.5 466 c 128,-1,25
 132 505 132 505 178 527.5 c 128,-1,26
 224 550 224 550 279 550 c 0,27,28
 316 550 316 550 349 539 c 128,-1,29
 382 528 382 528 403 503 c 128,-1,30
 424 478 424 478 424 436 c 0,31,32
 424 409 424 409 414.5 387.5 c 128,-1,33
 405 366 405 366 389 349 c 1,34,35
 402 335 402 335 423.5 324.5 c 128,-1,36
 445 314 445 314 481 314 c 0,37,38
 535 314 535 314 566.5 340 c 128,-1,39
 598 366 598 366 598 406 c 0,40,41
 598 432 598 432 584.5 455 c 128,-1,42
 571 478 571 478 549 491 c 1,43,-1
 615 545 l 1,44,45
 644 526 644 526 666 492.5 c 128,-1,46
 688 459 688 459 688 415 c 0,47,48
 688 367 688 367 661.5 329 c 128,-1,49
 635 291 635 291 590 269 c 128,-1,50
 545 247 545 247 489 247 c 0,51,52
 442 247 442 247 402.5 263.5 c 128,-1,53
 363 280 363 280 335 304 c 1,54,55
 300 281 300 281 264 259.5 c 128,-1,56
 228 238 228 238 203.5 211 c 128,-1,57
 179 184 179 184 179 145 c 0,58,59
 179 114 179 114 195 94.5 c 128,-1,60
 211 75 211 75 236.5 66 c 128,-1,61
 262 57 262 57 289 57 c 0,62,63
 333 57 333 57 359 73.5 c 128,-1,64
 385 90 385 90 398 110 c 128,-1,65
 411 130 411 130 415 141 c 1,66,-1
 505 171 l 1,0,1
EndSplineSet
Position2: "Single Positioning lookup 6 subtable" dx=0 dy=0 dh=476 dv=0
Position2: "Single Positioning lookup 5 subtable" dx=0 dy=0 dh=310 dv=0
Position2: "Single Positioning lookup 4 subtable" dx=0 dy=0 dh=480 dv=0
Position2: "Single Positioning lookup 3 subtable" dx=0 dy=0 dh=640 dv=0
Position2: "Single Positioning lookup 2 subtable" dx=0 dy=0 dh=520 dv=0
Position2: "Single Positioning lookup 1 subtable" dx=0 dy=0 dh=370 dv=0
Position2: "Single Positioning lookup 0 subtable" dx=0 dy=0 dh=250 dv=0
EndChar

StartChar: ttaa_chakma
Encoding: 69905 69905 41
Width: 874
GlyphClass: 2
Flags: W
AnchorPoint: "+BBEENQQ3BEsEPARPBD0EPQQ+BDUA--6" 631 10 basechar 0
AnchorPoint: "+BBEENQQ3BEsEPARPBD0EPQQ+BDUA--5" 758 15 basechar 0
AnchorPoint: "+BBEENQQ3BEsEPARPBD0EPQQ+BDUA--4" 738 15 basechar 0
AnchorPoint: "+BBEENQQ3BEsEPARPBD0EPQQ+BDUA--3" 458 -20 basechar 0
AnchorPoint: "+BBEENQQ3BEsEPARPBD0EPQQ+BDUA--2" 792 382 basechar 0
AnchorPoint: "+BBEENQQ3BEsEPARPBD0EPQQ+BDUA--1" 676 507 basechar 0
AnchorPoint: "+BBEENQQ3BEsEPARPBD0EPQQ+BDUA--0" 437 590 basechar 0
LayerCount: 2
Fore
SplineSet
797 0 m 1,0,-1
 488 0 l 1,1,-1
 488 53 l 1,2,3
 501 65 501 65 526 89.5 c 128,-1,4
 551 114 551 114 581.5 144.5 c 128,-1,5
 612 175 612 175 641 204.5 c 128,-1,6
 670 234 670 234 690 256 c 1,7,-1
 520 256 l 1,8,9
 516 199 516 199 487.5 147 c 128,-1,10
 459 95 459 95 409 62.5 c 128,-1,11
 359 30 359 30 290 30 c 0,12,13
 231 30 231 30 178.5 56.5 c 128,-1,14
 126 83 126 83 93 135 c 128,-1,15
 60 187 60 187 60 264 c 0,16,17
 60 347 60 347 94 401.5 c 128,-1,18
 128 456 128 456 185.5 488 c 128,-1,19
 243 520 243 520 315 533 c 128,-1,20
 387 546 387 546 464 546 c 0,21,22
 555 546 555 546 620 532.5 c 128,-1,23
 685 519 685 519 732 500 c 128,-1,24
 779 481 779 481 814 466 c 1,25,-1
 814 399 l 1,26,27
 726 444 726 444 638.5 461.5 c 128,-1,28
 551 479 551 479 450 479 c 0,29,30
 433 479 433 479 415.5 478.5 c 128,-1,31
 398 478 398 478 380 476 c 1,32,33
 438 453 438 453 472.5 410 c 128,-1,34
 507 367 507 367 516 313 c 1,35,-1
 787 313 l 1,36,-1
 787 256 l 1,37,38
 779 246 779 246 754.5 222 c 128,-1,39
 730 198 730 198 699 167 c 128,-1,40
 668 136 668 136 638 106.5 c 128,-1,41
 608 77 608 77 588 57 c 1,42,-1
 797 57 l 1,43,-1
 797 0 l 1,0,-1
150 264 m 0,44,45
 150 192 150 192 185.5 144.5 c 128,-1,46
 221 97 221 97 290 97 c 0,47,48
 339 97 339 97 369.5 121.5 c 128,-1,49
 400 146 400 146 415 185 c 128,-1,50
 430 224 430 224 430 267 c 0,51,52
 430 327 430 327 407.5 364.5 c 128,-1,53
 385 402 385 402 347.5 422 c 128,-1,54
 310 442 310 442 265 447 c 1,55,56
 216 426 216 426 183 382.5 c 128,-1,57
 150 339 150 339 150 264 c 0,44,45
EndSplineSet
Position2: "Single Positioning lookup 6 subtable" dx=0 dy=0 dh=476 dv=0
Position2: "Single Positioning lookup 5 subtable" dx=0 dy=0 dh=310 dv=0
Position2: "Single Positioning lookup 4 subtable" dx=0 dy=0 dh=480 dv=0
Position2: "Single Positioning lookup 3 subtable" dx=0 dy=0 dh=640 dv=0
Position2: "Single Positioning lookup 2 subtable" dx=0 dy=0 dh=520 dv=0
Position2: "Single Positioning lookup 1 subtable" dx=0 dy=0 dh=370 dv=0
Position2: "Single Positioning lookup 0 subtable" dx=0 dy=0 dh=250 dv=0
EndChar

StartChar: tthaa_chakma
Encoding: 69906 69906 42
Width: 880
GlyphClass: 2
Flags: W
AnchorPoint: "+BBEENQQ3BEsEPARPBD0EPQQ+BDUA--6" 641 10 basechar 0
AnchorPoint: "+BBEENQQ3BEsEPARPBD0EPQQ+BDUA--5" 728 15 basechar 0
AnchorPoint: "+BBEENQQ3BEsEPARPBD0EPQQ+BDUA--4" 740 23 basechar 0
AnchorPoint: "+BBEENQQ3BEsEPARPBD0EPQQ+BDUA--3" 458 -20 basechar 0
AnchorPoint: "+BBEENQQ3BEsEPARPBD0EPQQ+BDUA--2" 792 382 basechar 0
AnchorPoint: "+BBEENQQ3BEsEPARPBD0EPQQ+BDUA--1" 676 507 basechar 0
AnchorPoint: "+BBEENQQ3BEsEPARPBD0EPQQ+BDUA--0" 442 590 basechar 0
LayerCount: 2
Fore
SplineSet
820 161 m 0,0,1
 820 111 820 111 797.5 72.5 c 128,-1,2
 775 34 775 34 738 12 c 128,-1,3
 701 -10 701 -10 655 -10 c 0,4,5
 600 -10 600 -10 563 21.5 c 128,-1,6
 526 53 526 53 526 101 c 0,7,8
 526 133 526 133 543.5 160.5 c 128,-1,9
 561 188 561 188 592.5 204.5 c 128,-1,10
 624 221 624 221 666 221 c 0,11,12
 689 221 689 221 712 216 c 1,13,14
 699 231 699 231 678 239.5 c 128,-1,15
 657 248 657 248 625 248 c 2,16,-1
 519 248 l 1,17,18
 514 192 514 192 485 142.5 c 128,-1,19
 456 93 456 93 406.5 61.5 c 128,-1,20
 357 30 357 30 290 30 c 0,21,22
 231 30 231 30 178.5 56.5 c 128,-1,23
 126 83 126 83 93 135 c 128,-1,24
 60 187 60 187 60 264 c 0,25,26
 60 347 60 347 94 401.5 c 128,-1,27
 128 456 128 456 185.5 488 c 128,-1,28
 243 520 243 520 315 533 c 128,-1,29
 387 546 387 546 464 546 c 0,30,31
 555 546 555 546 620 532.5 c 128,-1,32
 685 519 685 519 732 500 c 128,-1,33
 779 481 779 481 814 466 c 1,34,-1
 814 399 l 1,35,36
 726 444 726 444 638.5 461.5 c 128,-1,37
 551 479 551 479 450 479 c 0,38,39
 433 479 433 479 415.5 478.5 c 128,-1,40
 398 478 398 478 380 476 c 1,41,42
 437 453 437 453 471.5 411 c 128,-1,43
 506 369 506 369 516 315 c 1,44,-1
 646 315 l 2,45,46
 723 315 723 315 771.5 274.5 c 128,-1,47
 820 234 820 234 820 161 c 0,0,1
150 264 m 0,48,49
 150 192 150 192 185.5 144.5 c 128,-1,50
 221 97 221 97 290 97 c 0,51,52
 339 97 339 97 369.5 121.5 c 128,-1,53
 400 146 400 146 415 185 c 128,-1,54
 430 224 430 224 430 267 c 0,55,56
 430 327 430 327 407.5 364.5 c 128,-1,57
 385 402 385 402 347.5 422 c 128,-1,58
 310 442 310 442 265 447 c 1,59,60
 216 426 216 426 183 382.5 c 128,-1,61
 150 339 150 339 150 264 c 0,48,49
612 102 m 0,62,63
 612 84 612 84 624 70.5 c 128,-1,64
 636 57 636 57 662 57 c 0,65,66
 678 57 678 57 694 64 c 128,-1,67
 710 71 710 71 721 90.5 c 128,-1,68
 732 110 732 110 732 145 c 1,69,70
 704 158 704 158 678 158 c 0,71,72
 645 158 645 158 628.5 141 c 128,-1,73
 612 124 612 124 612 102 c 0,62,63
EndSplineSet
Position2: "Single Positioning lookup 6 subtable" dx=0 dy=0 dh=476 dv=0
Position2: "Single Positioning lookup 5 subtable" dx=0 dy=0 dh=310 dv=0
Position2: "Single Positioning lookup 4 subtable" dx=0 dy=0 dh=480 dv=0
Position2: "Single Positioning lookup 3 subtable" dx=0 dy=0 dh=640 dv=0
Position2: "Single Positioning lookup 2 subtable" dx=0 dy=0 dh=520 dv=0
Position2: "Single Positioning lookup 1 subtable" dx=0 dy=0 dh=370 dv=0
Position2: "Single Positioning lookup 0 subtable" dx=0 dy=0 dh=250 dv=0
EndChar

StartChar: ddaa_chakma
Encoding: 69907 69907 43
Width: 601
GlyphClass: 2
Flags: W
AnchorPoint: "+BBEENQQ3BEsEPARPBD0EPQQ+BDUA--6" 422 10 basechar 0
AnchorPoint: "+BBEENQQ3BEsEPARPBD0EPQQ+BDUA--5" 507 15 basechar 0
AnchorPoint: "+BBEENQQ3BEsEPARPBD0EPQQ+BDUA--4" 487 17 basechar 0
AnchorPoint: "+BBEENQQ3BEsEPARPBD0EPQQ+BDUA--3" 317 -10 basechar 0
AnchorPoint: "+BBEENQQ3BEsEPARPBD0EPQQ+BDUA--2" 514 382 basechar 0
AnchorPoint: "+BBEENQQ3BEsEPARPBD0EPQQ+BDUA--1" 443 519 basechar 0
AnchorPoint: "+BBEENQQ3BEsEPARPBD0EPQQ+BDUA--0" 300 590 basechar 0
LayerCount: 2
Fore
SplineSet
541 0 m 1,0,-1
 60 0 l 1,1,-1
 60 67 l 1,2,3
 103 74 103 74 154 100.5 c 128,-1,4
 205 127 205 127 255 166 c 128,-1,5
 305 205 305 205 346.5 249 c 128,-1,6
 388 293 388 293 413 336 c 128,-1,7
 438 379 438 379 438 413 c 0,8,9
 438 454 438 454 405.5 468.5 c 128,-1,10
 373 483 373 483 330 483 c 0,11,12
 251 483 251 483 212 448.5 c 128,-1,13
 173 414 173 414 176 366 c 1,14,-1
 86 346 l 1,15,16
 86 380 86 380 100.5 415.5 c 128,-1,17
 115 451 115 451 145 481.5 c 128,-1,18
 175 512 175 512 223 530.5 c 128,-1,19
 271 549 271 549 338 549 c 0,20,21
 388 549 388 549 431 536 c 128,-1,22
 474 523 474 523 501 494 c 128,-1,23
 528 465 528 465 528 418 c 0,24,25
 528 361 528 361 488 302 c 128,-1,26
 448 243 448 243 381 184 c 128,-1,27
 314 125 314 125 233 67 c 1,28,-1
 541 67 l 1,29,-1
 541 0 l 1,0,-1
EndSplineSet
Position2: "Single Positioning lookup 6 subtable" dx=0 dy=0 dh=476 dv=0
Position2: "Single Positioning lookup 5 subtable" dx=0 dy=0 dh=310 dv=0
Position2: "Single Positioning lookup 4 subtable" dx=0 dy=0 dh=480 dv=0
Position2: "Single Positioning lookup 3 subtable" dx=0 dy=0 dh=640 dv=0
Position2: "Single Positioning lookup 2 subtable" dx=0 dy=0 dh=520 dv=0
Position2: "Single Positioning lookup 1 subtable" dx=0 dy=0 dh=370 dv=0
Position2: "Single Positioning lookup 0 subtable" dx=0 dy=0 dh=250 dv=0
EndChar

StartChar: ddhaa_chakma
Encoding: 69908 69908 44
Width: 775
GlyphClass: 2
Flags: W
AnchorPoint: "+BBEENQQ3BEsEPARPBD0EPQQ+BDUA--6" 526 40 basechar 0
AnchorPoint: "+BBEENQQ3BEsEPARPBD0EPQQ+BDUA--5" 572 15 basechar 0
AnchorPoint: "+BBEENQQ3BEsEPARPBD0EPQQ+BDUA--4" 557 67 basechar 0
AnchorPoint: "+BBEENQQ3BEsEPARPBD0EPQQ+BDUA--3" 367 -20 basechar 0
AnchorPoint: "+BBEENQQ3BEsEPARPBD0EPQQ+BDUA--2" 689 382 basechar 0
AnchorPoint: "+BBEENQQ3BEsEPARPBD0EPQQ+BDUA--1" 617 522 basechar 0
AnchorPoint: "+BBEENQQ3BEsEPARPBD0EPQQ+BDUA--0" 410 590 basechar 0
LayerCount: 2
Fore
SplineSet
304 57 m 0,0,1
 381 57 381 57 449.5 92 c 128,-1,2
 518 127 518 127 564.5 191 c 128,-1,3
 611 255 611 255 622 341 c 1,4,5
 606 333 606 333 588 328 c 128,-1,6
 570 323 570 323 551 323 c 0,7,8
 525 323 525 323 497 333.5 c 128,-1,9
 469 344 469 344 450.5 367 c 128,-1,10
 432 390 432 390 432 429 c 0,11,12
 432 481 432 481 470.5 515.5 c 128,-1,13
 509 550 509 550 573 550 c 0,14,15
 611 550 611 550 643.5 534.5 c 128,-1,16
 676 519 676 519 695.5 483 c 128,-1,17
 715 447 715 447 715 385 c 0,18,19
 715 304 715 304 687.5 233 c 128,-1,20
 660 162 660 162 608 107 c 128,-1,21
 556 52 556 52 482 21 c 128,-1,22
 408 -10 408 -10 315 -10 c 0,23,24
 257 -10 257 -10 207.5 1 c 128,-1,25
 158 12 158 12 120.5 27.5 c 128,-1,26
 83 43 83 43 60 54 c 1,27,-1
 87 124 l 1,28,29
 135 149 135 149 174 175 c 128,-1,30
 213 201 213 201 236 238.5 c 128,-1,31
 259 276 259 276 259 334 c 0,32,33
 259 394 259 394 233 429 c 128,-1,34
 207 464 207 464 154 464 c 0,35,36
 141 464 141 464 123.5 461 c 128,-1,37
 106 458 106 458 89 452 c 1,38,-1
 89 509 l 1,39,40
 112 517 112 517 134 521 c 128,-1,41
 156 525 156 525 176 525 c 0,42,43
 251 525 251 525 300 478.5 c 128,-1,44
 349 432 349 432 349 344 c 0,45,46
 349 285 349 285 326.5 237 c 128,-1,47
 304 189 304 189 265.5 151 c 128,-1,48
 227 113 227 113 180 83 c 1,49,50
 198 75 198 75 229 66 c 128,-1,51
 260 57 260 57 304 57 c 0,0,1
516 433 m 0,52,53
 516 409 516 409 532.5 399.5 c 128,-1,54
 549 390 549 390 567 390 c 0,55,56
 593 390 593 390 624 407 c 1,57,58
 621 452 621 452 606 467.5 c 128,-1,59
 591 483 591 483 570 483 c 0,60,61
 546 483 546 483 531 469 c 128,-1,62
 516 455 516 455 516 433 c 0,52,53
EndSplineSet
Position2: "Single Positioning lookup 6 subtable" dx=0 dy=0 dh=476 dv=0
Position2: "Single Positioning lookup 5 subtable" dx=0 dy=0 dh=310 dv=0
Position2: "Single Positioning lookup 4 subtable" dx=0 dy=0 dh=480 dv=0
Position2: "Single Positioning lookup 3 subtable" dx=0 dy=0 dh=640 dv=0
Position2: "Single Positioning lookup 2 subtable" dx=0 dy=0 dh=520 dv=0
Position2: "Single Positioning lookup 1 subtable" dx=0 dy=0 dh=370 dv=0
Position2: "Single Positioning lookup 0 subtable" dx=0 dy=0 dh=250 dv=0
EndChar

StartChar: nnaa_chakma
Encoding: 69909 69909 45
Width: 1012
GlyphClass: 2
Flags: W
AnchorPoint: "+BBEENQQ3BEsEPARPBD0EPQQ+BDUA--6" 775 50 basechar 0
AnchorPoint: "+BBEENQQ3BEsEPARPBD0EPQQ+BDUA--5" 820 15 basechar 0
AnchorPoint: "+BBEENQQ3BEsEPARPBD0EPQQ+BDUA--4" 808 10 basechar 0
AnchorPoint: "+BBEENQQ3BEsEPARPBD0EPQQ+BDUA--3" 504 -20 basechar 0
AnchorPoint: "+BBEENQQ3BEsEPARPBD0EPQQ+BDUA--2" 924 382 basechar 0
AnchorPoint: "+BBEENQQ3BEsEPARPBD0EPQQ+BDUA--1" 836 509 basechar 0
AnchorPoint: "+BBEENQQ3BEsEPARPBD0EPQQ+BDUA--0" 507 590 basechar 0
LayerCount: 2
Fore
SplineSet
746 46 m 1,0,1
 793 85 793 85 827.5 146.5 c 128,-1,2
 862 208 862 208 862 288 c 0,3,4
 862 383 862 383 822 433 c 128,-1,5
 782 483 782 483 726 483 c 0,6,7
 687 483 687 483 661.5 457 c 128,-1,8
 636 431 636 431 636 378 c 0,9,10
 636 349 636 349 642 326.5 c 128,-1,11
 648 304 648 304 654 283 c 128,-1,12
 660 262 660 262 660 236 c 0,13,14
 660 193 660 193 638 162.5 c 128,-1,15
 616 132 616 132 581 116.5 c 128,-1,16
 546 101 546 101 506 101 c 0,17,18
 468 101 468 101 432.5 116 c 128,-1,19
 397 131 397 131 374.5 161 c 128,-1,20
 352 191 352 191 352 236 c 0,21,22
 352 260 352 260 358 282 c 128,-1,23
 364 304 364 304 370 327 c 128,-1,24
 376 350 376 350 376 378 c 0,25,26
 376 432 376 432 350.5 457.5 c 128,-1,27
 325 483 325 483 286 483 c 0,28,29
 231 483 231 483 190.5 433 c 128,-1,30
 150 383 150 383 150 288 c 0,31,32
 150 208 150 208 183 146.5 c 128,-1,33
 216 85 216 85 263 46 c 1,34,-1
 215 -10 l 1,35,36
 148 44 148 44 104 122.5 c 128,-1,37
 60 201 60 201 60 296 c 0,38,39
 60 383 60 383 92.5 439 c 128,-1,40
 125 495 125 495 177.5 522.5 c 128,-1,41
 230 550 230 550 289 550 c 0,42,43
 335 550 335 550 374.5 533 c 128,-1,44
 414 516 414 516 438.5 480 c 128,-1,45
 463 444 463 444 463 387 c 0,46,47
 463 357 463 357 457.5 335.5 c 128,-1,48
 452 314 452 314 446 293.5 c 128,-1,49
 440 273 440 273 440 245 c 0,50,51
 440 168 440 168 506 168 c 256,52,53
 572 168 572 168 572 245 c 0,54,55
 572 272 572 272 566.5 293 c 128,-1,56
 561 314 561 314 555 336 c 128,-1,57
 549 358 549 358 549 387 c 0,58,59
 549 444 549 444 575 480 c 128,-1,60
 601 516 601 516 642 533 c 128,-1,61
 683 550 683 550 729 550 c 0,62,63
 788 550 788 550 839 522.5 c 128,-1,64
 890 495 890 495 921 439 c 128,-1,65
 952 383 952 383 952 296 c 0,66,67
 952 201 952 201 906.5 122.5 c 128,-1,68
 861 44 861 44 794 -10 c 1,69,-1
 746 46 l 1,0,1
EndSplineSet
Substitution2: "'ss02' Style Set 2 lookup 16 subtable" nnaa_chakma.alt
Substitution2: "'ss01' Style Set 1 lookup 15 subtable" nnaa_chakma.alt
Position2: "Single Positioning lookup 6 subtable" dx=0 dy=0 dh=476 dv=0
Position2: "Single Positioning lookup 5 subtable" dx=0 dy=0 dh=310 dv=0
Position2: "Single Positioning lookup 4 subtable" dx=0 dy=0 dh=480 dv=0
Position2: "Single Positioning lookup 3 subtable" dx=0 dy=0 dh=640 dv=0
Position2: "Single Positioning lookup 2 subtable" dx=0 dy=0 dh=520 dv=0
Position2: "Single Positioning lookup 1 subtable" dx=0 dy=0 dh=370 dv=0
Position2: "Single Positioning lookup 0 subtable" dx=0 dy=0 dh=250 dv=0
EndChar

StartChar: taa_chakma
Encoding: 69910 69910 46
Width: 1045
GlyphClass: 2
Flags: W
AnchorPoint: "+BBEENQQ3BEsEPARPBD0EPQQ+BDUA--6" 781 10 basechar 0
AnchorPoint: "+BBEENQQ3BEsEPARPBD0EPQQ+BDUA--5" 828 15 basechar 0
AnchorPoint: "+BBEENQQ3BEsEPARPBD0EPQQ+BDUA--4" 862 25 basechar 0
AnchorPoint: "+BBEENQQ3BEsEPARPBD0EPQQ+BDUA--3" 513 -20 basechar 0
AnchorPoint: "+BBEENQQ3BEsEPARPBD0EPQQ+BDUA--2" 956 382 basechar 0
AnchorPoint: "+BBEENQQ3BEsEPARPBD0EPQQ+BDUA--1" 847 516 basechar 0
AnchorPoint: "+BBEENQQ3BEsEPARPBD0EPQQ+BDUA--0" 514 590 basechar 0
LayerCount: 2
Fore
SplineSet
317 550 m 0,0,1
 389 550 389 550 444.5 519.5 c 128,-1,2
 500 489 500 489 533 437 c 1,3,4
 551 465 551 465 578 491 c 128,-1,5
 605 517 605 517 643.5 533.5 c 128,-1,6
 682 550 682 550 735 550 c 0,7,8
 810 550 810 550 866 513.5 c 128,-1,9
 922 477 922 477 953.5 414.5 c 128,-1,10
 985 352 985 352 985 273 c 0,11,12
 985 192 985 192 953.5 128 c 128,-1,13
 922 64 922 64 865 27 c 128,-1,14
 808 -10 808 -10 732 -10 c 0,15,16
 690 -10 690 -10 661 0.5 c 128,-1,17
 632 11 632 11 612 22 c 1,18,-1
 663 76 l 1,19,20
 678 68 678 68 696 62.5 c 128,-1,21
 714 57 714 57 735 57 c 0,22,23
 783 57 783 57 819 85.5 c 128,-1,24
 855 114 855 114 875 162.5 c 128,-1,25
 895 211 895 211 895 271 c 256,26,27
 895 331 895 331 875.5 379 c 128,-1,28
 856 427 856 427 820.5 455 c 128,-1,29
 785 483 785 483 737 483 c 256,30,31
 689 483 689 483 655 456 c 128,-1,32
 621 429 621 429 601.5 387.5 c 128,-1,33
 582 346 582 346 576 304 c 1,34,35
 578 288 578 288 578 271 c 0,36,37
 578 191 578 191 546 127.5 c 128,-1,38
 514 64 514 64 455.5 27 c 128,-1,39
 397 -10 397 -10 317 -10 c 256,40,41
 237 -10 237 -10 179.5 27 c 128,-1,42
 122 64 122 64 91 127.5 c 128,-1,43
 60 191 60 191 60 271 c 256,44,45
 60 351 60 351 91 414 c 128,-1,46
 122 477 122 477 179.5 513.5 c 128,-1,47
 237 550 237 550 317 550 c 0,0,1
317 57 m 256,48,49
 370 57 370 57 408.5 85.5 c 128,-1,50
 447 114 447 114 467.5 162.5 c 128,-1,51
 488 211 488 211 488 271 c 256,52,53
 488 331 488 331 467.5 379 c 128,-1,54
 447 427 447 427 408.5 455 c 128,-1,55
 370 483 370 483 317 483 c 256,56,57
 264 483 264 483 226.5 455 c 128,-1,58
 189 427 189 427 169.5 379 c 128,-1,59
 150 331 150 331 150 271 c 256,60,61
 150 211 150 211 169.5 162.5 c 128,-1,62
 189 114 189 114 226.5 85.5 c 128,-1,63
 264 57 264 57 317 57 c 256,48,49
EndSplineSet
Position2: "Single Positioning lookup 6 subtable" dx=0 dy=0 dh=476 dv=0
Position2: "Single Positioning lookup 5 subtable" dx=0 dy=0 dh=310 dv=0
Position2: "Single Positioning lookup 4 subtable" dx=0 dy=0 dh=480 dv=0
Position2: "Single Positioning lookup 3 subtable" dx=0 dy=0 dh=640 dv=0
Position2: "Single Positioning lookup 2 subtable" dx=0 dy=0 dh=520 dv=0
Position2: "Single Positioning lookup 1 subtable" dx=0 dy=0 dh=370 dv=0
Position2: "Single Positioning lookup 0 subtable" dx=0 dy=0 dh=250 dv=0
EndChar

StartChar: thaa_chakma
Encoding: 69911 69911 47
Width: 1066
GlyphClass: 2
Flags: W
AnchorPoint: "+BBEENQQ3BEsEPARPBD0EPQQ+BDUA--6" 781 10 basechar 0
AnchorPoint: "+BBEENQQ3BEsEPARPBD0EPQQ+BDUA--5" 828 15 basechar 0
AnchorPoint: "+BBEENQQ3BEsEPARPBD0EPQQ+BDUA--4" 882 34 basechar 0
AnchorPoint: "+BBEENQQ3BEsEPARPBD0EPQQ+BDUA--3" 534 -20 basechar 0
AnchorPoint: "+BBEENQQ3BEsEPARPBD0EPQQ+BDUA--2" 978 382 basechar 0
AnchorPoint: "+BBEENQQ3BEsEPARPBD0EPQQ+BDUA--1" 847 516 basechar 0
AnchorPoint: "+BBEENQQ3BEsEPARPBD0EPQQ+BDUA--0" 534 590 basechar 0
LayerCount: 2
Fore
SplineSet
317 550 m 0,0,1
 389 550 389 550 444 520 c 128,-1,2
 499 490 499 490 532 438 c 1,3,4
 565 490 565 490 619 520 c 128,-1,5
 673 550 673 550 745 550 c 0,6,7
 825 550 825 550 883.5 513.5 c 128,-1,8
 942 477 942 477 974 414 c 128,-1,9
 1006 351 1006 351 1006 271 c 256,10,11
 1006 191 1006 191 974 127.5 c 128,-1,12
 942 64 942 64 883.5 27 c 128,-1,13
 825 -10 825 -10 745 -10 c 0,14,15
 673 -10 673 -10 619 20.5 c 128,-1,16
 565 51 565 51 532 103 c 1,17,18
 499 51 499 51 444 20.5 c 128,-1,19
 389 -10 389 -10 317 -10 c 0,20,21
 237 -10 237 -10 179.5 27 c 128,-1,22
 122 64 122 64 91 127.5 c 128,-1,23
 60 191 60 191 60 271 c 256,24,25
 60 351 60 351 91 414 c 128,-1,26
 122 477 122 477 179.5 513.5 c 128,-1,27
 237 550 237 550 317 550 c 0,0,1
317 57 m 256,28,29
 370 57 370 57 408.5 85.5 c 128,-1,30
 447 114 447 114 467.5 162.5 c 128,-1,31
 488 211 488 211 488 271 c 256,32,33
 488 331 488 331 467.5 379 c 128,-1,34
 447 427 447 427 408.5 455 c 128,-1,35
 370 483 370 483 317 483 c 256,36,37
 264 483 264 483 226.5 455 c 128,-1,38
 189 427 189 427 169.5 379 c 128,-1,39
 150 331 150 331 150 271 c 256,40,41
 150 211 150 211 169.5 162.5 c 128,-1,42
 189 114 189 114 226.5 85.5 c 128,-1,43
 264 57 264 57 317 57 c 256,28,29
745 57 m 256,44,45
 798 57 798 57 836.5 85.5 c 128,-1,46
 875 114 875 114 895.5 162.5 c 128,-1,47
 916 211 916 211 916 271 c 256,48,49
 916 331 916 331 895.5 379 c 128,-1,50
 875 427 875 427 836.5 455 c 128,-1,51
 798 483 798 483 745 483 c 256,52,53
 692 483 692 483 654.5 455 c 128,-1,54
 617 427 617 427 597.5 379 c 128,-1,55
 578 331 578 331 578 271 c 256,56,57
 578 211 578 211 597.5 162.5 c 128,-1,58
 617 114 617 114 654.5 85.5 c 128,-1,59
 692 57 692 57 745 57 c 256,44,45
EndSplineSet
Position2: "Single Positioning lookup 6 subtable" dx=0 dy=0 dh=476 dv=0
Position2: "Single Positioning lookup 5 subtable" dx=0 dy=0 dh=310 dv=0
Position2: "Single Positioning lookup 4 subtable" dx=0 dy=0 dh=480 dv=0
Position2: "Single Positioning lookup 3 subtable" dx=0 dy=0 dh=640 dv=0
Position2: "Single Positioning lookup 2 subtable" dx=0 dy=0 dh=520 dv=0
Position2: "Single Positioning lookup 1 subtable" dx=0 dy=0 dh=370 dv=0
Position2: "Single Positioning lookup 0 subtable" dx=0 dy=0 dh=250 dv=0
EndChar

StartChar: daa_chakma
Encoding: 69912 69912 48
Width: 613
GlyphClass: 2
Flags: W
AnchorPoint: "+BBEENQQ3BEsEPARPBD0EPQQ+BDUA--6" 362 10 basechar 0
AnchorPoint: "+BBEENQQ3BEsEPARPBD0EPQQ+BDUA--5" 490 15 basechar 0
AnchorPoint: "+BBEENQQ3BEsEPARPBD0EPQQ+BDUA--4" 438 42 basechar 0
AnchorPoint: "+BBEENQQ3BEsEPARPBD0EPQQ+BDUA--3" 289 -20 basechar 0
AnchorPoint: "+BBEENQQ3BEsEPARPBD0EPQQ+BDUA--2" 524 382 basechar 0
AnchorPoint: "+BBEENQQ3BEsEPARPBD0EPQQ+BDUA--1" 399 518 basechar 0
AnchorPoint: "+BBEENQQ3BEsEPARPBD0EPQQ+BDUA--0" 299 590 basechar 0
LayerCount: 2
Fore
SplineSet
286 -10 m 0,0,1
 195 -10 195 -10 135.5 35 c 128,-1,2
 76 80 76 80 50 153 c 1,3,-1
 136 178 l 1,4,5
 155 123 155 123 193.5 90 c 128,-1,6
 232 57 232 57 288 57 c 0,7,8
 342 57 342 57 381.5 85.5 c 128,-1,9
 421 114 421 114 442 162.5 c 128,-1,10
 463 211 463 211 463 270 c 0,11,12
 463 333 463 333 442 381 c 128,-1,13
 421 429 421 429 382.5 456.5 c 128,-1,14
 344 484 344 484 289 484 c 0,15,16
 246 484 246 484 214.5 466 c 128,-1,17
 183 448 183 448 163.5 420 c 128,-1,18
 144 392 144 392 136 361 c 1,19,-1
 50 375 l 1,20,21
 73 455 73 455 138 503 c 128,-1,22
 203 551 203 551 290 551 c 0,23,24
 371 551 371 551 430 514.5 c 128,-1,25
 489 478 489 478 521 414.5 c 128,-1,26
 553 351 553 351 553 269 c 0,27,28
 553 189 553 189 520 125.5 c 128,-1,29
 487 62 487 62 427 26 c 128,-1,30
 367 -10 367 -10 286 -10 c 0,0,1
EndSplineSet
Position2: "Single Positioning lookup 6 subtable" dx=0 dy=0 dh=476 dv=0
Position2: "Single Positioning lookup 5 subtable" dx=0 dy=0 dh=310 dv=0
Position2: "Single Positioning lookup 4 subtable" dx=0 dy=0 dh=480 dv=0
Position2: "Single Positioning lookup 3 subtable" dx=0 dy=0 dh=640 dv=0
Position2: "Single Positioning lookup 2 subtable" dx=0 dy=0 dh=520 dv=0
Position2: "Single Positioning lookup 1 subtable" dx=0 dy=0 dh=370 dv=0
Position2: "Single Positioning lookup 0 subtable" dx=0 dy=0 dh=250 dv=0
EndChar

StartChar: dhaa_chakma
Encoding: 69913 69913 49
Width: 683
GlyphClass: 2
Flags: W
AnchorPoint: "+BBEENQQ3BEsEPARPBD0EPQQ+BDUA--6" 482 20 basechar 0
AnchorPoint: "+BBEENQQ3BEsEPARPBD0EPQQ+BDUA--5" 557 15 basechar 0
AnchorPoint: "+BBEENQQ3BEsEPARPBD0EPQQ+BDUA--4" 517 0 basechar 0
AnchorPoint: "+BBEENQQ3BEsEPARPBD0EPQQ+BDUA--3" 342 -20 basechar 0
AnchorPoint: "+BBEENQQ3BEsEPARPBD0EPQQ+BDUA--2" 594 382 basechar 0
AnchorPoint: "+BBEENQQ3BEsEPARPBD0EPQQ+BDUA--1" 461 520 basechar 0
AnchorPoint: "+BBEENQQ3BEsEPARPBD0EPQQ+BDUA--0" 341 590 basechar 0
LayerCount: 2
Fore
SplineSet
342 550 m 256,0,1
 424 550 424 550 487.5 515 c 128,-1,2
 551 480 551 480 587 415 c 128,-1,3
 623 350 623 350 623 260 c 0,4,5
 623 169 623 169 589.5 97 c 128,-1,6
 556 25 556 25 497 -10 c 1,7,8
 469 25 469 25 432 51 c 128,-1,9
 395 77 395 77 342 77 c 0,10,11
 290 77 290 77 256 51 c 128,-1,12
 222 25 222 25 193 -10 c 1,13,14
 132 24 132 24 96 97 c 128,-1,15
 60 170 60 170 60 260 c 256,16,17
 60 350 60 350 96.5 415 c 128,-1,18
 133 480 133 480 196.5 515 c 128,-1,19
 260 550 260 550 342 550 c 256,0,1
150 258 m 0,20,21
 150 211 150 211 160.5 163.5 c 128,-1,22
 171 116 171 116 188 84 c 1,23,24
 209 104 209 104 248.5 124 c 128,-1,25
 288 144 288 144 342 144 c 256,26,27
 396 144 396 144 435 124 c 128,-1,28
 474 104 474 104 497 84 c 1,29,30
 512 116 512 116 522.5 164 c 128,-1,31
 533 212 533 212 533 258 c 0,32,33
 533 365 533 365 480.5 424 c 128,-1,34
 428 483 428 483 342 483 c 256,35,36
 256 483 256 483 203 424 c 128,-1,37
 150 365 150 365 150 258 c 0,20,21
EndSplineSet
Position2: "Single Positioning lookup 6 subtable" dx=0 dy=0 dh=476 dv=0
Position2: "Single Positioning lookup 5 subtable" dx=0 dy=0 dh=310 dv=0
Position2: "Single Positioning lookup 4 subtable" dx=0 dy=0 dh=480 dv=0
Position2: "Single Positioning lookup 3 subtable" dx=0 dy=0 dh=640 dv=0
Position2: "Single Positioning lookup 2 subtable" dx=0 dy=0 dh=520 dv=0
Position2: "Single Positioning lookup 1 subtable" dx=0 dy=0 dh=370 dv=0
Position2: "Single Positioning lookup 0 subtable" dx=0 dy=0 dh=250 dv=0
EndChar

StartChar: naa_chakma
Encoding: 69914 69914 50
Width: 1001
GlyphClass: 2
Flags: W
AnchorPoint: "+BBEENQQ3BEsEPARPBD0EPQQ+BDUA--6" 772 50 basechar 0
AnchorPoint: "+BBEENQQ3BEsEPARPBD0EPQQ+BDUA--5" 819 15 basechar 0
AnchorPoint: "+BBEENQQ3BEsEPARPBD0EPQQ+BDUA--4" 808 10 basechar 0
AnchorPoint: "+BBEENQQ3BEsEPARPBD0EPQQ+BDUA--3" 504 -20 basechar 0
AnchorPoint: "+BBEENQQ3BEsEPARPBD0EPQQ+BDUA--2" 892 382 basechar 0
AnchorPoint: "+BBEENQQ3BEsEPARPBD0EPQQ+BDUA--1" 796 522 basechar 0
AnchorPoint: "+BBEENQQ3BEsEPARPBD0EPQQ+BDUA--0" 500 590 basechar 0
LayerCount: 2
Fore
SplineSet
745 46 m 1,0,1
 792 85 792 85 821.5 144.5 c 128,-1,2
 851 204 851 204 851 273 c 0,3,4
 851 333 851 333 832.5 380.5 c 128,-1,5
 814 428 814 428 782 455.5 c 128,-1,6
 750 483 750 483 708 483 c 0,7,8
 673 483 673 483 640.5 462.5 c 128,-1,9
 608 442 608 442 584 407 c 1,10,11
 651 387 651 387 694 336 c 128,-1,12
 737 285 737 285 737 214 c 0,13,14
 737 163 737 163 712.5 121 c 128,-1,15
 688 79 688 79 651.5 54.5 c 128,-1,16
 615 30 615 30 578 30 c 0,17,18
 532 30 532 30 505 71 c 1,19,20
 480 31 480 31 430 31 c 0,21,22
 390 31 390 31 354.5 54.5 c 128,-1,23
 319 78 319 78 296.5 119 c 128,-1,24
 274 160 274 160 274 211 c 0,25,26
 274 284 274 284 316 335.5 c 128,-1,27
 358 387 358 387 425 407 c 1,28,29
 401 443 401 443 368 463 c 128,-1,30
 335 483 335 483 300 483 c 0,31,32
 259 483 259 483 224.5 455.5 c 128,-1,33
 190 428 190 428 170 380.5 c 128,-1,34
 150 333 150 333 150 273 c 0,35,36
 150 204 150 204 178 144.5 c 128,-1,37
 206 85 206 85 253 46 c 1,38,-1
 205 -10 l 1,39,40
 138 44 138 44 99 122.5 c 128,-1,41
 60 201 60 201 60 296 c 0,42,43
 60 371 60 371 90 428 c 128,-1,44
 120 485 120 485 173.5 517.5 c 128,-1,45
 227 550 227 550 297 550 c 0,46,47
 364 550 364 550 416.5 516.5 c 128,-1,48
 469 483 469 483 500 418 c 1,49,-1
 504 418 l 2,50,51
 507 418 507 418 509 418 c 0,52,53
 539 482 539 482 590.5 516 c 128,-1,54
 642 550 642 550 709 550 c 0,55,56
 779 550 779 550 831 515.5 c 128,-1,57
 883 481 883 481 912 423.5 c 128,-1,58
 941 366 941 366 941 296 c 0,59,60
 941 201 941 201 900.5 122.5 c 128,-1,61
 860 44 860 44 793 -10 c 1,62,-1
 745 46 l 1,0,1
359 214 m 0,63,64
 359 181 359 181 371.5 154.5 c 128,-1,65
 384 128 384 128 401 113 c 128,-1,66
 418 98 418 98 432 98 c 1,67,68
 445 105 445 105 458 145.5 c 128,-1,69
 471 186 471 186 471 243 c 0,70,71
 471 296 471 296 455 344 c 1,72,73
 413 330 413 330 386 295 c 128,-1,74
 359 260 359 260 359 214 c 0,63,64
539 243 m 0,75,76
 539 175 539 175 555 140 c 128,-1,77
 571 105 571 105 583 97 c 1,78,79
 596 97 596 97 612 113 c 128,-1,80
 628 129 628 129 640 156 c 128,-1,81
 652 183 652 183 652 214 c 0,82,83
 652 260 652 260 624.5 294.5 c 128,-1,84
 597 329 597 329 554 343 c 1,85,86
 539 296 539 296 539 243 c 0,75,76
EndSplineSet
Substitution2: "'ss02' Style Set 2 lookup 16 subtable" naa_chakma.alt
Substitution2: "'ss01' Style Set 1 lookup 15 subtable" naa_chakma.alt
Position2: "Single Positioning lookup 6 subtable" dx=0 dy=0 dh=476 dv=0
Position2: "Single Positioning lookup 5 subtable" dx=0 dy=0 dh=310 dv=0
Position2: "Single Positioning lookup 4 subtable" dx=0 dy=0 dh=480 dv=0
Position2: "Single Positioning lookup 3 subtable" dx=0 dy=0 dh=640 dv=0
Position2: "Single Positioning lookup 2 subtable" dx=0 dy=0 dh=520 dv=0
Position2: "Single Positioning lookup 1 subtable" dx=0 dy=0 dh=370 dv=0
Position2: "Single Positioning lookup 0 subtable" dx=0 dy=0 dh=250 dv=0
EndChar

StartChar: paa_chakma
Encoding: 69915 69915 51
Width: 703
GlyphClass: 2
Flags: W
AnchorPoint: "+BBEENQQ3BEsEPARPBD0EPQQ+BDUA--6" 464 20 basechar 0
AnchorPoint: "+BBEENQQ3BEsEPARPBD0EPQQ+BDUA--5" 565 15 basechar 0
AnchorPoint: "+BBEENQQ3BEsEPARPBD0EPQQ+BDUA--4" 525 48 basechar 0
AnchorPoint: "+BBEENQQ3BEsEPARPBD0EPQQ+BDUA--3" 349 -20 basechar 0
AnchorPoint: "+BBEENQQ3BEsEPARPBD0EPQQ+BDUA--2" 614 382 basechar 0
AnchorPoint: "+BBEENQQ3BEsEPARPBD0EPQQ+BDUA--1" 511 508 basechar 0
AnchorPoint: "+BBEENQQ3BEsEPARPBD0EPQQ+BDUA--0" 351 590 basechar 0
LayerCount: 2
Fore
SplineSet
352 -10 m 0,0,1
 265 -10 265 -10 199.5 27 c 128,-1,2
 134 64 134 64 97 129 c 128,-1,3
 60 194 60 194 60 278 c 0,4,5
 60 361 60 361 94.5 432.5 c 128,-1,6
 129 504 129 504 188 546 c 1,7,-1
 243 503 l 1,8,9
 200 468 200 468 175 408 c 128,-1,10
 150 348 150 348 150 280 c 0,11,12
 150 214 150 214 174.5 163.5 c 128,-1,13
 199 113 199 113 244.5 85 c 128,-1,14
 290 57 290 57 352 57 c 0,15,16
 415 57 415 57 460 85.5 c 128,-1,17
 505 114 505 114 529 164 c 128,-1,18
 553 214 553 214 553 280 c 0,19,20
 553 348 553 348 526 408 c 128,-1,21
 499 468 499 468 452 503 c 1,22,-1
 507 546 l 1,23,24
 570 505 570 505 606.5 431.5 c 128,-1,25
 643 358 643 358 643 278 c 0,26,27
 643 193 643 193 606 128 c 128,-1,28
 569 63 569 63 503.5 26.5 c 128,-1,29
 438 -10 438 -10 352 -10 c 0,0,1
EndSplineSet
Position2: "Single Positioning lookup 6 subtable" dx=0 dy=0 dh=476 dv=0
Position2: "Single Positioning lookup 5 subtable" dx=0 dy=0 dh=310 dv=0
Position2: "Single Positioning lookup 4 subtable" dx=0 dy=0 dh=480 dv=0
Position2: "Single Positioning lookup 3 subtable" dx=0 dy=0 dh=640 dv=0
Position2: "Single Positioning lookup 2 subtable" dx=0 dy=0 dh=520 dv=0
Position2: "Single Positioning lookup 1 subtable" dx=0 dy=0 dh=370 dv=0
Position2: "Single Positioning lookup 0 subtable" dx=0 dy=0 dh=250 dv=0
EndChar

StartChar: phaa_chakma
Encoding: 69916 69916 52
Width: 714
GlyphClass: 2
Flags: W
AnchorPoint: "+BBEENQQ3BEsEPARPBD0EPQQ+BDUA--6" 454 20 basechar 0
AnchorPoint: "+BBEENQQ3BEsEPARPBD0EPQQ+BDUA--5" 576 15 basechar 0
AnchorPoint: "+BBEENQQ3BEsEPARPBD0EPQQ+BDUA--4" 515 53 basechar 0
AnchorPoint: "+BBEENQQ3BEsEPARPBD0EPQQ+BDUA--3" 358 -20 basechar 0
AnchorPoint: "+BBEENQQ3BEsEPARPBD0EPQQ+BDUA--2" 624 382 basechar 0
AnchorPoint: "+BBEENQQ3BEsEPARPBD0EPQQ+BDUA--1" 541 515 basechar 0
AnchorPoint: "+BBEENQQ3BEsEPARPBD0EPQQ+BDUA--0" 357 590 basechar 0
LayerCount: 2
Fore
SplineSet
654 305 m 0,0,1
 654 211 654 211 616.5 140 c 128,-1,2
 579 69 579 69 512.5 29.5 c 128,-1,3
 446 -10 446 -10 358 -10 c 0,4,5
 273 -10 273 -10 205.5 27 c 128,-1,6
 138 64 138 64 99 129 c 128,-1,7
 60 194 60 194 60 278 c 0,8,9
 60 361 60 361 94.5 432.5 c 128,-1,10
 129 504 129 504 188 546 c 1,11,-1
 243 503 l 1,12,13
 200 468 200 468 175 408 c 128,-1,14
 150 348 150 348 150 280 c 0,15,16
 150 214 150 214 177 163.5 c 128,-1,17
 204 113 204 113 251.5 85 c 128,-1,18
 299 57 299 57 358 57 c 0,19,20
 450 57 450 57 507 125 c 128,-1,21
 564 193 564 193 564 315 c 0,22,23
 564 332 564 332 563 347 c 1,24,25
 541 332 541 332 516 322.5 c 128,-1,26
 491 313 491 313 462 313 c 0,27,28
 430 313 430 313 401.5 326.5 c 128,-1,29
 373 340 373 340 355.5 365.5 c 128,-1,30
 338 391 338 391 338 428 c 0,31,32
 338 482 338 482 376.5 516 c 128,-1,33
 415 550 415 550 476 550 c 0,34,35
 535 550 535 550 574.5 518.5 c 128,-1,36
 614 487 614 487 634 431.5 c 128,-1,37
 654 376 654 376 654 305 c 0,0,1
422 432 m 0,38,39
 422 413 422 413 436.5 396.5 c 128,-1,40
 451 380 451 380 479 380 c 0,41,42
 500 380 500 380 518 389.5 c 128,-1,43
 536 399 536 399 552 414 c 1,44,45
 542 446 542 446 523.5 464.5 c 128,-1,46
 505 483 505 483 478 483 c 0,47,48
 453 483 453 483 437.5 468.5 c 128,-1,49
 422 454 422 454 422 432 c 0,38,39
EndSplineSet
Position2: "Single Positioning lookup 6 subtable" dx=0 dy=0 dh=476 dv=0
Position2: "Single Positioning lookup 5 subtable" dx=0 dy=0 dh=310 dv=0
Position2: "Single Positioning lookup 4 subtable" dx=0 dy=0 dh=480 dv=0
Position2: "Single Positioning lookup 3 subtable" dx=0 dy=0 dh=640 dv=0
Position2: "Single Positioning lookup 2 subtable" dx=0 dy=0 dh=520 dv=0
Position2: "Single Positioning lookup 1 subtable" dx=0 dy=0 dh=370 dv=0
Position2: "Single Positioning lookup 0 subtable" dx=0 dy=0 dh=250 dv=0
EndChar

StartChar: baa_chakma
Encoding: 69917 69917 53
Width: 689
GlyphClass: 2
Flags: W
AnchorPoint: "+BBEENQQ3BEsEPARPBD0EPQQ+BDUA--6" 454 20 basechar 0
AnchorPoint: "+BBEENQQ3BEsEPARPBD0EPQQ+BDUA--5" 552 15 basechar 0
AnchorPoint: "+BBEENQQ3BEsEPARPBD0EPQQ+BDUA--4" 515 53 basechar 0
AnchorPoint: "+BBEENQQ3BEsEPARPBD0EPQQ+BDUA--3" 343 -20 basechar 0
AnchorPoint: "+BBEENQQ3BEsEPARPBD0EPQQ+BDUA--2" 594 382 basechar 0
AnchorPoint: "+BBEENQQ3BEsEPARPBD0EPQQ+BDUA--1" 510 516 basechar 0
AnchorPoint: "+BBEENQQ3BEsEPARPBD0EPQQ+BDUA--0" 341 590 basechar 0
LayerCount: 2
Fore
SplineSet
496 548 m 1,0,1
 555 514 555 514 592 445.5 c 128,-1,2
 629 377 629 377 629 288 c 0,3,4
 629 198 629 198 592.5 131 c 128,-1,5
 556 64 556 64 492 27 c 128,-1,6
 428 -10 428 -10 345 -10 c 256,7,8
 262 -10 262 -10 197.5 27 c 128,-1,9
 133 64 133 64 96.5 131.5 c 128,-1,10
 60 199 60 199 60 288 c 0,11,12
 60 378 60 378 94 446 c 128,-1,13
 128 514 128 514 186 548 c 1,14,15
 216 510 216 510 255.5 487 c 128,-1,16
 295 464 295 464 342 464 c 0,17,18
 390 464 390 464 428 487 c 128,-1,19
 466 510 466 510 496 548 c 1,0,1
345 57 m 256,20,21
 404 57 404 57 447.5 85.5 c 128,-1,22
 491 114 491 114 515 164 c 128,-1,23
 539 214 539 214 539 280 c 0,24,25
 539 324 539 324 527 366 c 128,-1,26
 515 408 515 408 494 444 c 1,27,28
 464 424 464 424 427.5 410.5 c 128,-1,29
 391 397 391 397 342 397 c 0,30,31
 294 397 294 397 257 410.5 c 128,-1,32
 220 424 220 424 190 443 c 1,33,34
 170 407 170 407 160 364.5 c 128,-1,35
 150 322 150 322 150 280 c 0,36,37
 150 214 150 214 174 163.5 c 128,-1,38
 198 113 198 113 242 85 c 128,-1,39
 286 57 286 57 345 57 c 256,20,21
EndSplineSet
Position2: "Single Positioning lookup 6 subtable" dx=0 dy=0 dh=476 dv=0
Position2: "Single Positioning lookup 5 subtable" dx=0 dy=0 dh=310 dv=0
Position2: "Single Positioning lookup 4 subtable" dx=0 dy=0 dh=480 dv=0
Position2: "Single Positioning lookup 3 subtable" dx=0 dy=0 dh=640 dv=0
Position2: "Single Positioning lookup 2 subtable" dx=0 dy=0 dh=520 dv=0
Position2: "Single Positioning lookup 1 subtable" dx=0 dy=0 dh=370 dv=0
Position2: "Single Positioning lookup 0 subtable" dx=0 dy=0 dh=250 dv=0
EndChar

StartChar: bhaa_chakma
Encoding: 69918 69918 54
Width: 956
GlyphClass: 2
Flags: W
AnchorPoint: "+BBEENQQ3BEsEPARPBD0EPQQ+BDUA--7" 841 382 basechar 0
AnchorPoint: "+BBEENQQ3BEsEPARPBD0EPQQ+BDUA--6" 744 20 basechar 0
AnchorPoint: "+BBEENQQ3BEsEPARPBD0EPQQ+BDUA--5" 750 15 basechar 0
AnchorPoint: "+BBEENQQ3BEsEPARPBD0EPQQ+BDUA--4" 800 51 basechar 0
AnchorPoint: "+BBEENQQ3BEsEPARPBD0EPQQ+BDUA--3" 474 -20 basechar 0
AnchorPoint: "+BBEENQQ3BEsEPARPBD0EPQQ+BDUA--1" 808 529 basechar 0
AnchorPoint: "+BBEENQQ3BEsEPARPBD0EPQQ+BDUA--0" 498 590 basechar 0
LayerCount: 2
Fore
SplineSet
286 -10 m 0,0,1
 195 -10 195 -10 135.5 35 c 128,-1,2
 76 80 76 80 50 153 c 1,3,-1
 136 178 l 1,4,5
 155 123 155 123 193.5 90 c 128,-1,6
 232 57 232 57 288 57 c 0,7,8
 342 57 342 57 381.5 85.5 c 128,-1,9
 421 114 421 114 442 162.5 c 128,-1,10
 463 211 463 211 463 270 c 0,11,12
 463 333 463 333 442 381 c 128,-1,13
 421 429 421 429 382.5 456.5 c 128,-1,14
 344 484 344 484 289 484 c 0,15,16
 246 484 246 484 214.5 466 c 128,-1,17
 183 448 183 448 163.5 420 c 128,-1,18
 144 392 144 392 136 361 c 1,19,-1
 50 375 l 1,20,21
 73 455 73 455 138 503 c 128,-1,22
 203 551 203 551 290 551 c 0,23,24
 343 551 343 551 387.5 534.5 c 128,-1,25
 432 518 432 518 465 488 c 1,26,27
 532 527 532 527 594.5 541 c 128,-1,28
 657 555 657 555 710 555 c 0,29,30
 771 555 771 555 808 542 c 128,-1,31
 845 529 845 529 864 509 c 128,-1,32
 883 489 883 489 889.5 468 c 128,-1,33
 896 447 896 447 896 432 c 0,34,35
 896 402 896 402 881.5 377 c 128,-1,36
 867 352 867 352 846 334.5 c 128,-1,37
 825 317 825 317 804 307 c 1,38,-1
 754 371 l 1,39,40
 773 379 773 379 789.5 394.5 c 128,-1,41
 806 410 806 410 806 431 c 0,42,43
 806 451 806 451 784.5 468.5 c 128,-1,44
 763 486 763 486 707 486 c 0,45,46
 656 486 656 486 606.5 470 c 128,-1,47
 557 454 557 454 514 426 c 1,48,49
 553 358 553 358 553 269 c 2,50,-1
 553 267 l 1,51,52
 628 288 628 288 695 288 c 0,53,54
 792 288 792 288 837 247 c 128,-1,55
 882 206 882 206 882 144 c 0,56,57
 882 103 882 103 863 67.5 c 128,-1,58
 844 32 844 32 811.5 11 c 128,-1,59
 779 -10 779 -10 737 -10 c 0,60,61
 683 -10 683 -10 636 34 c 1,62,-1
 681 81 l 1,63,64
 707 57 707 57 731 57 c 0,65,66
 758 57 758 57 775 83 c 128,-1,67
 792 109 792 109 792 139 c 0,68,69
 792 175 792 175 764 198 c 128,-1,70
 736 221 736 221 673 221 c 0,71,72
 644 221 644 221 611.5 216 c 128,-1,73
 579 211 579 211 547 202 c 1,74,75
 534 139 534 139 498.5 91.5 c 128,-1,76
 463 44 463 44 409 17 c 128,-1,77
 355 -10 355 -10 286 -10 c 0,0,1
EndSplineSet
Position2: "Single Positioning lookup 6 subtable" dx=0 dy=0 dh=476 dv=0
Position2: "Single Positioning lookup 5 subtable" dx=0 dy=0 dh=310 dv=0
Position2: "Single Positioning lookup 4 subtable" dx=0 dy=0 dh=480 dv=0
Position2: "Single Positioning lookup 3 subtable" dx=0 dy=0 dh=640 dv=0
Position2: "Single Positioning lookup 2 subtable" dx=0 dy=0 dh=520 dv=0
Position2: "Single Positioning lookup 1 subtable" dx=0 dy=0 dh=370 dv=0
Position2: "Single Positioning lookup 0 subtable" dx=0 dy=0 dh=250 dv=0
EndChar

StartChar: maa_chakma
Encoding: 69919 69919 55
Width: 809
GlyphClass: 2
Flags: W
AnchorPoint: "+BBEENQQ3BEsEPARPBD0EPQQ+BDUA--6" 577 20 basechar 0
AnchorPoint: "+BBEENQQ3BEsEPARPBD0EPQQ+BDUA--5" 626 15 basechar 0
AnchorPoint: "+BBEENQQ3BEsEPARPBD0EPQQ+BDUA--4" 633 27 basechar 0
AnchorPoint: "+BBEENQQ3BEsEPARPBD0EPQQ+BDUA--3" 404 -20 basechar 0
AnchorPoint: "+BBEENQQ3BEsEPARPBD0EPQQ+BDUA--2" 721 382 basechar 0
AnchorPoint: "+BBEENQQ3BEsEPARPBD0EPQQ+BDUA--1" 593 500 basechar 0
AnchorPoint: "+BBEENQQ3BEsEPARPBD0EPQQ+BDUA--0" 403 590 basechar 0
LayerCount: 2
Fore
SplineSet
580 545 m 1,0,1
 629 515 629 515 667 468 c 128,-1,2
 705 421 705 421 727 365 c 128,-1,3
 749 309 749 309 749 251 c 0,4,5
 749 179 749 179 718 119.5 c 128,-1,6
 687 60 687 60 635 25 c 128,-1,7
 583 -10 583 -10 521 -10 c 0,8,9
 488 -10 488 -10 457 -0.5 c 128,-1,10
 426 9 426 9 398 25 c 1,11,12
 370 9 370 9 338 -0.5 c 128,-1,13
 306 -10 306 -10 274 -10 c 0,14,15
 212 -10 212 -10 163.5 25 c 128,-1,16
 115 60 115 60 87.5 119.5 c 128,-1,17
 60 179 60 179 60 251 c 0,18,19
 60 309 60 309 82 365 c 128,-1,20
 104 421 104 421 142.5 468 c 128,-1,21
 181 515 181 515 229 545 c 1,22,-1
 277 489 l 1,23,24
 245 467 245 467 216 431.5 c 128,-1,25
 187 396 187 396 168.5 350.5 c 128,-1,26
 150 305 150 305 150 251 c 256,27,28
 150 197 150 197 168 153 c 128,-1,29
 186 109 186 109 218.5 83 c 128,-1,30
 251 57 251 57 293 57 c 0,31,32
 319 57 319 57 344 68 c 1,33,34
 311 102 311 102 291.5 144.5 c 128,-1,35
 272 187 272 187 272 232 c 0,36,37
 272 293 272 293 310 331 c 128,-1,38
 348 369 348 369 404 369 c 0,39,40
 442 369 442 369 472 351.5 c 128,-1,41
 502 334 502 334 519.5 304 c 128,-1,42
 537 274 537 274 537 236 c 0,43,44
 537 192 537 192 515.5 149 c 128,-1,45
 494 106 494 106 459 71 c 1,46,47
 487 57 487 57 516 57 c 0,48,49
 559 57 559 57 591 83 c 128,-1,50
 623 109 623 109 641 153 c 128,-1,51
 659 197 659 197 659 251 c 256,52,53
 659 305 659 305 640.5 350.5 c 128,-1,54
 622 396 622 396 593 431.5 c 128,-1,55
 564 467 564 467 532 489 c 1,56,-1
 580 545 l 1,0,1
362 233 m 0,57,58
 362 203 362 203 373.5 172.5 c 128,-1,59
 385 142 385 142 405 117 c 1,60,61
 425 142 425 142 436 172.5 c 128,-1,62
 447 203 447 203 447 233 c 0,63,64
 447 267 447 267 433 284.5 c 128,-1,65
 419 302 419 302 404 302 c 256,66,67
 389 302 389 302 375.5 284.5 c 128,-1,68
 362 267 362 267 362 233 c 0,57,58
EndSplineSet
Position2: "Single Positioning lookup 6 subtable" dx=0 dy=0 dh=476 dv=0
Position2: "Single Positioning lookup 5 subtable" dx=0 dy=0 dh=310 dv=0
Position2: "Single Positioning lookup 4 subtable" dx=0 dy=0 dh=480 dv=0
Position2: "Single Positioning lookup 3 subtable" dx=0 dy=0 dh=640 dv=0
Position2: "Single Positioning lookup 2 subtable" dx=0 dy=0 dh=520 dv=0
Position2: "Single Positioning lookup 1 subtable" dx=0 dy=0 dh=370 dv=0
Position2: "Single Positioning lookup 0 subtable" dx=0 dy=0 dh=250 dv=0
EndChar

StartChar: yyaa_chakma
Encoding: 69920 69920 56
Width: 807
GlyphClass: 2
Flags: W
AnchorPoint: "+BBEENQQ3BEsEPARPBD0EPQQ+BDUA--6" 577 20 basechar 0
AnchorPoint: "+BBEENQQ3BEsEPARPBD0EPQQ+BDUA--5" 626 15 basechar 0
AnchorPoint: "+BBEENQQ3BEsEPARPBD0EPQQ+BDUA--4" 646 31 basechar 0
AnchorPoint: "+BBEENQQ3BEsEPARPBD0EPQQ+BDUA--3" 404 -20 basechar 0
AnchorPoint: "+BBEENQQ3BEsEPARPBD0EPQQ+BDUA--2" 719 382 basechar 0
AnchorPoint: "+BBEENQQ3BEsEPARPBD0EPQQ+BDUA--1" 581 500 basechar 0
AnchorPoint: "+BBEENQQ3BEsEPARPBD0EPQQ+BDUA--0" 403 590 basechar 0
LayerCount: 2
Fore
SplineSet
568 545 m 1,0,1
 617 515 617 515 657.5 468.5 c 128,-1,2
 698 422 698 422 722.5 365 c 128,-1,3
 747 308 747 308 747 245 c 0,4,5
 747 172 747 172 716.5 114.5 c 128,-1,6
 686 57 686 57 636 23.5 c 128,-1,7
 586 -10 586 -10 528 -10 c 0,8,9
 485 -10 485 -10 454 6.5 c 128,-1,10
 423 23 423 23 402 45 c 1,11,12
 379 23 379 23 345 6.5 c 128,-1,13
 311 -10 311 -10 268 -10 c 0,14,15
 210 -10 210 -10 163 23.5 c 128,-1,16
 116 57 116 57 88 114.5 c 128,-1,17
 60 172 60 172 60 245 c 0,18,19
 60 339 60 339 108.5 416 c 128,-1,20
 157 493 157 493 239 545 c 1,21,-1
 287 489 l 1,22,23
 255 468 255 468 223.5 432.5 c 128,-1,24
 192 397 192 397 171 349.5 c 128,-1,25
 150 302 150 302 150 245 c 0,26,27
 150 199 150 199 164 156 c 128,-1,28
 178 113 178 113 205.5 85 c 128,-1,29
 233 57 233 57 274 57 c 0,30,31
 320 57 320 57 339.5 91.5 c 128,-1,32
 359 126 359 126 359 170 c 2,33,-1
 359 214 l 1,34,-1
 449 214 l 1,35,-1
 449 170 l 2,36,37
 449 141 449 141 455 115 c 128,-1,38
 461 89 461 89 478 73 c 128,-1,39
 495 57 495 57 526 57 c 0,40,41
 568 57 568 57 597.5 85.5 c 128,-1,42
 627 114 627 114 642 157.5 c 128,-1,43
 657 201 657 201 657 245 c 0,44,45
 657 298 657 298 636.5 345 c 128,-1,46
 616 392 616 392 585 429 c 128,-1,47
 554 466 554 466 520 489 c 1,48,-1
 568 545 l 1,0,1
EndSplineSet
Position2: "Single Positioning lookup 6 subtable" dx=0 dy=0 dh=476 dv=0
Position2: "Single Positioning lookup 5 subtable" dx=0 dy=0 dh=310 dv=0
Position2: "Single Positioning lookup 4 subtable" dx=0 dy=0 dh=480 dv=0
Position2: "Single Positioning lookup 3 subtable" dx=0 dy=0 dh=640 dv=0
Position2: "Single Positioning lookup 2 subtable" dx=0 dy=0 dh=520 dv=0
Position2: "Single Positioning lookup 1 subtable" dx=0 dy=0 dh=370 dv=0
Position2: "Single Positioning lookup 0 subtable" dx=0 dy=0 dh=250 dv=0
EndChar

StartChar: yaa_chakma
Encoding: 69921 69921 57
Width: 793
GlyphClass: 2
Flags: W
AnchorPoint: "+BBEENQQ3BEsEPARPBD0EPQQ+BDUA--6" 567 20 basechar 0
AnchorPoint: "+BBEENQQ3BEsEPARPBD0EPQQ+BDUA--5" 646 25 basechar 0
AnchorPoint: "+BBEENQQ3BEsEPARPBD0EPQQ+BDUA--4" 601 0 basechar 0
AnchorPoint: "+BBEENQQ3BEsEPARPBD0EPQQ+BDUA--3" 418 -20 basechar 0
AnchorPoint: "+BBEENQQ3BEsEPARPBD0EPQQ+BDUA--2" 712 382 basechar 0
AnchorPoint: "+BBEENQQ3BEsEPARPBD0EPQQ+BDUA--1" 597 507 basechar 0
AnchorPoint: "+BBEENQQ3BEsEPARPBD0EPQQ+BDUA--0" 397 590 basechar 0
LayerCount: 2
Fore
SplineSet
498 421 m 1,0,1
 477 447 477 447 446 465 c 128,-1,2
 415 483 415 483 362 483 c 0,3,4
 304 483 304 483 280.5 463.5 c 128,-1,5
 257 444 257 444 257 420 c 0,6,7
 257 403 257 403 272 383 c 128,-1,8
 287 363 287 363 332 332 c 0,9,10
 345 323 345 323 360 313.5 c 128,-1,11
 375 304 375 304 390 294 c 1,12,13
 428 320 428 320 475.5 337.5 c 128,-1,14
 523 355 523 355 573 355 c 0,15,16
 613 355 613 355 649.5 341.5 c 128,-1,17
 686 328 686 328 709.5 300 c 128,-1,18
 733 272 733 272 733 228 c 256,19,20
 733 184 733 184 709.5 136.5 c 128,-1,21
 686 89 686 89 651 48.5 c 128,-1,22
 616 8 616 8 579 -18 c 1,23,-1
 543 38 l 1,24,25
 592 72 592 72 618.5 120 c 128,-1,26
 645 168 645 168 645 210 c 0,27,28
 645 255 645 255 619.5 271.5 c 128,-1,29
 594 288 594 288 562 288 c 0,30,31
 533 288 533 288 504 276.5 c 128,-1,32
 475 265 475 265 452 242 c 1,33,34
 473 221 473 221 486 195 c 128,-1,35
 499 169 499 169 499 138 c 0,36,37
 499 101 499 101 478.5 67 c 128,-1,38
 458 33 458 33 418 11.5 c 128,-1,39
 378 -10 378 -10 319 -10 c 0,40,41
 257 -10 257 -10 206 12.5 c 128,-1,42
 155 35 155 35 118.5 73 c 128,-1,43
 82 111 82 111 64 158 c 1,44,-1
 146 158 l 1,45,46
 154 143 154 143 173.5 119 c 128,-1,47
 193 95 193 95 225.5 76 c 128,-1,48
 258 57 258 57 306 57 c 0,49,50
 356 57 356 57 382.5 79.5 c 128,-1,51
 409 102 409 102 409 136 c 0,52,53
 409 174 409 174 377.5 203.5 c 128,-1,54
 346 233 346 233 294 269 c 0,55,56
 259 294 259 294 230 315.5 c 128,-1,57
 201 337 201 337 184 361.5 c 128,-1,58
 167 386 167 386 167 419 c 0,59,60
 167 476 167 476 220 513 c 128,-1,61
 273 550 273 550 362 550 c 0,62,63
 506 550 506 550 568 440 c 1,64,-1
 498 421 l 1,0,1
EndSplineSet
Substitution2: "'ss02' Style Set 2 lookup 16 subtable" yaa_chakma.alt2
Substitution2: "'ss01' Style Set 1 lookup 15 subtable" yaa_chakma.alt
Position2: "Single Positioning lookup 6 subtable" dx=0 dy=0 dh=476 dv=0
Position2: "Single Positioning lookup 5 subtable" dx=0 dy=0 dh=310 dv=0
Position2: "Single Positioning lookup 4 subtable" dx=0 dy=0 dh=480 dv=0
Position2: "Single Positioning lookup 3 subtable" dx=0 dy=0 dh=640 dv=0
Position2: "Single Positioning lookup 2 subtable" dx=0 dy=0 dh=520 dv=0
Position2: "Single Positioning lookup 1 subtable" dx=0 dy=0 dh=370 dv=0
Position2: "Single Positioning lookup 0 subtable" dx=0 dy=0 dh=250 dv=0
EndChar

StartChar: raa_chakma
Encoding: 69922 69922 58
Width: 999
GlyphClass: 2
Flags: W
AnchorPoint: "+BBEENQQ3BEsEPARPBD0EPQQ+BDUA--7" 892 382 basechar 0
AnchorPoint: "+BBEENQQ3BEsEPARPBD0EPQQ+BDUA--6" 767 20 basechar 0
AnchorPoint: "+BBEENQQ3BEsEPARPBD0EPQQ+BDUA--5" 797 15 basechar 0
AnchorPoint: "+BBEENQQ3BEsEPARPBD0EPQQ+BDUA--4" 831 0 basechar 0
AnchorPoint: "+BBEENQQ3BEsEPARPBD0EPQQ+BDUA--3" 490 -20 basechar 0
AnchorPoint: "+BBEENQQ3BEsEPARPBD0EPQQ+BDUA--1" 850 535 basechar 0
AnchorPoint: "+BBEENQQ3BEsEPARPBD0EPQQ+BDUA--0" 514 590 basechar 0
LayerCount: 2
Fore
SplineSet
317 550 m 0,0,1
 373 550 373 550 418.5 532 c 128,-1,2
 464 514 464 514 497 481 c 1,3,4
 567 524 567 524 632.5 539.5 c 128,-1,5
 698 555 698 555 753 555 c 0,6,7
 814 555 814 555 851 542 c 128,-1,8
 888 529 888 529 907 509 c 128,-1,9
 926 489 926 489 932.5 468 c 128,-1,10
 939 447 939 447 939 432 c 0,11,12
 939 402 939 402 924.5 377 c 128,-1,13
 910 352 910 352 889 334.5 c 128,-1,14
 868 317 868 317 847 307 c 1,15,-1
 797 371 l 1,16,17
 816 379 816 379 832.5 394.5 c 128,-1,18
 849 410 849 410 849 431 c 0,19,20
 849 451 849 451 827.5 468.5 c 128,-1,21
 806 486 806 486 750 486 c 0,22,23
 695 486 695 486 641.5 467.5 c 128,-1,24
 588 449 588 449 544 418 c 1,25,26
 578 353 578 353 578 271 c 0,27,28
 578 266 578 266 578 261 c 1,29,30
 621 275 621 275 661.5 281.5 c 128,-1,31
 702 288 702 288 738 288 c 0,32,33
 835 288 835 288 880 247 c 128,-1,34
 925 206 925 206 925 144 c 0,35,36
 925 103 925 103 906 67.5 c 128,-1,37
 887 32 887 32 854.5 11 c 128,-1,38
 822 -10 822 -10 780 -10 c 0,39,40
 726 -10 726 -10 679 34 c 1,41,-1
 724 81 l 1,42,43
 750 57 750 57 774 57 c 0,44,45
 801 57 801 57 818 83 c 128,-1,46
 835 109 835 109 835 139 c 0,47,48
 835 175 835 175 807 198 c 128,-1,49
 779 221 779 221 716 221 c 0,50,51
 683 221 683 221 645.5 214.5 c 128,-1,52
 608 208 608 208 570 196 c 1,53,54
 557 136 557 136 522.5 89.5 c 128,-1,55
 488 43 488 43 436 16.5 c 128,-1,56
 384 -10 384 -10 317 -10 c 0,57,58
 237 -10 237 -10 179.5 27 c 128,-1,59
 122 64 122 64 91 127.5 c 128,-1,60
 60 191 60 191 60 271 c 256,61,62
 60 351 60 351 91 414 c 128,-1,63
 122 477 122 477 179.5 513.5 c 128,-1,64
 237 550 237 550 317 550 c 0,0,1
317 57 m 256,65,66
 370 57 370 57 408.5 85.5 c 128,-1,67
 447 114 447 114 467.5 162.5 c 128,-1,68
 488 211 488 211 488 271 c 256,69,70
 488 331 488 331 467.5 379 c 128,-1,71
 447 427 447 427 408.5 455 c 128,-1,72
 370 483 370 483 317 483 c 256,73,74
 264 483 264 483 226.5 455 c 128,-1,75
 189 427 189 427 169.5 379 c 128,-1,76
 150 331 150 331 150 271 c 256,77,78
 150 211 150 211 169.5 162.5 c 128,-1,79
 189 114 189 114 226.5 85.5 c 128,-1,80
 264 57 264 57 317 57 c 256,65,66
EndSplineSet
Position2: "Single Positioning lookup 6 subtable" dx=0 dy=0 dh=476 dv=0
Position2: "Single Positioning lookup 5 subtable" dx=0 dy=0 dh=310 dv=0
Position2: "Single Positioning lookup 4 subtable" dx=0 dy=0 dh=480 dv=0
Position2: "Single Positioning lookup 3 subtable" dx=0 dy=0 dh=640 dv=0
Position2: "Single Positioning lookup 2 subtable" dx=0 dy=0 dh=520 dv=0
Position2: "Single Positioning lookup 1 subtable" dx=0 dy=0 dh=370 dv=0
Position2: "Single Positioning lookup 0 subtable" dx=0 dy=0 dh=250 dv=0
EndChar

StartChar: laa_chakma
Encoding: 69923 69923 59
Width: 1030
GlyphClass: 2
Flags: W
AnchorPoint: "+BBEENQQ3BEsEPARPBD0EPQQ+BDUA--6" 744 10 basechar 0
AnchorPoint: "+BBEENQQ3BEsEPARPBD0EPQQ+BDUA--5" 816 15 basechar 0
AnchorPoint: "+BBEENQQ3BEsEPARPBD0EPQQ+BDUA--4" 841 26 basechar 0
AnchorPoint: "+BBEENQQ3BEsEPARPBD0EPQQ+BDUA--3" 515 -20 basechar 0
AnchorPoint: "+BBEENQQ3BEsEPARPBD0EPQQ+BDUA--2" 942 382 basechar 0
AnchorPoint: "+BBEENQQ3BEsEPARPBD0EPQQ+BDUA--1" 822 508 basechar 0
AnchorPoint: "+BBEENQQ3BEsEPARPBD0EPQQ+BDUA--0" 515 590 basechar 0
LayerCount: 2
Fore
SplineSet
304 -10 m 1,0,1
 262 0 262 0 219 24.5 c 128,-1,2
 176 49 176 49 140 86 c 128,-1,3
 104 123 104 123 82 172.5 c 128,-1,4
 60 222 60 222 60 282 c 0,5,6
 60 358 60 358 89 418.5 c 128,-1,7
 118 479 118 479 173.5 514.5 c 128,-1,8
 229 550 229 550 307 550 c 0,9,10
 372 550 372 550 414.5 524.5 c 128,-1,11
 457 499 457 499 484.5 460 c 128,-1,12
 512 421 512 421 528 378 c 128,-1,13
 544 335 544 335 554 300 c 0,14,15
 576 225 576 225 599 170.5 c 128,-1,16
 622 116 622 116 653.5 86.5 c 128,-1,17
 685 57 685 57 732 57 c 0,18,19
 771 57 771 57 799 75.5 c 128,-1,20
 827 94 827 94 845 124 c 128,-1,21
 863 154 863 154 871.5 189.5 c 128,-1,22
 880 225 880 225 880 259 c 0,23,24
 880 324 880 324 853.5 369 c 128,-1,25
 827 414 827 414 785.5 441.5 c 128,-1,26
 744 469 744 469 698 479 c 1,27,-1
 730 550 l 1,28,29
 795 539 795 539 849.5 503.5 c 128,-1,30
 904 468 904 468 937 410 c 128,-1,31
 970 352 970 352 970 272 c 0,32,33
 970 196 970 196 941 131.5 c 128,-1,34
 912 67 912 67 858.5 28.5 c 128,-1,35
 805 -10 805 -10 731 -10 c 0,36,37
 662 -10 662 -10 614 23 c 128,-1,38
 566 56 566 56 533 114 c 128,-1,39
 500 172 500 172 476 246 c 0,40,41
 463 287 463 287 448.5 329 c 128,-1,42
 434 371 434 371 415.5 406 c 128,-1,43
 397 441 397 441 369.5 462 c 128,-1,44
 342 483 342 483 303 483 c 0,45,46
 259 483 259 483 224 455 c 128,-1,47
 189 427 189 427 169.5 381 c 128,-1,48
 150 335 150 335 150 280 c 0,49,50
 150 210 150 210 177.5 166 c 128,-1,51
 205 122 205 122 248 97.5 c 128,-1,52
 291 73 291 73 336 60 c 1,53,-1
 304 -10 l 1,0,1
EndSplineSet
Position2: "Single Positioning lookup 6 subtable" dx=0 dy=0 dh=476 dv=0
Position2: "Single Positioning lookup 5 subtable" dx=0 dy=0 dh=310 dv=0
Position2: "Single Positioning lookup 4 subtable" dx=0 dy=0 dh=480 dv=0
Position2: "Single Positioning lookup 3 subtable" dx=0 dy=0 dh=640 dv=0
Position2: "Single Positioning lookup 2 subtable" dx=0 dy=0 dh=520 dv=0
Position2: "Single Positioning lookup 1 subtable" dx=0 dy=0 dh=370 dv=0
Position2: "Single Positioning lookup 0 subtable" dx=0 dy=0 dh=250 dv=0
EndChar

StartChar: waa_chakma
Encoding: 69924 69924 60
Width: 638
GlyphClass: 2
Flags: W
AnchorPoint: "+BBEENQQ3BEsEPARPBD0EPQQ+BDUA--6" 418 20 basechar 0
AnchorPoint: "+BBEENQQ3BEsEPARPBD0EPQQ+BDUA--5" 516 15 basechar 0
AnchorPoint: "+BBEENQQ3BEsEPARPBD0EPQQ+BDUA--4" 463 30 basechar 0
AnchorPoint: "+BBEENQQ3BEsEPARPBD0EPQQ+BDUA--3" 327 -20 basechar 0
AnchorPoint: "+BBEENQQ3BEsEPARPBD0EPQQ+BDUA--2" 551 382 basechar 0
AnchorPoint: "+BBEENQQ3BEsEPARPBD0EPQQ+BDUA--1" 434 521 basechar 0
AnchorPoint: "+BBEENQQ3BEsEPARPBD0EPQQ+BDUA--0" 329 590 basechar 0
LayerCount: 2
Fore
SplineSet
317 550 m 256,0,1
 397 550 397 550 455.5 513.5 c 128,-1,2
 514 477 514 477 546 414 c 128,-1,3
 578 351 578 351 578 271 c 256,4,5
 578 191 578 191 546 127.5 c 128,-1,6
 514 64 514 64 455.5 27 c 128,-1,7
 397 -10 397 -10 317 -10 c 256,8,9
 237 -10 237 -10 179.5 27 c 128,-1,10
 122 64 122 64 91 127.5 c 128,-1,11
 60 191 60 191 60 271 c 256,12,13
 60 351 60 351 91 414 c 128,-1,14
 122 477 122 477 179.5 513.5 c 128,-1,15
 237 550 237 550 317 550 c 256,0,1
317 57 m 256,16,17
 370 57 370 57 408.5 85.5 c 128,-1,18
 447 114 447 114 467.5 162.5 c 128,-1,19
 488 211 488 211 488 271 c 256,20,21
 488 331 488 331 467.5 379 c 128,-1,22
 447 427 447 427 408.5 455 c 128,-1,23
 370 483 370 483 317 483 c 256,24,25
 264 483 264 483 226.5 455 c 128,-1,26
 189 427 189 427 169.5 379 c 128,-1,27
 150 331 150 331 150 271 c 256,28,29
 150 211 150 211 169.5 162.5 c 128,-1,30
 189 114 189 114 226.5 85.5 c 128,-1,31
 264 57 264 57 317 57 c 256,16,17
EndSplineSet
Position2: "Single Positioning lookup 6 subtable" dx=0 dy=0 dh=476 dv=0
Position2: "Single Positioning lookup 5 subtable" dx=0 dy=0 dh=310 dv=0
Position2: "Single Positioning lookup 4 subtable" dx=0 dy=0 dh=480 dv=0
Position2: "Single Positioning lookup 3 subtable" dx=0 dy=0 dh=640 dv=0
Position2: "Single Positioning lookup 2 subtable" dx=0 dy=0 dh=520 dv=0
Position2: "Single Positioning lookup 1 subtable" dx=0 dy=0 dh=370 dv=0
Position2: "Single Positioning lookup 0 subtable" dx=0 dy=0 dh=250 dv=0
EndChar

StartChar: saa_chakma
Encoding: 69925 69925 61
Width: 1041
GlyphClass: 2
Flags: W
AnchorPoint: "+BBEENQQ3BEsEPARPBD0EPQQ+BDUA--6" 803 20 basechar 0
AnchorPoint: "+BBEENQQ3BEsEPARPBD0EPQQ+BDUA--5" 798 15 basechar 0
AnchorPoint: "+BBEENQQ3BEsEPARPBD0EPQQ+BDUA--4" 836 22 basechar 0
AnchorPoint: "+BBEENQQ3BEsEPARPBD0EPQQ+BDUA--3" 518 -20 basechar 0
AnchorPoint: "+BBEENQQ3BEsEPARPBD0EPQQ+BDUA--2" 952 382 basechar 0
AnchorPoint: "+BBEENQQ3BEsEPARPBD0EPQQ+BDUA--1" 840 519 basechar 0
AnchorPoint: "+BBEENQQ3BEsEPARPBD0EPQQ+BDUA--0" 520 590 basechar 0
LayerCount: 2
Fore
SplineSet
286 -10 m 0,0,1
 195 -10 195 -10 135.5 35 c 128,-1,2
 76 80 76 80 50 153 c 1,3,-1
 136 178 l 1,4,5
 155 123 155 123 193.5 90 c 128,-1,6
 232 57 232 57 288 57 c 0,7,8
 342 57 342 57 381.5 85.5 c 128,-1,9
 421 114 421 114 442 162.5 c 128,-1,10
 463 211 463 211 463 270 c 0,11,12
 463 333 463 333 442 381 c 128,-1,13
 421 429 421 429 382.5 456.5 c 128,-1,14
 344 484 344 484 289 484 c 0,15,16
 246 484 246 484 214.5 466 c 128,-1,17
 183 448 183 448 163.5 420 c 128,-1,18
 144 392 144 392 136 361 c 1,19,-1
 50 375 l 1,20,21
 73 455 73 455 138 503 c 128,-1,22
 203 551 203 551 290 551 c 0,23,24
 371 551 371 551 430 514.5 c 128,-1,25
 489 478 489 478 521 414.5 c 128,-1,26
 553 351 553 351 553 269 c 0,27,28
 553 227 553 227 543 189 c 1,29,30
 557 163 557 163 581.5 132.5 c 128,-1,31
 606 102 606 102 640 79.5 c 128,-1,32
 674 57 674 57 719 57 c 0,33,34
 769 57 769 57 807.5 87.5 c 128,-1,35
 846 118 846 118 868.5 169.5 c 128,-1,36
 891 221 891 221 891 282 c 0,37,38
 891 341 891 341 870 386.5 c 128,-1,39
 849 432 849 432 812.5 457.5 c 128,-1,40
 776 483 776 483 730 483 c 0,41,42
 692 483 692 483 660 465 c 1,43,-1
 614 516 l 1,44,45
 644 536 644 536 676.5 543 c 128,-1,46
 709 550 709 550 735 550 c 0,47,48
 807 550 807 550 862.5 514 c 128,-1,49
 918 478 918 478 949.5 417 c 128,-1,50
 981 356 981 356 981 279 c 0,51,52
 981 221 981 221 962 169 c 128,-1,53
 943 117 943 117 907.5 76.5 c 128,-1,54
 872 36 872 36 824 13 c 128,-1,55
 776 -10 776 -10 717 -10 c 0,56,57
 647 -10 647 -10 593.5 22 c 128,-1,58
 540 54 540 54 506 102 c 1,59,60
 471 50 471 50 415 20 c 128,-1,61
 359 -10 359 -10 286 -10 c 0,0,1
EndSplineSet
Position2: "Single Positioning lookup 6 subtable" dx=0 dy=0 dh=476 dv=0
Position2: "Single Positioning lookup 5 subtable" dx=0 dy=0 dh=310 dv=0
Position2: "Single Positioning lookup 4 subtable" dx=0 dy=0 dh=480 dv=0
Position2: "Single Positioning lookup 3 subtable" dx=0 dy=0 dh=640 dv=0
Position2: "Single Positioning lookup 2 subtable" dx=0 dy=0 dh=520 dv=0
Position2: "Single Positioning lookup 1 subtable" dx=0 dy=0 dh=370 dv=0
Position2: "Single Positioning lookup 0 subtable" dx=0 dy=0 dh=250 dv=0
EndChar

StartChar: haa_chakma
Encoding: 69926 69926 62
Width: 1026
GlyphClass: 2
Flags: W
AnchorPoint: "+BBEENQQ3BEsEPARPBD0EPQQ+BDUA--6" 691 57 basechar 0
AnchorPoint: "+BBEENQQ3BEsEPARPBD0EPQQ+BDUA--5" 782 15 basechar 0
AnchorPoint: "+BBEENQQ3BEsEPARPBD0EPQQ+BDUA--4" 776 22 basechar 0
AnchorPoint: "+BBEENQQ3BEsEPARPBD0EPQQ+BDUA--3" 513 -20 basechar 0
AnchorPoint: "+BBEENQQ3BEsEPARPBD0EPQQ+BDUA--2" 933 382 basechar 0
AnchorPoint: "+BBEENQQ3BEsEPARPBD0EPQQ+BDUA--1" 834 517 basechar 0
AnchorPoint: "+BBEENQQ3BEsEPARPBD0EPQQ+BDUA--0" 512 590 basechar 0
LayerCount: 2
Fore
SplineSet
347 480 m 1,0,1
 315 471 315 471 280.5 454 c 128,-1,2
 246 437 246 437 216.5 409.5 c 128,-1,3
 187 382 187 382 168.5 342 c 128,-1,4
 150 302 150 302 150 247 c 0,5,6
 150 200 150 200 165 156.5 c 128,-1,7
 180 113 180 113 208.5 85 c 128,-1,8
 237 57 237 57 277 57 c 0,9,10
 313 57 313 57 341 79 c 128,-1,11
 369 101 369 101 391.5 137 c 128,-1,12
 414 173 414 173 434.5 216.5 c 128,-1,13
 455 260 455 260 477 304 c 0,14,15
 509 369 509 369 546 425 c 128,-1,16
 583 481 583 481 632.5 515.5 c 128,-1,17
 682 550 682 550 751 550 c 0,18,19
 816 550 816 550 864 519.5 c 128,-1,20
 912 489 912 489 939 435.5 c 128,-1,21
 966 382 966 382 966 313 c 0,22,23
 966 243 966 243 943 187 c 128,-1,24
 920 131 920 131 881 90.5 c 128,-1,25
 842 50 842 50 794 25 c 128,-1,26
 746 0 746 0 696 -10 c 1,27,-1
 679 56 l 1,28,29
 711 66 711 66 745.5 84.5 c 128,-1,30
 780 103 780 103 809.5 132.5 c 128,-1,31
 839 162 839 162 857.5 205.5 c 128,-1,32
 876 249 876 249 876 308 c 0,33,34
 876 356 876 356 861 396 c 128,-1,35
 846 436 846 436 818 459.5 c 128,-1,36
 790 483 790 483 750 483 c 0,37,38
 707 483 707 483 674 452.5 c 128,-1,39
 641 422 641 422 613.5 371.5 c 128,-1,40
 586 321 586 321 556 261 c 0,41,42
 532 212 532 212 504.5 164 c 128,-1,43
 477 116 477 116 443.5 76.5 c 128,-1,44
 410 37 410 37 368 13.5 c 128,-1,45
 326 -10 326 -10 272 -10 c 0,46,47
 204 -10 204 -10 156.5 26 c 128,-1,48
 109 62 109 62 84.5 120 c 128,-1,49
 60 178 60 178 60 243 c 0,50,51
 60 312 60 312 82.5 365.5 c 128,-1,52
 105 419 105 419 144 457 c 128,-1,53
 183 495 183 495 231 518 c 128,-1,54
 279 541 279 541 330 550 c 1,55,-1
 347 480 l 1,0,1
EndSplineSet
Position2: "Single Positioning lookup 6 subtable" dx=0 dy=0 dh=476 dv=0
Position2: "Single Positioning lookup 5 subtable" dx=0 dy=0 dh=310 dv=0
Position2: "Single Positioning lookup 4 subtable" dx=0 dy=0 dh=480 dv=0
Position2: "Single Positioning lookup 3 subtable" dx=0 dy=0 dh=640 dv=0
Position2: "Single Positioning lookup 2 subtable" dx=0 dy=0 dh=520 dv=0
Position2: "Single Positioning lookup 1 subtable" dx=0 dy=0 dh=370 dv=0
Position2: "Single Positioning lookup 0 subtable" dx=0 dy=0 dh=250 dv=0
EndChar

StartChar: aMatra_chakma
Encoding: 69927 69927 63
Width: 0
GlyphClass: 4
Flags: W
AnchorPoint: "+BBEENQQ3BEsEPARPBD0EPQQ+BDUA--1" -289 638 mark 0
LayerCount: 2
Fore
SplineSet
-319 653 m 1,0,-1
 -169 1010 l 1,1,-1
 -101 978 l 1,2,-1
 -251 621 l 1,3,-1
 -319 653 l 1,0,-1
EndSplineSet
Position2: "Single Positioning lookup 8 subtable" dx=-75 dy=0 dh=0 dv=0
EndChar

StartChar: uMatra_chakma
Encoding: 69930 69930 66
Width: 0
GlyphClass: 4
Flags: W
AnchorPoint: "+BBEENQQ3BEsEPARPBD0EPQQ+BDUA--10" -235 52 mark 0
AnchorPoint: "+BBEENQQ3BEsEPARPBD0EPQQ+BDUA--9" -235 52 mark 0
AnchorPoint: "+BBEENQQ3BEsEPARPBD0EPQQ+BDUA--4" -235 52 mark 0
LayerCount: 2
Fore
SplineSet
-169 -273 m 1,0,-1
 -316 -273 l 1,1,-1
 -316 52 l 1,2,-1
 -238 52 l 1,3,-1
 -238 -196 l 1,4,-1
 -169 -196 l 1,5,-1
 -169 -273 l 1,0,-1
EndSplineSet
Substitution2: "Single Substitution lookup 4 subtable" uMatra_chakma.alt
EndChar

StartChar: uuMatra_chakma
Encoding: 69931 69931 67
Width: 0
GlyphClass: 4
Flags: W
AnchorPoint: "+BBEENQQ3BEsEPARPBD0EPQQ+BDUA--10" -208 52 mark 0
AnchorPoint: "+BBEENQQ3BEsEPARPBD0EPQQ+BDUA--9" -208 52 mark 0
AnchorPoint: "+BBEENQQ3BEsEPARPBD0EPQQ+BDUA--4" -208 52 mark 0
LayerCount: 2
Fore
SplineSet
-347 52 m 1,0,-1
 -347 -273 l 1,1,-1
 -425 -273 l 1,2,-1
 -425 52 l 1,3,-1
 -347 52 l 1,0,-1
-139 -273 m 1,4,-1
 -286 -273 l 1,5,-1
 -286 52 l 1,6,-1
 -208 52 l 1,7,-1
 -208 -196 l 1,8,-1
 -139 -196 l 1,9,-1
 -139 -273 l 1,4,-1
EndSplineSet
Substitution2: "'ss03' Style Set 3 lookup 17 subtable" uuMatra_chakma.alt
Substitution2: "'ss02' Style Set 2 lookup 16 subtable" uuMatra_chakma.alt
EndChar

StartChar: eMatra_chakma
Encoding: 69932 69932 68
Width: 379
GlyphClass: 2
Flags: W
LayerCount: 2
Fore
SplineSet
303 522 m 1,0,1
 284 513 284 513 258 495 c 128,-1,2
 232 477 232 477 207 445.5 c 128,-1,3
 182 414 182 414 166 366 c 128,-1,4
 150 318 150 318 150 249 c 0,5,6
 150 187 150 187 163 141 c 1,7,8
 178 170 178 170 206 187.5 c 128,-1,9
 234 205 234 205 268 205 c 0,10,11
 310 205 310 205 339.5 178.5 c 128,-1,12
 369 152 369 152 369 107 c 0,13,14
 369 77 369 77 354.5 50.5 c 128,-1,15
 340 24 340 24 312 7 c 128,-1,16
 284 -10 284 -10 243 -10 c 0,17,18
 190 -10 190 -10 148.5 20.5 c 128,-1,19
 107 51 107 51 83.5 108.5 c 128,-1,20
 60 166 60 166 60 246 c 0,21,22
 60 323 60 323 79 379.5 c 128,-1,23
 98 436 98 436 129 476 c 128,-1,24
 160 516 160 516 196.5 541.5 c 128,-1,25
 233 567 233 567 268 582 c 1,26,-1
 303 522 l 1,0,1
260 144 m 0,27,28
 216 144 216 144 193 83 c 1,29,30
 216 57 216 57 246 57 c 0,31,32
 268 57 268 57 285.5 70 c 128,-1,33
 303 83 303 83 303 105 c 0,34,35
 303 124 303 124 290 134 c 128,-1,36
 277 144 277 144 260 144 c 0,27,28
EndSplineSet
Substitution2: "'ss02' Style Set 2 lookup 16 subtable" eMatra_chakma.alt
Substitution2: "'ss01' Style Set 1 lookup 15 subtable" eMatra_chakma.alt
EndChar

StartChar: aiMatra_chakma
Encoding: 69933 69933 70
Width: 0
GlyphClass: 4
Flags: W
AnchorPoint: "+BBEENQQ3BEsEPARPBD0EPQQ+BDUA--1" -154 617 mark 0
LayerCount: 2
Fore
SplineSet
-184 633 m 1,0,-1
 -103 810 l 1,1,-1
 -562 810 l 1,2,-1
 -562 880 l 1,3,-1
 -22 880 l 1,4,-1
 -22 810 l 1,5,-1
 -122 591 l 1,6,-1
 -184 633 l 1,0,-1
EndSplineSet
Substitution2: "Single Substitution lookup 9 subtable" aiMatra_chakma.short
Position2: "Single Positioning lookup 8 subtable" dx=-75 dy=0 dh=0 dv=0
EndChar

StartChar: aiMatra_chakma.short
Encoding: 1114130 -1 71
Width: 0
GlyphClass: 4
Flags: W
AnchorPoint: "+BBEENQQ3BEsEPARPBD0EPQQ+BDUA--1" -154 617 mark 0
LayerCount: 2
Fore
SplineSet
-184 633 m 1,0,-1
 -103 810 l 1,1,-1
 -492 810 l 1,2,-1
 -492 880 l 1,3,-1
 -22 880 l 1,4,-1
 -22 810 l 1,5,-1
 -122 591 l 1,6,-1
 -184 633 l 1,0,-1
EndSplineSet
EndChar

StartChar: aiMatra_candrabindu
Encoding: 1114131 -1 72
Width: 0
GlyphClass: 4
Flags: W
AnchorPoint: "+BBEENQQ3BEsEPARPBD0EPQQ+BDUA--1" -342 617 mark 0
LayerCount: 2
Fore
SplineSet
-374 633 m 1,0,-1
 -249 910 l 1,1,-1
 -739 910 l 1,2,-1
 -739 980 l 1,3,-1
 -168 980 l 1,4,-1
 -168 910 l 1,5,-1
 -312 591 l 1,6,-1
 -374 633 l 1,0,-1
-560 759 m 0,7,8
 -582 759 -582 759 -598 775 c 128,-1,9
 -614 791 -614 791 -614 813 c 0,10,11
 -614 836 -614 836 -598 851.5 c 128,-1,12
 -582 867 -582 867 -560 867 c 0,13,14
 -537 867 -537 867 -521.5 851.5 c 128,-1,15
 -506 836 -506 836 -506 813 c 0,16,17
 -506 791 -506 791 -521.5 775 c 128,-1,18
 -537 759 -537 759 -560 759 c 0,7,8
-667 856 m 1,19,20
 -667 802 -667 802 -636 764.5 c 128,-1,21
 -605 727 -605 727 -560 725 c 0,22,23
 -530 724 -530 724 -505.5 742 c 128,-1,24
 -481 760 -481 760 -466.5 790 c 128,-1,25
 -452 820 -452 820 -452 856 c 1,26,-1
 -380 856 l 1,27,28
 -380 809 -380 809 -401.5 765 c 128,-1,29
 -423 721 -423 721 -462.5 693.5 c 128,-1,30
 -502 666 -502 666 -557 666 c 256,31,32
 -612 666 -612 666 -653 693.5 c 128,-1,33
 -694 721 -694 721 -716.5 765 c 128,-1,34
 -739 809 -739 809 -739 856 c 1,35,-1
 -667 856 l 1,19,20
EndSplineSet
Ligature2: "'abvs' Above Base Substitutions lookup 12 subtable" aiMatra_chakma candrabindu_chakma
EndChar

StartChar: aiMatra_candrabindu.short
Encoding: 1114132 -1 73
Width: 0
GlyphClass: 4
Flags: W
AnchorPoint: "+BBEENQQ3BEsEPARPBD0EPQQ+BDUA--1" -342 616 mark 0
LayerCount: 2
Fore
SplineSet
-374 633 m 1,0,-1
 -249 910 l 1,1,-1
 -689 910 l 1,2,-1
 -689 980 l 1,3,-1
 -168 980 l 1,4,-1
 -168 910 l 1,5,-1
 -312 591 l 1,6,-1
 -374 633 l 1,0,-1
-520 759 m 0,7,8
 -542 759 -542 759 -558 775 c 128,-1,9
 -574 791 -574 791 -574 813 c 0,10,11
 -574 836 -574 836 -558 851.5 c 128,-1,12
 -542 867 -542 867 -520 867 c 0,13,14
 -497 867 -497 867 -481.5 851.5 c 128,-1,15
 -466 836 -466 836 -466 813 c 0,16,17
 -466 791 -466 791 -481.5 775 c 128,-1,18
 -497 759 -497 759 -520 759 c 0,7,8
-627 856 m 1,19,20
 -627 802 -627 802 -596 764.5 c 128,-1,21
 -565 727 -565 727 -520 725 c 0,22,23
 -490 724 -490 724 -465.5 742 c 128,-1,24
 -441 760 -441 760 -426.5 790 c 128,-1,25
 -412 820 -412 820 -412 856 c 1,26,-1
 -340 856 l 1,27,28
 -340 809 -340 809 -361.5 765 c 128,-1,29
 -383 721 -383 721 -422.5 693.5 c 128,-1,30
 -462 666 -462 666 -517 666 c 256,31,32
 -572 666 -572 666 -613 693.5 c 128,-1,33
 -654 721 -654 721 -676.5 765 c 128,-1,34
 -699 809 -699 809 -699 856 c 1,35,-1
 -627 856 l 1,19,20
EndSplineSet
Ligature2: "'abvs' Above Base Substitutions lookup 12 subtable" aiMatra_chakma.short candrabindu_chakma
EndChar

StartChar: aiMatra_anusvara
Encoding: 1114133 -1 74
Width: 0
GlyphClass: 4
Flags: W
AnchorPoint: "+BBEENQQ3BEsEPARPBD0EPQQ+BDUA--1" -244 617 mark 0
LayerCount: 2
Fore
SplineSet
-274 633 m 1,0,-1
 -166 870 l 1,1,-1
 -652 870 l 1,2,-1
 -652 940 l 1,3,-1
 -85 940 l 1,4,-1
 -85 870 l 1,5,-1
 -212 591 l 1,6,-1
 -274 633 l 1,0,-1
-425 689 m 256,7,8
 -453 689 -453 689 -472 708.5 c 128,-1,9
 -491 728 -491 728 -491 756 c 0,10,11
 -491 783 -491 783 -472 802.5 c 128,-1,12
 -453 822 -453 822 -425 822 c 256,13,14
 -397 822 -397 822 -377.5 802.5 c 128,-1,15
 -358 783 -358 783 -358 756 c 0,16,17
 -358 728 -358 728 -377.5 708.5 c 128,-1,18
 -397 689 -397 689 -425 689 c 256,7,8
EndSplineSet
Ligature2: "'abvs' Above Base Substitutions lookup 12 subtable" aiMatra_chakma anusvara_chakma
EndChar

StartChar: aiMatra_anusvara.short
Encoding: 1114134 -1 75
Width: 0
GlyphClass: 4
Flags: W
AnchorPoint: "+BBEENQQ3BEsEPARPBD0EPQQ+BDUA--1" -244 617 mark 0
LayerCount: 2
Fore
SplineSet
-274 633 m 1,0,-1
 -166 870 l 1,1,-1
 -553 870 l 1,2,-1
 -553 940 l 1,3,-1
 -85 940 l 1,4,-1
 -85 870 l 1,5,-1
 -212 591 l 1,6,-1
 -274 633 l 1,0,-1
-395 689 m 256,7,8
 -423 689 -423 689 -442 708.5 c 128,-1,9
 -461 728 -461 728 -461 756 c 0,10,11
 -461 783 -461 783 -442 802.5 c 128,-1,12
 -423 822 -423 822 -395 822 c 256,13,14
 -367 822 -367 822 -347.5 802.5 c 128,-1,15
 -328 783 -328 783 -328 756 c 0,16,17
 -328 728 -328 728 -347.5 708.5 c 128,-1,18
 -367 689 -367 689 -395 689 c 256,7,8
EndSplineSet
Ligature2: "'abvs' Above Base Substitutions lookup 12 subtable" aiMatra_chakma.short anusvara_chakma
EndChar

StartChar: aiMatra_visarga
Encoding: 1114135 -1 76
Width: 0
GlyphClass: 4
Flags: W
AnchorPoint: "+BBEENQQ3BEsEPARPBD0EPQQ+BDUA--1" -244 617 mark 0
LayerCount: 2
Fore
SplineSet
-274 633 m 1,0,-1
 -166 870 l 1,1,-1
 -652 870 l 1,2,-1
 -652 940 l 1,3,-1
 -85 940 l 1,4,-1
 -85 870 l 1,5,-1
 -212 591 l 1,6,-1
 -274 633 l 1,0,-1
-355 689 m 0,7,8
 -382 689 -382 689 -401.5 709 c 128,-1,9
 -421 729 -421 729 -421 757 c 0,10,11
 -421 784 -421 784 -401.5 803.5 c 128,-1,12
 -382 823 -382 823 -355 823 c 0,13,14
 -327 823 -327 823 -307.5 803.5 c 128,-1,15
 -288 784 -288 784 -288 757 c 0,16,17
 -288 729 -288 729 -307.5 709 c 128,-1,18
 -327 689 -327 689 -355 689 c 0,7,8
-555 689 m 0,19,20
 -582 689 -582 689 -601.5 709 c 128,-1,21
 -621 729 -621 729 -621 757 c 0,22,23
 -621 784 -621 784 -601.5 803.5 c 128,-1,24
 -582 823 -582 823 -555 823 c 0,25,26
 -527 823 -527 823 -507.5 803.5 c 128,-1,27
 -488 784 -488 784 -488 757 c 0,28,29
 -488 729 -488 729 -507.5 709 c 128,-1,30
 -527 689 -527 689 -555 689 c 0,19,20
EndSplineSet
Ligature2: "'abvs' Above Base Substitutions lookup 12 subtable" aiMatra_chakma visarga_chakma
EndChar

StartChar: aiMatra_visarga.short
Encoding: 1114136 -1 77
Width: 0
GlyphClass: 4
Flags: W
AnchorPoint: "+BBEENQQ3BEsEPARPBD0EPQQ+BDUA--1" -244 617 mark 0
LayerCount: 2
Fore
SplineSet
-274 633 m 1,0,-1
 -166 870 l 1,1,-1
 -581 870 l 1,2,-1
 -581 940 l 1,3,-1
 -85 940 l 1,4,-1
 -85 870 l 1,5,-1
 -212 591 l 1,6,-1
 -274 633 l 1,0,-1
-345 689 m 0,7,8
 -372 689 -372 689 -391.5 709 c 128,-1,9
 -411 729 -411 729 -411 757 c 0,10,11
 -411 784 -411 784 -391.5 803.5 c 128,-1,12
 -372 823 -372 823 -345 823 c 0,13,14
 -317 823 -317 823 -297.5 803.5 c 128,-1,15
 -278 784 -278 784 -278 757 c 0,16,17
 -278 729 -278 729 -297.5 709 c 128,-1,18
 -317 689 -317 689 -345 689 c 0,7,8
-515 689 m 0,19,20
 -542 689 -542 689 -561.5 709 c 128,-1,21
 -581 729 -581 729 -581 757 c 0,22,23
 -581 784 -581 784 -561.5 803.5 c 128,-1,24
 -542 823 -542 823 -515 823 c 0,25,26
 -487 823 -487 823 -467.5 803.5 c 128,-1,27
 -448 784 -448 784 -448 757 c 0,28,29
 -448 729 -448 729 -467.5 709 c 128,-1,30
 -487 689 -487 689 -515 689 c 0,19,20
EndSplineSet
Ligature2: "'abvs' Above Base Substitutions lookup 12 subtable" aiMatra_chakma.short visarga_chakma
EndChar

StartChar: aiMatra_maayyaa
Encoding: 1114137 -1 78
Width: 0
GlyphClass: 4
Flags: W
AnchorPoint: "+BBEENQQ3BEsEPARPBD0EPQQ+BDUA--1" -244 617 mark 0
LayerCount: 2
Fore
SplineSet
-274 633 m 1,0,-1
 -166 870 l 1,1,-1
 -652 870 l 1,2,-1
 -652 940 l 1,3,-1
 -85 940 l 1,4,-1
 -85 870 l 1,5,-1
 -212 591 l 1,6,-1
 -274 633 l 1,0,-1
-303 790 m 1,7,-1
 -303 720 l 1,8,-1
 -623 720 l 1,9,-1
 -623 790 l 1,10,-1
 -303 790 l 1,7,-1
EndSplineSet
Ligature2: "'abvs' Above Base Substitutions lookup 12 subtable" maayyaa_chakma aiMatra_chakma
Ligature2: "'abvs' Above Base Substitutions lookup 12 subtable" aiMatra_chakma maayyaa_chakma
EndChar

StartChar: aiMatra_maayyaa.short
Encoding: 1114138 -1 79
Width: 0
GlyphClass: 4
Flags: W
AnchorPoint: "+BBEENQQ3BEsEPARPBD0EPQQ+BDUA--1" -244 617 mark 0
LayerCount: 2
Fore
SplineSet
-274 633 m 1,0,-1
 -166 870 l 1,1,-1
 -553 870 l 1,2,-1
 -553 940 l 1,3,-1
 -85 940 l 1,4,-1
 -85 870 l 1,5,-1
 -212 591 l 1,6,-1
 -274 633 l 1,0,-1
-293 790 m 1,7,-1
 -293 720 l 1,8,-1
 -513 720 l 1,9,-1
 -513 790 l 1,10,-1
 -293 790 l 1,7,-1
EndSplineSet
Ligature2: "'abvs' Above Base Substitutions lookup 12 subtable" maayyaa_chakma aiMatra_chakma.short
Ligature2: "'abvs' Above Base Substitutions lookup 12 subtable" aiMatra_chakma.short maayyaa_chakma
EndChar

StartChar: oiMatra_chakma
Encoding: 69936 69936 82
Width: 0
GlyphClass: 4
Flags: W
AnchorPoint: "+BBEENQQ3BEsEPARPBD0EPQQ+BDUA--1" -271 615 mark 0
LayerCount: 2
Fore
SplineSet
-374 633 m 1,0,-1
 -293 810 l 1,1,-1
 -752 810 l 1,2,-1
 -752 880 l 1,3,-1
 -212 880 l 1,4,-1
 -212 810 l 1,5,-1
 -312 591 l 1,6,-1
 -374 633 l 1,0,-1
-251 591 m 1,7,-1
 -121 877 l 1,8,-1
 -40 877 l 1,9,-1
 -190 548 l 1,10,-1
 -251 591 l 1,7,-1
EndSplineSet
Substitution2: "Single Substitution lookup 9 subtable" oiMatra_chakma.short
EndChar

StartChar: oiMatra_chakma.short
Encoding: 1114139 -1 83
Width: 0
GlyphClass: 4
Flags: W
AnchorPoint: "+BBEENQQ3BEsEPARPBD0EPQQ+BDUA--1" -271 615 mark 0
LayerCount: 2
Fore
SplineSet
-374 633 m 1,0,-1
 -293 810 l 1,1,-1
 -642 810 l 1,2,-1
 -642 880 l 1,3,-1
 -212 880 l 1,4,-1
 -212 810 l 1,5,-1
 -312 591 l 1,6,-1
 -374 633 l 1,0,-1
-251 591 m 1,7,-1
 -121 877 l 1,8,-1
 -40 877 l 1,9,-1
 -190 548 l 1,10,-1
 -251 591 l 1,7,-1
EndSplineSet
EndChar

StartChar: oiMatra_candrabindu
Encoding: 1114140 -1 84
Width: 0
GlyphClass: 4
Flags: W
AnchorPoint: "+BBEENQQ3BEsEPARPBD0EPQQ+BDUA--11" -271 615 mark 0
AnchorPoint: "+BBEENQQ3BEsEPARPBD0EPQQ+BDUA--1" -271 615 mark 0
LayerCount: 2
Fore
SplineSet
-374 633 m 1,0,-1
 -249 910 l 1,1,-1
 -739 910 l 1,2,-1
 -739 980 l 1,3,-1
 -168 980 l 1,4,-1
 -168 910 l 1,5,-1
 -312 591 l 1,6,-1
 -374 633 l 1,0,-1
-251 591 m 1,7,-1
 -77 977 l 1,8,-1
 4 977 l 1,9,-1
 -190 548 l 1,10,-1
 -251 591 l 1,7,-1
-560 759 m 0,11,12
 -582 759 -582 759 -598 775 c 128,-1,13
 -614 791 -614 791 -614 813 c 0,14,15
 -614 836 -614 836 -598 851.5 c 128,-1,16
 -582 867 -582 867 -560 867 c 0,17,18
 -537 867 -537 867 -521.5 851.5 c 128,-1,19
 -506 836 -506 836 -506 813 c 0,20,21
 -506 791 -506 791 -521.5 775 c 128,-1,22
 -537 759 -537 759 -560 759 c 0,11,12
-667 856 m 1,23,24
 -667 802 -667 802 -636 764.5 c 128,-1,25
 -605 727 -605 727 -560 725 c 0,26,27
 -530 724 -530 724 -505.5 742 c 128,-1,28
 -481 760 -481 760 -466.5 790 c 128,-1,29
 -452 820 -452 820 -452 856 c 1,30,-1
 -380 856 l 1,31,32
 -380 809 -380 809 -401.5 765 c 128,-1,33
 -423 721 -423 721 -462.5 693.5 c 128,-1,34
 -502 666 -502 666 -557 666 c 256,35,36
 -612 666 -612 666 -653 693.5 c 128,-1,37
 -694 721 -694 721 -716.5 765 c 128,-1,38
 -739 809 -739 809 -739 856 c 1,39,-1
 -667 856 l 1,23,24
EndSplineSet
Ligature2: "'abvs' Above Base Substitutions lookup 12 subtable" oiMatra_chakma candrabindu_chakma
EndChar

StartChar: oiMatra_candrabindu.short
Encoding: 1114141 -1 85
Width: 0
GlyphClass: 4
Flags: W
AnchorPoint: "+BBEENQQ3BEsEPARPBD0EPQQ+BDUA--1" -271 615 mark 0
LayerCount: 2
Fore
SplineSet
-374 633 m 1,0,-1
 -249 910 l 1,1,-1
 -639 910 l 1,2,-1
 -639 980 l 1,3,-1
 -168 980 l 1,4,-1
 -168 910 l 1,5,-1
 -312 591 l 1,6,-1
 -374 633 l 1,0,-1
-251 591 m 1,7,-1
 -77 977 l 1,8,-1
 4 977 l 1,9,-1
 -190 548 l 1,10,-1
 -251 591 l 1,7,-1
-480 776 m 0,11,12
 -502 776 -502 776 -517 791 c 128,-1,13
 -532 806 -532 806 -532 828 c 0,14,15
 -532 849 -532 849 -517 864 c 128,-1,16
 -502 879 -502 879 -480 879 c 0,17,18
 -459 879 -459 879 -443.5 864 c 128,-1,19
 -428 849 -428 849 -428 828 c 0,20,21
 -428 806 -428 806 -443.5 791 c 128,-1,22
 -459 776 -459 776 -480 776 c 0,11,12
-576 856 m 1,23,24
 -576 809 -576 809 -549 775 c 128,-1,25
 -522 741 -522 741 -480 741 c 256,26,27
 -438 741 -438 741 -413 775 c 128,-1,28
 -388 809 -388 809 -388 856 c 1,29,-1
 -325 856 l 1,30,31
 -325 814 -325 814 -343.5 776 c 128,-1,32
 -362 738 -362 738 -397 714 c 128,-1,33
 -432 690 -432 690 -480 690 c 0,34,35
 -529 690 -529 690 -564.5 714 c 128,-1,36
 -600 738 -600 738 -619.5 776 c 128,-1,37
 -639 814 -639 814 -639 856 c 1,38,-1
 -576 856 l 1,23,24
EndSplineSet
Ligature2: "'abvs' Above Base Substitutions lookup 12 subtable" oiMatra_chakma.short candrabindu_chakma
EndChar

StartChar: oiMatra_anusvara
Encoding: 1114142 -1 86
Width: 0
GlyphClass: 4
Flags: W
AnchorPoint: "+BBEENQQ3BEsEPARPBD0EPQQ+BDUA--11" -271 615 mark 0
AnchorPoint: "+BBEENQQ3BEsEPARPBD0EPQQ+BDUA--1" -271 615 mark 0
LayerCount: 2
Fore
SplineSet
-374 633 m 1,0,-1
 -266 870 l 1,1,-1
 -752 870 l 1,2,-1
 -752 940 l 1,3,-1
 -185 940 l 1,4,-1
 -185 870 l 1,5,-1
 -312 591 l 1,6,-1
 -374 633 l 1,0,-1
-251 591 m 1,7,-1
 -94 937 l 1,8,-1
 -13 937 l 1,9,-1
 -190 548 l 1,10,-1
 -251 591 l 1,7,-1
-525 689 m 256,11,12
 -553 689 -553 689 -572 708.5 c 128,-1,13
 -591 728 -591 728 -591 756 c 0,14,15
 -591 783 -591 783 -572 802.5 c 128,-1,16
 -553 822 -553 822 -525 822 c 256,17,18
 -497 822 -497 822 -477.5 802.5 c 128,-1,19
 -458 783 -458 783 -458 756 c 0,20,21
 -458 728 -458 728 -477.5 708.5 c 128,-1,22
 -497 689 -497 689 -525 689 c 256,11,12
EndSplineSet
Ligature2: "'abvs' Above Base Substitutions lookup 12 subtable" oiMatra_chakma anusvara_chakma
EndChar

StartChar: oiMatra_anusvara.short
Encoding: 1114143 -1 87
Width: 0
GlyphClass: 4
Flags: W
AnchorPoint: "+BBEENQQ3BEsEPARPBD0EPQQ+BDUA--1" -271 615 mark 0
LayerCount: 2
Fore
SplineSet
-374 633 m 1,0,-1
 -266 870 l 1,1,-1
 -652 870 l 1,2,-1
 -652 940 l 1,3,-1
 -185 940 l 1,4,-1
 -185 870 l 1,5,-1
 -312 591 l 1,6,-1
 -374 633 l 1,0,-1
-251 591 m 1,7,-1
 -94 937 l 1,8,-1
 -13 937 l 1,9,-1
 -190 548 l 1,10,-1
 -251 591 l 1,7,-1
-485 689 m 256,11,12
 -513 689 -513 689 -532 708.5 c 128,-1,13
 -551 728 -551 728 -551 756 c 0,14,15
 -551 783 -551 783 -532 802.5 c 128,-1,16
 -513 822 -513 822 -485 822 c 256,17,18
 -457 822 -457 822 -437.5 802.5 c 128,-1,19
 -418 783 -418 783 -418 756 c 0,20,21
 -418 728 -418 728 -437.5 708.5 c 128,-1,22
 -457 689 -457 689 -485 689 c 256,11,12
EndSplineSet
Ligature2: "'abvs' Above Base Substitutions lookup 12 subtable" oiMatra_chakma.short anusvara_chakma
EndChar

StartChar: oiMatra_visarga
Encoding: 1114144 -1 88
Width: 0
GlyphClass: 4
Flags: W
AnchorPoint: "+BBEENQQ3BEsEPARPBD0EPQQ+BDUA--11" -271 615 mark 0
AnchorPoint: "+BBEENQQ3BEsEPARPBD0EPQQ+BDUA--1" -271 615 mark 0
LayerCount: 2
Fore
SplineSet
-251 591 m 1,0,-1
 -93 940 l 1,1,-1
 -12 940 l 1,2,-1
 -190 548 l 1,3,-1
 -251 591 l 1,0,-1
-374 633 m 1,4,-1
 -266 870 l 1,5,-1
 -752 870 l 1,6,-1
 -752 940 l 1,7,-1
 -185 940 l 1,8,-1
 -185 870 l 1,9,-1
 -312 591 l 1,10,-1
 -374 633 l 1,4,-1
-455 689 m 0,11,12
 -482 689 -482 689 -501.5 709 c 128,-1,13
 -521 729 -521 729 -521 757 c 0,14,15
 -521 784 -521 784 -501.5 803.5 c 128,-1,16
 -482 823 -482 823 -455 823 c 0,17,18
 -427 823 -427 823 -407.5 803.5 c 128,-1,19
 -388 784 -388 784 -388 757 c 0,20,21
 -388 729 -388 729 -407.5 709 c 128,-1,22
 -427 689 -427 689 -455 689 c 0,11,12
-655 689 m 0,23,24
 -682 689 -682 689 -701.5 709 c 128,-1,25
 -721 729 -721 729 -721 757 c 0,26,27
 -721 784 -721 784 -701.5 803.5 c 128,-1,28
 -682 823 -682 823 -655 823 c 0,29,30
 -627 823 -627 823 -607.5 803.5 c 128,-1,31
 -588 784 -588 784 -588 757 c 0,32,33
 -588 729 -588 729 -607.5 709 c 128,-1,34
 -627 689 -627 689 -655 689 c 0,23,24
EndSplineSet
Ligature2: "'abvs' Above Base Substitutions lookup 12 subtable" oiMatra_chakma visarga_chakma
EndChar

StartChar: oiMatra_visarga.short
Encoding: 1114145 -1 89
Width: 0
GlyphClass: 4
Flags: W
AnchorPoint: "+BBEENQQ3BEsEPARPBD0EPQQ+BDUA--1" -271 615 mark 0
LayerCount: 2
Fore
SplineSet
-251 591 m 1,0,-1
 -93 940 l 1,1,-1
 -12 940 l 1,2,-1
 -190 548 l 1,3,-1
 -251 591 l 1,0,-1
-374 633 m 1,4,-1
 -266 870 l 1,5,-1
 -684 870 l 1,6,-1
 -684 940 l 1,7,-1
 -185 940 l 1,8,-1
 -185 870 l 1,9,-1
 -312 591 l 1,10,-1
 -374 633 l 1,4,-1
-435 689 m 0,11,12
 -462 689 -462 689 -481.5 709 c 128,-1,13
 -501 729 -501 729 -501 757 c 0,14,15
 -501 784 -501 784 -481.5 803.5 c 128,-1,16
 -462 823 -462 823 -435 823 c 0,17,18
 -407 823 -407 823 -387.5 803.5 c 128,-1,19
 -368 784 -368 784 -368 757 c 0,20,21
 -368 729 -368 729 -387.5 709 c 128,-1,22
 -407 689 -407 689 -435 689 c 0,11,12
-615 689 m 0,23,24
 -642 689 -642 689 -661.5 709 c 128,-1,25
 -681 729 -681 729 -681 757 c 0,26,27
 -681 784 -681 784 -661.5 803.5 c 128,-1,28
 -642 823 -642 823 -615 823 c 0,29,30
 -587 823 -587 823 -567.5 803.5 c 128,-1,31
 -548 784 -548 784 -548 757 c 0,32,33
 -548 729 -548 729 -567.5 709 c 128,-1,34
 -587 689 -587 689 -615 689 c 0,23,24
EndSplineSet
Ligature2: "'abvs' Above Base Substitutions lookup 12 subtable" oiMatra_chakma.short visarga_chakma
EndChar

StartChar: oiMatra_maayyaa
Encoding: 1114146 -1 90
Width: 0
GlyphClass: 4
Flags: W
AnchorPoint: "+BBEENQQ3BEsEPARPBD0EPQQ+BDUA--1" -271 615 mark 0
LayerCount: 2
Fore
SplineSet
-374 633 m 1,0,-1
 -266 870 l 1,1,-1
 -752 870 l 1,2,-1
 -752 940 l 1,3,-1
 -185 940 l 1,4,-1
 -185 870 l 1,5,-1
 -312 591 l 1,6,-1
 -374 633 l 1,0,-1
-12 940 m 1,7,-1
 -190 548 l 1,8,-1
 -251 591 l 1,9,-1
 -93 940 l 1,10,-1
 -12 940 l 1,7,-1
-403 790 m 1,11,-1
 -403 720 l 1,12,-1
 -723 720 l 1,13,-1
 -723 790 l 1,14,-1
 -403 790 l 1,11,-1
EndSplineSet
Ligature2: "'abvs' Above Base Substitutions lookup 12 subtable" maayyaa_chakma oiMatra_chakma
EndChar

StartChar: oiMatra_maayyaa.short
Encoding: 1114147 -1 91
Width: 0
GlyphClass: 4
Flags: W
AnchorPoint: "+BBEENQQ3BEsEPARPBD0EPQQ+BDUA--1" -271 615 mark 0
LayerCount: 2
Fore
SplineSet
-374 633 m 1,0,-1
 -266 870 l 1,1,-1
 -653 870 l 1,2,-1
 -653 940 l 1,3,-1
 -185 940 l 1,4,-1
 -185 870 l 1,5,-1
 -312 591 l 1,6,-1
 -374 633 l 1,0,-1
-12 940 m 1,7,-1
 -190 548 l 1,8,-1
 -251 591 l 1,9,-1
 -93 940 l 1,10,-1
 -12 940 l 1,7,-1
-393 790 m 1,11,-1
 -393 720 l 1,12,-1
 -613 720 l 1,13,-1
 -613 790 l 1,14,-1
 -393 790 l 1,11,-1
EndSplineSet
Ligature2: "'abvs' Above Base Substitutions lookup 12 subtable" maayyaa_chakma oiMatra_chakma.short
EndChar

StartChar: iMatra_aMatra
Encoding: 1114148 -1 92
Width: 0
GlyphClass: 4
Flags: W
AnchorPoint: "+BBEENQQ3BEsEPARPBD0EPQQ+BDUA--1" -325 657 mark 0
LayerCount: 2
Fore
SplineSet
-325 657 m 0,0,1
 -373 657 -373 657 -413.5 680 c 128,-1,2
 -454 703 -454 703 -478 741.5 c 128,-1,3
 -502 780 -502 780 -502 827 c 0,4,5
 -502 875 -502 875 -478 913.5 c 128,-1,6
 -454 952 -454 952 -413.5 975 c 128,-1,7
 -373 998 -373 998 -325 998 c 0,8,9
 -275 998 -275 998 -233.5 973.5 c 128,-1,10
 -192 949 -192 949 -170 909 c 1,11,-1
 -105 1064 l 1,12,-1
 -37 1032 l 1,13,-1
 -159 768 l 2,14,15
 -178 719 -178 719 -223 688 c 128,-1,16
 -268 657 -268 657 -325 657 c 0,0,1
-325 724 m 256,17,18
 -279 724 -279 724 -247 754 c 128,-1,19
 -215 784 -215 784 -215 827 c 0,20,21
 -215 871 -215 871 -247 901 c 128,-1,22
 -279 931 -279 931 -325 931 c 256,23,24
 -371 931 -371 931 -403 901 c 128,-1,25
 -435 871 -435 871 -435 827 c 0,26,27
 -435 784 -435 784 -403 754 c 128,-1,28
 -371 724 -371 724 -325 724 c 256,17,18
EndSplineSet
Ligature2: "'abvs' Above Base Substitutions lookup 12 subtable" aMatra_chakma iMatra_chakma
EndChar

StartChar: iiMatra_aMatra
Encoding: 1114149 -1 93
Width: 0
GlyphClass: 4
Flags: W
AnchorPoint: "+BBEENQQ3BEsEPARPBD0EPQQ+BDUA--1" -325 657 mark 0
LayerCount: 2
Fore
SplineSet
-325 657 m 0,0,1
 -373 657 -373 657 -413.5 680 c 128,-1,2
 -454 703 -454 703 -478 741.5 c 128,-1,3
 -502 780 -502 780 -502 827 c 0,4,5
 -502 875 -502 875 -478 913.5 c 128,-1,6
 -454 952 -454 952 -413.5 975 c 128,-1,7
 -373 998 -373 998 -325 998 c 0,8,9
 -275 998 -275 998 -233.5 973.5 c 128,-1,10
 -192 949 -192 949 -170 909 c 1,11,-1
 -105 1064 l 1,12,-1
 -37 1032 l 1,13,-1
 -159 768 l 2,14,15
 -178 719 -178 719 -223 688 c 128,-1,16
 -268 657 -268 657 -325 657 c 0,0,1
-325 724 m 256,17,18
 -279 724 -279 724 -247 754 c 128,-1,19
 -215 784 -215 784 -215 827 c 0,20,21
 -215 871 -215 871 -247 901 c 128,-1,22
 -279 931 -279 931 -325 931 c 256,23,24
 -371 931 -371 931 -403 901 c 128,-1,25
 -435 871 -435 871 -435 827 c 0,26,27
 -435 784 -435 784 -403 754 c 128,-1,28
 -371 724 -371 724 -325 724 c 256,17,18
-326 772 m 0,29,30
 -348 772 -348 772 -364.5 788.5 c 128,-1,31
 -381 805 -381 805 -381 828 c 256,32,33
 -381 851 -381 851 -364.5 867.5 c 128,-1,34
 -348 884 -348 884 -326 884 c 0,35,36
 -303 884 -303 884 -287 867.5 c 128,-1,37
 -271 851 -271 851 -271 828 c 256,38,39
 -271 805 -271 805 -287 788.5 c 128,-1,40
 -303 772 -303 772 -326 772 c 0,29,30
EndSplineSet
Ligature2: "'abvs' Above Base Substitutions lookup 12 subtable" aMatra_chakma iiMatra_chakma
EndChar

StartChar: oMark_chakma
Encoding: 69937 69937 94
Width: 0
GlyphClass: 4
Flags: W
AnchorPoint: "+BBEENQQ3BEsEPARPBD0EPQQ+BDUA--10" -260 11 mark 0
AnchorPoint: "+BBEENQQ3BEsEPARPBD0EPQQ+BDUA--8" -260 11 mark 0
AnchorPoint: "+BBEENQQ3BEsEPARPBD0EPQQ+BDUA--6" -260 31 mark 0
LayerCount: 2
Fore
SplineSet
-260 -310 m 0,0,1
 -308 -310 -308 -310 -348.5 -287 c 128,-1,2
 -389 -264 -389 -264 -413 -225.5 c 128,-1,3
 -437 -187 -437 -187 -437 -140 c 0,4,5
 -437 -92 -437 -92 -413 -53.5 c 128,-1,6
 -389 -15 -389 -15 -348.5 8 c 128,-1,7
 -308 31 -308 31 -260 31 c 0,8,9
 -211 31 -211 31 -171 8 c 128,-1,10
 -131 -15 -131 -15 -107 -53.5 c 128,-1,11
 -83 -92 -83 -92 -83 -140 c 0,12,13
 -83 -187 -83 -187 -107 -225.5 c 128,-1,14
 -131 -264 -131 -264 -171 -287 c 128,-1,15
 -211 -310 -211 -310 -260 -310 c 0,0,1
-260 -243 m 256,16,17
 -214 -243 -214 -243 -182 -213 c 128,-1,18
 -150 -183 -150 -183 -150 -140 c 0,19,20
 -150 -96 -150 -96 -182 -66 c 128,-1,21
 -214 -36 -214 -36 -260 -36 c 256,22,23
 -306 -36 -306 -36 -338 -66 c 128,-1,24
 -370 -96 -370 -96 -370 -140 c 0,25,26
 -370 -183 -370 -183 -338 -213 c 128,-1,27
 -306 -243 -306 -243 -260 -243 c 256,16,17
EndSplineSet
EndChar

StartChar: auMark_chakma
Encoding: 69938 69938 95
Width: 0
GlyphClass: 4
Flags: W
AnchorPoint: "+BBEENQQ3BEsEPARPBD0EPQQ+BDUA--10" -260 11 mark 0
AnchorPoint: "+BBEENQQ3BEsEPARPBD0EPQQ+BDUA--8" -260 11 mark 0
AnchorPoint: "+BBEENQQ3BEsEPARPBD0EPQQ+BDUA--6" -260 31 mark 0
LayerCount: 2
Fore
SplineSet
-260 -310 m 0,0,1
 -308 -310 -308 -310 -348.5 -287 c 128,-1,2
 -389 -264 -389 -264 -413 -225.5 c 128,-1,3
 -437 -187 -437 -187 -437 -140 c 0,4,5
 -437 -92 -437 -92 -413 -53.5 c 128,-1,6
 -389 -15 -389 -15 -348.5 8 c 128,-1,7
 -308 31 -308 31 -260 31 c 0,8,9
 -211 31 -211 31 -171 8 c 128,-1,10
 -131 -15 -131 -15 -107 -53.5 c 128,-1,11
 -83 -92 -83 -92 -83 -140 c 0,12,13
 -83 -187 -83 -187 -107 -225.5 c 128,-1,14
 -131 -264 -131 -264 -171 -287 c 128,-1,15
 -211 -310 -211 -310 -260 -310 c 0,0,1
-260 -243 m 256,16,17
 -214 -243 -214 -243 -182 -213 c 128,-1,18
 -150 -183 -150 -183 -150 -140 c 0,19,20
 -150 -96 -150 -96 -182 -66 c 128,-1,21
 -214 -36 -214 -36 -260 -36 c 256,22,23
 -306 -36 -306 -36 -338 -66 c 128,-1,24
 -370 -96 -370 -96 -370 -140 c 0,25,26
 -370 -183 -370 -183 -338 -213 c 128,-1,27
 -306 -243 -306 -243 -260 -243 c 256,16,17
-261 -195 m 0,28,29
 -283 -195 -283 -195 -299.5 -178.5 c 128,-1,30
 -316 -162 -316 -162 -316 -139 c 256,31,32
 -316 -116 -316 -116 -299.5 -99.5 c 128,-1,33
 -283 -83 -283 -83 -261 -83 c 0,34,35
 -238 -83 -238 -83 -222 -99.5 c 128,-1,36
 -206 -116 -206 -116 -206 -139 c 256,37,38
 -206 -162 -206 -162 -222 -178.5 c 128,-1,39
 -238 -195 -238 -195 -261 -195 c 0,28,29
EndSplineSet
EndChar

StartChar: virama_chakma
Encoding: 69939 69939 96
Width: 0
GlyphClass: 4
Flags: W
AnchorPoint: "+BBEENQQ3BEsEPARPBD0EPQQ+BDUA--3" -317 0 mark 0
LayerCount: 2
Fore
SplineSet
-353 -291 m 1,0,-1
 -478 -291 l 1,1,-1
 -478 -224 l 1,2,-1
 -353 -224 l 1,3,-1
 -353 -98 l 1,4,-1
 -279 -98 l 1,5,-1
 -279 -224 l 1,6,-1
 -154 -224 l 1,7,-1
 -154 -291 l 1,8,-1
 -279 -291 l 1,9,-1
 -279 -416 l 1,10,-1
 -353 -416 l 1,11,-1
 -353 -291 l 1,0,-1
EndSplineSet
EndChar

StartChar: maayyaa_chakma
Encoding: 69940 69940 97
Width: 0
GlyphClass: 4
Flags: W
AnchorPoint: "+BBEENQQ3BEsEPARPBD0EPQQ+BDUA--11" -223 822 basemark 0
AnchorPoint: "+BBEENQQ3BEsEPARPBD0EPQQ+BDUA--0" -223 650 mark 0
LayerCount: 2
Fore
SplineSet
-63 770 m 1,0,-1
 -63 700 l 1,1,-1
 -383 700 l 1,2,-1
 -383 770 l 1,3,-1
 -63 770 l 1,0,-1
EndSplineSet
EndChar

StartChar: zero_chakma
Encoding: 69942 69942 100
Width: 575
Flags: W
LayerCount: 2
Fore
SplineSet
287 622 m 0,0,1
 340 622 340 622 382 595.5 c 128,-1,2
 424 569 424 569 453.5 524.5 c 128,-1,3
 483 480 483 480 499 423.5 c 128,-1,4
 515 367 515 367 515 307 c 256,5,6
 515 247 515 247 499 190.5 c 128,-1,7
 483 134 483 134 453.5 88.5 c 128,-1,8
 424 43 424 43 382 16.5 c 128,-1,9
 340 -10 340 -10 287 -10 c 0,10,11
 235 -10 235 -10 193 16.5 c 128,-1,12
 151 43 151 43 121 88.5 c 128,-1,13
 91 134 91 134 75.5 190.5 c 128,-1,14
 60 247 60 247 60 307 c 256,15,16
 60 367 60 367 75.5 423.5 c 128,-1,17
 91 480 91 480 121 524.5 c 128,-1,18
 151 569 151 569 193 595.5 c 128,-1,19
 235 622 235 622 287 622 c 0,0,1
287 555 m 0,20,21
 220 555 220 555 185 486.5 c 128,-1,22
 150 418 150 418 150 307 c 0,23,24
 150 233 150 233 165.5 176.5 c 128,-1,25
 181 120 181 120 211.5 88.5 c 128,-1,26
 242 57 242 57 287 57 c 256,27,28
 332 57 332 57 363 88.5 c 128,-1,29
 394 120 394 120 409.5 176.5 c 128,-1,30
 425 233 425 233 425 307 c 0,31,32
 425 418 425 418 390 486.5 c 128,-1,33
 355 555 355 555 287 555 c 0,20,21
EndSplineSet
EndChar

StartChar: one_chakma
Encoding: 69943 69943 101
Width: 558
Flags: W
LayerCount: 2
Fore
SplineSet
514 545 m 1,0,1
 488 537 488 537 437 510 c 128,-1,2
 386 483 386 483 332 442 c 1,3,4
 389 387 389 387 427.5 321.5 c 128,-1,5
 466 256 466 256 466 186 c 0,6,7
 466 125 466 125 439 80.5 c 128,-1,8
 412 36 412 36 367.5 12.5 c 128,-1,9
 323 -11 323 -11 270 -11 c 256,10,11
 217 -11 217 -11 171.5 13.5 c 128,-1,12
 126 38 126 38 98.5 82.5 c 128,-1,13
 71 127 71 127 71 186 c 0,14,15
 71 260 71 260 112 326.5 c 128,-1,16
 153 393 153 393 214 448 c 1,17,18
 170 482 170 482 125 506.5 c 128,-1,19
 80 531 80 531 44 543 c 1,20,-1
 44 629 l 1,21,22
 91 611 91 611 152 576 c 128,-1,23
 213 541 213 541 272 495 c 1,24,25
 335 542 335 542 400.5 577 c 128,-1,26
 466 612 466 612 514 631 c 1,27,-1
 514 545 l 1,0,1
161 186 m 0,28,29
 161 124 161 124 193 90 c 128,-1,30
 225 56 225 56 271 56 c 0,31,32
 315 56 315 56 345.5 89 c 128,-1,33
 376 122 376 122 376 186 c 0,34,35
 376 244 376 244 347 297 c 128,-1,36
 318 350 318 350 274 395 c 1,37,38
 227 350 227 350 194 297 c 128,-1,39
 161 244 161 244 161 186 c 0,28,29
EndSplineSet
EndChar

StartChar: two_chakma
Encoding: 69944 69944 102
Width: 590
Flags: W
LayerCount: 2
Fore
SplineSet
479 -75 m 1,0,1
 414 1 414 1 307 57.5 c 128,-1,2
 200 114 200 114 60 134 c 1,3,-1
 78 201 l 1,4,5
 127 201 127 201 179 220 c 128,-1,6
 231 239 231 239 279.5 270 c 128,-1,7
 328 301 328 301 366.5 339.5 c 128,-1,8
 405 378 405 378 427.5 417 c 128,-1,9
 450 456 450 456 450 490 c 0,10,11
 450 531 450 531 418 547 c 128,-1,12
 386 563 386 563 346 563 c 0,13,14
 292 563 292 563 257.5 541.5 c 128,-1,15
 223 520 223 520 208 488 c 128,-1,16
 193 456 193 456 196 424 c 1,17,-1
 108 386 l 1,18,19
 105 427 105 427 118.5 470 c 128,-1,20
 132 513 132 513 163 549.5 c 128,-1,21
 194 586 194 586 243 608.5 c 128,-1,22
 292 631 292 631 359 631 c 0,23,24
 403 631 403 631 444.5 619.5 c 128,-1,25
 486 608 486 608 513 579.5 c 128,-1,26
 540 551 540 551 540 500 c 0,27,28
 540 455 540 455 516.5 407 c 128,-1,29
 493 359 493 359 451 313.5 c 128,-1,30
 409 268 409 268 354 228 c 128,-1,31
 299 188 299 188 235 159 c 1,32,33
 345 136 345 136 416.5 90.5 c 128,-1,34
 488 45 488 45 535 -7 c 1,35,-1
 479 -75 l 1,0,1
EndSplineSet
EndChar

StartChar: three_chakma
Encoding: 69945 69945 103
Width: 704
Flags: W
LayerCount: 2
Fore
SplineSet
644 257 m 0,0,1
 644 209 644 209 626.5 161 c 128,-1,2
 609 113 609 113 574 73.5 c 128,-1,3
 539 34 539 34 487 10 c 128,-1,4
 435 -14 435 -14 366 -14 c 0,5,6
 275 -14 275 -14 206 25.5 c 128,-1,7
 137 65 137 65 98.5 133.5 c 128,-1,8
 60 202 60 202 60 288 c 0,9,10
 60 358 60 358 81.5 415 c 128,-1,11
 103 472 103 472 136.5 515 c 128,-1,12
 170 558 170 558 205.5 587 c 128,-1,13
 241 616 241 616 269 630 c 1,14,-1
 305 573 l 1,15,16
 264 549 264 549 228.5 508 c 128,-1,17
 193 467 193 467 171.5 413.5 c 128,-1,18
 150 360 150 360 150 298 c 0,19,20
 150 234 150 234 175.5 178 c 128,-1,21
 201 122 201 122 248 87.5 c 128,-1,22
 295 53 295 53 359 53 c 0,23,24
 416 53 416 53 460 80.5 c 128,-1,25
 504 108 504 108 529 154 c 128,-1,26
 554 200 554 200 554 255 c 0,27,28
 554 288 554 288 543.5 319 c 128,-1,29
 533 350 533 350 511 370 c 1,30,31
 521 349 521 349 521 324 c 0,32,33
 521 280 521 280 490 245.5 c 128,-1,34
 459 211 459 211 399 211 c 0,35,36
 345 211 345 211 309 241 c 128,-1,37
 273 271 273 271 273 326 c 0,38,39
 273 369 273 369 295 400 c 128,-1,40
 317 431 317 431 355 448.5 c 128,-1,41
 393 466 393 466 439 467 c 0,42,43
 502 469 502 469 548 440.5 c 128,-1,44
 594 412 594 412 619 364 c 128,-1,45
 644 316 644 316 644 257 c 0,0,1
355 326 m 256,46,47
 355 303 355 303 368.5 290.5 c 128,-1,48
 382 278 382 278 401 278 c 0,49,50
 422 278 422 278 434.5 292 c 128,-1,51
 447 306 447 306 447 327 c 0,52,53
 447 345 447 345 437.5 362 c 128,-1,54
 428 379 428 379 412 393 c 1,55,56
 385 386 385 386 370 367.5 c 128,-1,57
 355 349 355 349 355 326 c 256,46,47
EndSplineSet
EndChar

StartChar: four_chakma
Encoding: 69946 69946 104
Width: 608
Flags: W
LayerCount: 2
Fore
SplineSet
548 118 m 1,0,1
 505 63 505 63 441 29 c 128,-1,2
 377 -5 377 -5 303 -5 c 0,3,4
 231 -5 231 -5 176.5 27.5 c 128,-1,5
 122 60 122 60 91 119.5 c 128,-1,6
 60 179 60 179 60 259 c 0,7,8
 60 338 60 338 90.5 405 c 128,-1,9
 121 472 121 472 171 521 c 128,-1,10
 221 570 221 570 281 597.5 c 128,-1,11
 341 625 341 625 401 625 c 0,12,13
 460 625 460 625 490 599.5 c 128,-1,14
 520 574 520 574 520 536 c 0,15,16
 520 505 520 505 501 471.5 c 128,-1,17
 482 438 482 438 446.5 409 c 128,-1,18
 411 380 411 380 361.5 362.5 c 128,-1,19
 312 345 312 345 250 345 c 0,20,21
 226 345 226 345 205 347.5 c 128,-1,22
 184 350 184 350 165 355 c 1,23,24
 150 308 150 308 150 262 c 0,25,26
 150 207 150 207 170.5 162 c 128,-1,27
 191 117 191 117 228.5 90 c 128,-1,28
 266 63 266 63 315 63 c 0,29,30
 357 63 357 63 393 80 c 128,-1,31
 429 97 429 97 457.5 120.5 c 128,-1,32
 486 144 486 144 503 163 c 1,33,-1
 548 118 l 1,0,1
380 556 m 0,34,35
 327 556 327 556 275 515 c 128,-1,36
 223 474 223 474 189 412 c 1,37,38
 205 408 205 408 220.5 406 c 128,-1,39
 236 404 236 404 251 404 c 0,40,41
 303 404 303 404 346.5 422.5 c 128,-1,42
 390 441 390 441 416 467.5 c 128,-1,43
 442 494 442 494 442 517 c 0,44,45
 442 539 442 539 422 547.5 c 128,-1,46
 402 556 402 556 380 556 c 0,34,35
EndSplineSet
EndChar

StartChar: five_chakma
Encoding: 69947 69947 105
Width: 557
Flags: W
LayerCount: 2
Fore
SplineSet
110 610 m 1,0,1
 127 618 127 618 149 624.5 c 128,-1,2
 171 631 171 631 202 631 c 0,3,4
 259 631 259 631 312 606.5 c 128,-1,5
 365 582 365 582 407 538.5 c 128,-1,6
 449 495 449 495 473 437.5 c 128,-1,7
 497 380 497 380 497 313 c 0,8,9
 497 247 497 247 475 188.5 c 128,-1,10
 453 130 453 130 413.5 85.5 c 128,-1,11
 374 41 374 41 322.5 15.5 c 128,-1,12
 271 -10 271 -10 211 -10 c 0,13,14
 141 -10 141 -10 100.5 26.5 c 128,-1,15
 60 63 60 63 60 115 c 0,16,17
 60 150 60 150 75.5 182.5 c 128,-1,18
 91 215 91 215 114.5 243 c 128,-1,19
 138 271 138 271 161.5 292.5 c 128,-1,20
 185 314 185 314 201 326 c 1,21,22
 187 329 187 329 167 336 c 128,-1,23
 147 343 147 343 127 354 c 128,-1,24
 107 365 107 365 93.5 381.5 c 128,-1,25
 80 398 80 398 80 422 c 0,26,27
 80 445 80 445 93.5 471 c 128,-1,28
 107 497 107 497 128.5 521.5 c 128,-1,29
 150 546 150 546 174 564 c 1,30,31
 156 563 156 563 143 559.5 c 128,-1,32
 130 556 130 556 122 553 c 1,33,-1
 110 610 l 1,0,1
139 135 m 0,34,35
 139 103 139 103 160 80 c 128,-1,36
 181 57 181 57 222 57 c 0,37,38
 270 57 270 57 312 89 c 128,-1,39
 354 121 354 121 380.5 178 c 128,-1,40
 407 235 407 235 407 308 c 0,41,42
 407 386 407 386 378 443.5 c 128,-1,43
 349 501 349 501 300 532.5 c 128,-1,44
 251 564 251 564 191 564 c 1,45,-1
 215 512 l 1,46,47
 206 503 206 503 193 488.5 c 128,-1,48
 180 474 180 474 170 457.5 c 128,-1,49
 160 441 160 441 159 425 c 1,50,51
 190 418 190 418 219 407.5 c 128,-1,52
 248 397 248 397 267 382.5 c 128,-1,53
 286 368 286 368 286 350 c 0,54,55
 286 334 286 334 271 316.5 c 128,-1,56
 256 299 256 299 234.5 280 c 128,-1,57
 213 261 213 261 191 239 c 128,-1,58
 169 217 169 217 154 191.5 c 128,-1,59
 139 166 139 166 139 135 c 0,34,35
EndSplineSet
EndChar

StartChar: six_chakma
Encoding: 69948 69948 106
Width: 650
Flags: W
LayerCount: 2
Fore
SplineSet
525 0 m 1,0,1
 510 33 510 33 494 60 c 128,-1,2
 478 87 478 87 461 109 c 1,3,4
 432 56 432 56 384.5 23 c 128,-1,5
 337 -10 337 -10 269 -10 c 0,6,7
 217 -10 217 -10 169 10 c 128,-1,8
 121 30 121 30 90.5 68.5 c 128,-1,9
 60 107 60 107 60 160 c 0,10,11
 60 202 60 202 82 245 c 128,-1,12
 104 288 104 288 153 329 c 1,13,14
 114 360 114 360 89.5 395.5 c 128,-1,15
 65 431 65 431 65 474 c 0,16,17
 65 518 65 518 89.5 553.5 c 128,-1,18
 114 589 114 589 156.5 610 c 128,-1,19
 199 631 199 631 252 631 c 0,20,21
 326 631 326 631 383.5 590.5 c 128,-1,22
 441 550 441 550 473.5 477.5 c 128,-1,23
 506 405 506 405 506 310 c 0,24,25
 506 246 506 246 491 189 c 1,26,27
 523 157 523 157 550 116.5 c 128,-1,28
 577 76 577 76 596 23 c 1,29,-1
 525 0 l 1,0,1
279 338 m 0,30,31
 313 318 313 318 347.5 297.5 c 128,-1,32
 382 277 382 277 414 254 c 1,33,34
 416 278 416 278 416 306 c 0,35,36
 416 439 416 439 374.5 501 c 128,-1,37
 333 563 333 563 259 563 c 0,38,39
 211 563 211 563 183 539.5 c 128,-1,40
 155 516 155 516 155 475 c 0,41,42
 155 433 155 433 187 403 c 128,-1,43
 219 373 219 373 279 338 c 0,30,31
150 169 m 0,44,45
 150 123 150 123 182.5 90 c 128,-1,46
 215 57 215 57 270 57 c 0,47,48
 308 57 308 57 344 80.5 c 128,-1,49
 380 104 380 104 400 170 c 1,50,51
 372 193 372 193 341 212 c 128,-1,52
 310 231 310 231 275 251 c 0,53,54
 259 260 259 260 243 269.5 c 128,-1,55
 227 279 227 279 211 289 c 1,56,57
 185 265 185 265 167.5 234.5 c 128,-1,58
 150 204 150 204 150 169 c 0,44,45
EndSplineSet
EndChar

StartChar: seven_chakma
Encoding: 69949 69949 107
Width: 548
Flags: W
LayerCount: 2
Fore
SplineSet
127 24 m 1,0,1
 193 85 193 85 256.5 158.5 c 128,-1,2
 320 232 320 232 358 306 c 1,3,4
 335 293 335 293 307.5 285.5 c 128,-1,5
 280 278 280 278 248 278 c 0,6,7
 198 278 198 278 155 297 c 128,-1,8
 112 316 112 316 86 352 c 128,-1,9
 60 388 60 388 60 438 c 0,10,11
 60 496 60 496 91 539 c 128,-1,12
 122 582 122 582 174.5 606.5 c 128,-1,13
 227 631 227 631 290 631 c 0,14,15
 347 631 347 631 391.5 609 c 128,-1,16
 436 587 436 587 462 546 c 128,-1,17
 488 505 488 505 488 448 c 0,18,19
 488 390 488 390 460.5 328 c 128,-1,20
 433 266 433 266 387.5 204.5 c 128,-1,21
 342 143 342 143 287 85.5 c 128,-1,22
 232 28 232 28 177 -20 c 1,23,-1
 127 24 l 1,0,1
150 446 m 0,24,25
 150 399 150 399 180.5 372 c 128,-1,26
 211 345 211 345 260 345 c 0,27,28
 303 345 303 345 338 365 c 128,-1,29
 373 385 373 385 396 416 c 1,30,31
 398 431 398 431 398 445 c 0,32,33
 398 505 398 505 364 534.5 c 128,-1,34
 330 564 330 564 280 564 c 0,35,36
 225 564 225 564 187.5 531.5 c 128,-1,37
 150 499 150 499 150 446 c 0,24,25
EndSplineSet
EndChar

StartChar: eight_chakma
Encoding: 69950 69950 108
Width: 649
Flags: W
LayerCount: 2
Fore
SplineSet
599 516 m 1,0,1
 591 420 591 420 543.5 374.5 c 128,-1,2
 496 329 496 329 412 318 c 1,3,4
 456 286 456 286 473 248 c 128,-1,5
 490 210 490 210 490 171 c 0,6,7
 490 117 490 117 464.5 76.5 c 128,-1,8
 439 36 439 36 394.5 13 c 128,-1,9
 350 -10 350 -10 293 -10 c 0,10,11
 228 -10 228 -10 175 24 c 128,-1,12
 122 58 122 58 91 122.5 c 128,-1,13
 60 187 60 187 60 279 c 0,14,15
 60 332 60 332 70.5 394 c 128,-1,16
 81 456 81 456 102 517 c 128,-1,17
 123 578 123 578 154 628 c 1,18,-1
 226 610 l 1,19,20
 204 564 204 564 186.5 506 c 128,-1,21
 169 448 169 448 159.5 389.5 c 128,-1,22
 150 331 150 331 150 285 c 0,23,24
 150 210 150 210 170.5 159 c 128,-1,25
 191 108 191 108 224.5 82.5 c 128,-1,26
 258 57 258 57 297 57 c 0,27,28
 342 57 342 57 371 89 c 128,-1,29
 400 121 400 121 400 171 c 0,30,31
 400 233 400 233 355 271.5 c 128,-1,32
 310 310 310 310 235 318 c 1,33,-1
 235 385 l 1,34,35
 307 380 307 380 366 383 c 128,-1,36
 425 386 425 386 463.5 410 c 128,-1,37
 502 434 502 434 510 491 c 1,38,-1
 599 516 l 1,0,1
EndSplineSet
EndChar

StartChar: nine_chakma
Encoding: 69951 69951 109
Width: 993
Flags: W
LayerCount: 2
Fore
SplineSet
287 622 m 0,0,1
 348 622 348 622 395 586.5 c 128,-1,2
 442 551 442 551 472 494 c 1,3,-1
 601 494 l 1,4,5
 617 556 617 556 658.5 589 c 128,-1,6
 700 622 700 622 752 622 c 0,7,8
 773 622 773 622 799 613.5 c 128,-1,9
 825 605 825 605 849 583 c 128,-1,10
 873 561 873 561 889 520 c 128,-1,11
 905 479 905 479 905 414 c 0,12,13
 905 342 905 342 888 267 c 128,-1,14
 871 192 871 192 840 132 c 1,15,16
 873 106 873 106 905.5 87.5 c 128,-1,17
 938 69 938 69 963 57 c 1,18,-1
 932 -20 l 1,19,20
 894 -6 894 -6 859 14.5 c 128,-1,21
 824 35 824 35 792 61 c 1,22,23
 766 33 766 33 736 16.5 c 128,-1,24
 706 0 706 0 672 0 c 0,25,26
 637 0 637 0 598 22 c 128,-1,27
 559 44 559 44 538 102 c 1,28,-1
 462 102 l 1,29,30
 432 52 432 52 387.5 21 c 128,-1,31
 343 -10 343 -10 287 -10 c 0,32,33
 235 -10 235 -10 193 16.5 c 128,-1,34
 151 43 151 43 121 88.5 c 128,-1,35
 91 134 91 134 75.5 190.5 c 128,-1,36
 60 247 60 247 60 307 c 256,37,38
 60 367 60 367 75.5 423.5 c 128,-1,39
 91 480 91 480 121 524.5 c 128,-1,40
 151 569 151 569 192.5 595.5 c 128,-1,41
 234 622 234 622 287 622 c 0,0,1
684 423 m 0,42,43
 684 349 684 349 711.5 290.5 c 128,-1,44
 739 232 739 232 779 188 c 1,45,46
 792 228 792 228 800 271 c 128,-1,47
 808 314 808 314 811.5 353.5 c 128,-1,48
 815 393 815 393 815 421 c 0,49,50
 815 472 815 472 805 501.5 c 128,-1,51
 795 531 795 531 780 543 c 128,-1,52
 765 555 765 555 750 555 c 0,53,54
 722 555 722 555 703 519.5 c 128,-1,55
 684 484 684 484 684 423 c 0,42,43
287 555 m 0,56,57
 220 555 220 555 185 486.5 c 128,-1,58
 150 418 150 418 150 307 c 0,59,60
 150 233 150 233 165.5 176.5 c 128,-1,61
 181 120 181 120 211.5 88.5 c 128,-1,62
 242 57 242 57 287 57 c 256,63,64
 332 57 332 57 363 88.5 c 128,-1,65
 394 120 394 120 409.5 176.5 c 128,-1,66
 425 233 425 233 425 307 c 0,67,68
 425 418 425 418 390 486.5 c 128,-1,69
 355 555 355 555 287 555 c 0,56,57
591 169 m 1,70,71
 598 112 598 112 623 89.5 c 128,-1,72
 648 67 648 67 673 67 c 0,73,74
 693 67 693 67 710 78 c 128,-1,75
 727 89 727 89 740 108 c 1,76,77
 674 177 674 177 634 262 c 128,-1,78
 594 347 594 347 594 427 c 1,79,-1
 498 427 l 1,80,81
 515 369 515 369 515 307 c 0,82,83
 515 235 515 235 493 169 c 1,84,-1
 591 169 l 1,70,71
EndSplineSet
EndChar

StartChar: section_chakma
Encoding: 69952 69952 110
Width: 667
Flags: W
LayerCount: 2
Fore
SplineSet
333 361 m 0,0,1
 284 361 284 361 253 394.5 c 128,-1,2
 222 428 222 428 222 486 c 256,3,4
 222 544 222 544 253 574.5 c 128,-1,5
 284 605 284 605 333 605 c 0,6,7
 383 605 383 605 411.5 574.5 c 128,-1,8
 440 544 440 544 440 486 c 256,9,10
 440 428 440 428 411.5 394.5 c 128,-1,11
 383 361 383 361 333 361 c 0,0,1
332 421 m 0,12,13
 355 421 355 421 368 439.5 c 128,-1,14
 381 458 381 458 381 486 c 0,15,16
 381 515 381 515 368 530 c 128,-1,17
 355 545 355 545 332 545 c 0,18,19
 310 545 310 545 295.5 530 c 128,-1,20
 281 515 281 515 281 486 c 0,21,22
 281 458 281 458 295.5 439.5 c 128,-1,23
 310 421 310 421 332 421 c 0,12,13
520 165 m 0,24,25
 471 165 471 165 440 198.5 c 128,-1,26
 409 232 409 232 409 290 c 256,27,28
 409 348 409 348 440 378.5 c 128,-1,29
 471 409 471 409 520 409 c 0,30,31
 570 409 570 409 598.5 378.5 c 128,-1,32
 627 348 627 348 627 290 c 256,33,34
 627 232 627 232 598.5 198.5 c 128,-1,35
 570 165 570 165 520 165 c 0,24,25
151 165 m 0,36,37
 102 165 102 165 71 198.5 c 128,-1,38
 40 232 40 232 40 290 c 256,39,40
 40 348 40 348 71 378.5 c 128,-1,41
 102 409 102 409 151 409 c 0,42,43
 201 409 201 409 229.5 378.5 c 128,-1,44
 258 348 258 348 258 290 c 256,45,46
 258 232 258 232 229.5 198.5 c 128,-1,47
 201 165 201 165 151 165 c 0,36,37
519 225 m 0,48,49
 542 225 542 225 555 243.5 c 128,-1,50
 568 262 568 262 568 290 c 0,51,52
 568 319 568 319 555 334 c 128,-1,53
 542 349 542 349 519 349 c 0,54,55
 497 349 497 349 482.5 334 c 128,-1,56
 468 319 468 319 468 290 c 0,57,58
 468 262 468 262 482.5 243.5 c 128,-1,59
 497 225 497 225 519 225 c 0,48,49
150 225 m 0,60,61
 173 225 173 225 186 243.5 c 128,-1,62
 199 262 199 262 199 290 c 0,63,64
 199 319 199 319 186 334 c 128,-1,65
 173 349 173 349 150 349 c 0,66,67
 128 349 128 349 113.5 334 c 128,-1,68
 99 319 99 319 99 290 c 0,69,70
 99 262 99 262 113.5 243.5 c 128,-1,71
 128 225 128 225 150 225 c 0,60,61
333 -30 m 0,72,73
 284 -30 284 -30 253 3.5 c 128,-1,74
 222 37 222 37 222 95 c 256,75,76
 222 153 222 153 253 183.5 c 128,-1,77
 284 214 284 214 333 214 c 0,78,79
 383 214 383 214 411.5 183.5 c 128,-1,80
 440 153 440 153 440 95 c 256,81,82
 440 37 440 37 411.5 3.5 c 128,-1,83
 383 -30 383 -30 333 -30 c 0,72,73
332 30 m 0,84,85
 355 30 355 30 368 48.5 c 128,-1,86
 381 67 381 67 381 95 c 0,87,88
 381 124 381 124 368 139 c 128,-1,89
 355 154 355 154 332 154 c 0,90,91
 310 154 310 154 295.5 139 c 128,-1,92
 281 124 281 124 281 95 c 0,93,94
 281 67 281 67 295.5 48.5 c 128,-1,95
 310 30 310 30 332 30 c 0,84,85
EndSplineSet
Substitution2: "'ss02' Style Set 2 lookup 16 subtable" section_chakma.alt
Substitution2: "'ss01' Style Set 1 lookup 15 subtable" section_chakma.alt
EndChar

StartChar: danda_chakma
Encoding: 69953 69953 111
Width: 290
Flags: W
LayerCount: 2
Fore
SplineSet
130 545 m 1,0,-1
 220 545 l 1,1,-1
 220 0 l 1,2,-1
 130 0 l 1,3,-1
 130 545 l 1,0,-1
EndSplineSet
EndChar

StartChar: question_chakma
Encoding: 69955 69955 113
Width: 384
Flags: W
LayerCount: 2
Fore
SplineSet
62 -10 m 1,0,-1
 62 246 l 1,1,-1
 152 246 l 1,2,3
 159 240 159 240 168.5 235 c 128,-1,4
 178 230 178 230 190 230 c 0,5,6
 214 230 214 230 233 254 c 128,-1,7
 252 278 252 278 252 330 c 0,8,9
 252 380 252 380 234.5 397.5 c 128,-1,10
 217 415 217 415 194 415 c 0,11,12
 177 415 177 415 167 406.5 c 128,-1,13
 157 398 157 398 152 386 c 1,14,-1
 62 386 l 1,15,-1
 62 620 l 1,16,-1
 152 620 l 1,17,-1
 152 473 l 1,18,19
 176 481 176 481 203 481 c 0,20,21
 265 481 265 481 303.5 441 c 128,-1,22
 342 401 342 401 342 329 c 0,23,24
 342 282 342 282 324.5 242.5 c 128,-1,25
 307 203 307 203 274.5 180 c 128,-1,26
 242 157 242 157 197 157 c 0,27,28
 174 157 174 157 152 164 c 1,29,-1
 152 -10 l 1,30,-1
 62 -10 l 1,0,-1
EndSplineSet
EndChar

StartChar: lhaa_chakma
Encoding: 69956 69956 114
Width: 1091
Flags: W
LayerCount: 2
Fore
SplineSet
317 550 m 0,0,1
 387 550 387 550 441 521.5 c 128,-1,2
 495 493 495 493 528 444 c 1,3,-1
 710 444 l 1,4,5
 730 495 730 495 767.5 522.5 c 128,-1,6
 805 550 805 550 845 550 c 0,7,8
 879 550 879 550 912 528.5 c 128,-1,9
 945 507 945 507 967 462 c 128,-1,10
 989 417 989 417 989 345 c 0,11,12
 989 280 989 280 968.5 215.5 c 128,-1,13
 948 151 948 151 914 100 c 1,14,15
 952 72 952 72 989.5 54.5 c 128,-1,16
 1027 37 1027 37 1053 27 c 1,17,-1
 1022 -50 l 1,18,19
 977 -34 977 -34 937 -11.5 c 128,-1,20
 897 11 897 11 862 39 c 1,21,22
 836 16 836 16 807.5 3 c 128,-1,23
 779 -10 779 -10 749 -10 c 0,24,25
 709 -10 709 -10 677.5 11.5 c 128,-1,26
 646 33 646 33 626.5 66 c 128,-1,27
 607 99 607 99 601 132 c 1,28,-1
 548 132 l 1,29,30
 518 67 518 67 458.5 28.5 c 128,-1,31
 399 -10 399 -10 317 -10 c 0,32,33
 237 -10 237 -10 179.5 27 c 128,-1,34
 122 64 122 64 91 127.5 c 128,-1,35
 60 191 60 191 60 271 c 256,36,37
 60 351 60 351 91 414 c 128,-1,38
 122 477 122 477 179.5 513.5 c 128,-1,39
 237 550 237 550 317 550 c 0,0,1
784 352 m 0,40,41
 784 287 784 287 805.5 237.5 c 128,-1,42
 827 188 827 188 859 151 c 1,43,44
 878 192 878 192 888.5 241.5 c 128,-1,45
 899 291 899 291 899 340 c 0,46,47
 899 399 899 399 883 441 c 128,-1,48
 867 483 867 483 841 483 c 0,49,50
 816 483 816 483 800 446.5 c 128,-1,51
 784 410 784 410 784 352 c 0,40,41
317 57 m 256,52,53
 370 57 370 57 408.5 85.5 c 128,-1,54
 447 114 447 114 467.5 162.5 c 128,-1,55
 488 211 488 211 488 271 c 256,56,57
 488 331 488 331 467.5 379 c 128,-1,58
 447 427 447 427 408.5 455 c 128,-1,59
 370 483 370 483 317 483 c 256,60,61
 264 483 264 483 226.5 455 c 128,-1,62
 189 427 189 427 169.5 379 c 128,-1,63
 150 331 150 331 150 271 c 256,64,65
 150 211 150 211 169.5 162.5 c 128,-1,66
 189 114 189 114 226.5 85.5 c 128,-1,67
 264 57 264 57 317 57 c 256,52,53
664 199 m 1,68,69
 661 165 661 165 671 132 c 128,-1,70
 681 99 681 99 702.5 78 c 128,-1,71
 724 57 724 57 753 57 c 0,72,73
 785 57 785 57 813 84 c 1,74,75
 757 142 757 142 725.5 212 c 128,-1,76
 694 282 694 282 694 353 c 0,77,78
 694 365 694 365 695 377 c 1,79,-1
 561 377 l 1,80,81
 578 328 578 328 578 271 c 0,82,83
 578 234 578 234 571 199 c 1,84,-1
 664 199 l 1,68,69
EndSplineSet
EndChar

StartChar: aaMatra_chakma
Encoding: 69957 69957 115
Width: 0
GlyphClass: 4
Flags: W
AnchorPoint: "+BBEENQQ3BEsEPARPBD0EPQQ+BDUA--7" -79 382 mark 0
AnchorPoint: "+BBEENQQ3BEsEPARPBD0EPQQ+BDUA--2" -79 382 mark 0
LayerCount: 2
Fore
SplineSet
307 24 m 1,0,1
 295 8 295 8 268.5 -12 c 128,-1,2
 242 -32 242 -32 200 -32 c 0,3,4
 166 -32 166 -32 138.5 -14.5 c 128,-1,5
 111 3 111 3 95.5 43.5 c 128,-1,6
 80 84 80 84 80 152 c 2,7,-1
 80 424 l 2,8,9
 80 469 80 469 72 485.5 c 128,-1,10
 64 502 64 502 46 502 c 0,11,12
 24 502 24 502 -2.5 485 c 128,-1,13
 -29 468 -29 468 -54 442 c 128,-1,14
 -79 416 -79 416 -98 388 c 1,15,-1
 -146 436 l 1,16,17
 -98 501 -98 501 -44 535.5 c 128,-1,18
 10 570 10 570 65 570 c 0,19,20
 95 570 95 570 118.5 558 c 128,-1,21
 142 546 142 546 156 514.5 c 128,-1,22
 170 483 170 483 170 426 c 2,23,-1
 170 248 l 2,24,25
 170 130 170 130 180 82.5 c 128,-1,26
 190 35 190 35 218 35 c 0,27,28
 233 35 233 35 248 45.5 c 128,-1,29
 263 56 263 56 273 66 c 1,30,-1
 307 24 l 1,0,1
EndSplineSet
Ligature2: "'pstf' Post Base Forms lookup 1 subtable" virama_chakma aa_chakma
EndChar

StartChar: eiMatra_chakma
Encoding: 69958 69958 116
Width: 0
GlyphClass: 4
Flags: W
AnchorPoint: "+BBEENQQ3BEsEPARPBD0EPQQ+BDUA--7" -121 382 mark 0
AnchorPoint: "+BBEENQQ3BEsEPARPBD0EPQQ+BDUA--2" -121 382 mark 0
LayerCount: 2
Fore
SplineSet
466 656 m 1,0,1
 413 590 413 590 381 501.5 c 128,-1,2
 349 413 349 413 335.5 316 c 128,-1,3
 322 219 322 219 322 128 c 1,4,-1
 245 128 l 1,5,6
 245 181 245 181 233 220 c 128,-1,7
 221 259 221 259 199 282 c 1,8,9
 189 248 189 248 169 218.5 c 128,-1,10
 149 189 149 189 122 171 c 128,-1,11
 95 153 95 153 64 153 c 0,12,13
 24 153 24 153 -4.5 182.5 c 128,-1,14
 -33 212 -33 212 -33 253 c 0,15,16
 -33 286 -33 286 -13.5 315 c 128,-1,17
 6 344 6 344 38.5 363 c 128,-1,18
 71 382 71 382 110 384 c 1,19,20
 96 406 96 406 73 416.5 c 128,-1,21
 50 427 50 427 24 427 c 0,22,23
 -20 427 -20 427 -64 399 c 128,-1,24
 -108 371 -108 371 -146 319 c 1,25,-1
 -146 382 l 1,26,27
 -116 426 -116 426 -68.5 457.5 c 128,-1,28
 -21 489 -21 489 43 489 c 0,29,30
 106 489 106 489 152.5 455.5 c 128,-1,31
 199 422 199 422 207 361 c 1,32,33
 230 348 230 348 253 326 c 1,34,35
 268 425 268 425 305.5 521 c 128,-1,36
 343 617 343 617 398 691 c 1,37,-1
 466 656 l 1,0,1
41 253 m 0,38,39
 41 234 41 234 50.5 227 c 128,-1,40
 60 220 60 220 70 220 c 0,41,42
 88 220 88 220 100.5 235 c 128,-1,43
 113 250 113 250 119.5 272.5 c 128,-1,44
 126 295 126 295 126 317 c 1,45,46
 123 317 123 317 120 317 c 0,47,48
 85 317 85 317 63 299 c 128,-1,49
 41 281 41 281 41 253 c 0,38,39
EndSplineSet
Ligature2: "'pstf' Post Base Forms lookup 1 subtable" virama_chakma i_chakma
EndChar

StartChar: u_chakma.below
Encoding: 1114152 -1 117
Width: 0
GlyphClass: 4
Flags: W
AnchorPoint: "+BBEENQQ3BEsEPARPBD0EPQQ+BDUA--10" -227 -365 basemark 0
AnchorPoint: "+BBEENQQ3BEsEPARPBD0EPQQ+BDUA--10" -180 0 mark 0
AnchorPoint: "+BBEENQQ3BEsEPARPBD0EPQQ+BDUA--4" -180 0 mark 0
LayerCount: 2
Fore
SplineSet
-44 -224 m 1,0,1
 -44 -248 -44 -248 -51 -273 c 128,-1,2
 -58 -298 -58 -298 -77.5 -318.5 c 128,-1,3
 -97 -339 -97 -339 -133 -352 c 128,-1,4
 -169 -365 -169 -365 -227 -365 c 0,5,6
 -268 -365 -268 -365 -306.5 -356.5 c 128,-1,7
 -345 -348 -345 -348 -369 -328 c 128,-1,8
 -393 -308 -393 -308 -393 -275 c 0,9,10
 -393 -241 -393 -241 -368.5 -221 c 128,-1,11
 -344 -201 -344 -201 -305.5 -187.5 c 128,-1,12
 -267 -174 -267 -174 -224 -161 c 0,13,14
 -174 -145 -174 -145 -153 -134 c 128,-1,15
 -132 -123 -132 -123 -132 -102 c 0,16,17
 -132 -80 -132 -80 -152 -70 c 128,-1,18
 -172 -60 -172 -60 -207 -60 c 0,19,20
 -246 -60 -246 -60 -267 -71 c 128,-1,21
 -288 -82 -288 -82 -296 -97 c 128,-1,22
 -304 -112 -304 -112 -306 -124 c 1,23,-1
 -383 -136 l 1,24,25
 -383 -75 -383 -75 -338.5 -37.5 c 128,-1,26
 -294 0 -294 0 -206 0 c 0,27,28
 -167 0 -167 0 -131 -9.5 c 128,-1,29
 -95 -19 -95 -19 -72.5 -39.5 c 128,-1,30
 -50 -60 -50 -60 -50 -95 c 0,31,32
 -50 -131 -50 -131 -75.5 -154 c 128,-1,33
 -101 -177 -101 -177 -139.5 -190.5 c 128,-1,34
 -178 -204 -178 -204 -218 -215 c 0,35,36
 -264 -227 -264 -227 -287.5 -236.5 c 128,-1,37
 -311 -246 -311 -246 -311 -266 c 0,38,39
 -311 -282 -311 -282 -298.5 -290.5 c 128,-1,40
 -286 -299 -286 -299 -267.5 -302 c 128,-1,41
 -249 -305 -249 -305 -233 -305 c 0,42,43
 -191 -305 -191 -305 -169 -293 c 128,-1,44
 -147 -281 -147 -281 -138.5 -266 c 128,-1,45
 -130 -251 -130 -251 -128 -243 c 1,46,-1
 -44 -224 l 1,0,1
EndSplineSet
Ligature2: "'blwf' Below Base Forms lookup 0 subtable" virama_chakma u_chakma
EndChar

StartChar: e_chakma.below
Encoding: 1114153 -1 118
Width: 0
GlyphClass: 4
Flags: W
AnchorPoint: "+BBEENQQ3BEsEPARPBD0EPQQ+BDUA--7" -98 382 mark 0
AnchorPoint: "+BBEENQQ3BEsEPARPBD0EPQQ+BDUA--2" -98 382 mark 0
LayerCount: 2
Fore
SplineSet
184 738 m 1,0,1
 215 706 215 706 231.5 671.5 c 128,-1,2
 248 637 248 637 248 584 c 0,3,4
 248 538 248 538 228 495 c 128,-1,5
 208 452 208 452 180 415 c 1,6,7
 198 392 198 392 208.5 362 c 128,-1,8
 219 332 219 332 219 293 c 0,9,10
 219 255 219 255 205.5 220.5 c 128,-1,11
 192 186 192 186 165.5 164 c 128,-1,12
 139 142 139 142 98 142 c 0,13,14
 76 142 76 142 52.5 150.5 c 128,-1,15
 29 159 29 159 12.5 180 c 128,-1,16
 -4 201 -4 201 -4 236 c 0,17,18
 -4 279 -4 279 21.5 317 c 128,-1,19
 47 355 47 355 81 395 c 1,20,21
 58 409 58 409 29 409 c 0,22,23
 -2 409 -2 409 -40.5 390.5 c 128,-1,24
 -79 372 -79 372 -121 323 c 1,25,-1
 -121 395 l 1,26,27
 -43 476 -43 476 49 476 c 0,28,29
 93 476 93 476 130 456 c 1,30,31
 151 483 151 483 163.5 513 c 128,-1,32
 176 543 176 543 176 574 c 0,33,34
 176 620 176 620 162.5 647 c 128,-1,35
 149 674 149 674 138 683 c 1,36,-1
 184 738 l 1,0,1
78 240 m 0,37,38
 78 221 78 221 84.5 212 c 128,-1,39
 91 203 91 203 101 203 c 0,40,41
 115 203 115 203 125.5 220.5 c 128,-1,42
 136 238 136 238 136 277 c 0,43,44
 136 313 136 313 124 343 c 1,45,46
 105 318 105 318 91.5 292.5 c 128,-1,47
 78 267 78 267 78 240 c 0,37,38
EndSplineSet
Ligature2: "'pstf' Post Base Forms lookup 1 subtable" virama_chakma e_chakma
EndChar

StartChar: kaa_chakma.below
Encoding: 1114154 -1 119
Width: 0
GlyphClass: 4
Flags: W
AnchorPoint: "+BBEENQQ3BEsEPARPBD0EPQQ+BDUA--3" -234 0 mark 0
LayerCount: 2
Fore
SplineSet
-451 -362 m 1,0,1
 -490 -331 -490 -331 -519 -280.5 c 128,-1,2
 -548 -230 -548 -230 -548 -175 c 0,3,4
 -548 -127 -548 -127 -525.5 -87 c 128,-1,5
 -503 -47 -503 -47 -465.5 -23.5 c 128,-1,6
 -428 0 -428 0 -382 0 c 0,7,8
 -339 0 -339 0 -297 -23.5 c 128,-1,9
 -255 -47 -255 -47 -234 -94 c 1,10,11
 -212 -43 -212 -43 -172 -21.5 c 128,-1,12
 -132 0 -132 0 -91 0 c 0,13,14
 -44 0 -44 0 -5.5 -23 c 128,-1,15
 33 -46 33 -46 56.5 -85.5 c 128,-1,16
 80 -125 80 -125 80 -172 c 0,17,18
 80 -225 80 -225 51.5 -277.5 c 128,-1,19
 23 -330 23 -330 -17 -362 c 1,20,-1
 -70 -323 l 1,21,22
 -40 -296 -40 -296 -21 -258 c 128,-1,23
 -2 -220 -2 -220 -2 -178 c 0,24,25
 -2 -126 -2 -126 -30 -93 c 128,-1,26
 -58 -60 -58 -60 -100 -60 c 0,27,28
 -141 -60 -141 -60 -167.5 -93 c 128,-1,29
 -194 -126 -194 -126 -194 -187 c 1,30,-1
 -276 -187 l 1,31,32
 -276 -124 -276 -124 -303.5 -92 c 128,-1,33
 -331 -60 -331 -60 -372 -60 c 0,34,35
 -414 -60 -414 -60 -440 -91.5 c 128,-1,36
 -466 -123 -466 -123 -466 -175 c 0,37,38
 -466 -218 -466 -218 -447.5 -257 c 128,-1,39
 -429 -296 -429 -296 -399 -323 c 1,40,-1
 -451 -362 l 1,0,1
EndSplineSet
Ligature2: "'blwf' Below Base Forms lookup 0 subtable" virama_chakma kaa_chakma
EndChar

StartChar: khaa_chakma.below
Encoding: 1114155 -1 120
Width: 0
GlyphClass: 4
Flags: W
AnchorPoint: "+BBEENQQ3BEsEPARPBD0EPQQ+BDUA--3" -227 0 mark 0
LayerCount: 2
Fore
SplineSet
-18 -178 m 0,0,1
 -18 -221 -18 -221 -34.5 -261.5 c 128,-1,2
 -51 -302 -51 -302 -79.5 -327.5 c 128,-1,3
 -108 -353 -108 -353 -145 -353 c 256,4,5
 -182 -353 -182 -353 -207 -329 c 128,-1,6
 -232 -305 -232 -305 -232 -268 c 0,7,8
 -232 -222 -232 -222 -199 -195 c 128,-1,9
 -166 -168 -166 -168 -123 -168 c 0,10,11
 -113 -168 -113 -168 -103 -170 c 1,12,13
 -113 -118 -113 -118 -147.5 -89.5 c 128,-1,14
 -182 -61 -182 -61 -227 -61 c 0,15,16
 -261 -61 -261 -61 -290 -77 c 128,-1,17
 -319 -93 -319 -93 -336.5 -121.5 c 128,-1,18
 -354 -150 -354 -150 -354 -186 c 0,19,20
 -354 -223 -354 -223 -336 -255.5 c 128,-1,21
 -318 -288 -318 -288 -288 -313 c 1,22,-1
 -339 -352 l 1,23,24
 -378 -326 -378 -326 -407 -283.5 c 128,-1,25
 -436 -241 -436 -241 -436 -183 c 0,26,27
 -436 -129 -436 -129 -409.5 -88 c 128,-1,28
 -383 -47 -383 -47 -335.5 -24 c 128,-1,29
 -288 -1 -288 -1 -226 -1 c 0,30,31
 -171 -1 -171 -1 -123.5 -21 c 128,-1,32
 -76 -41 -76 -41 -47 -80.5 c 128,-1,33
 -18 -120 -18 -120 -18 -178 c 0,0,1
-170 -266 m 0,34,35
 -170 -283 -170 -283 -163 -295.5 c 128,-1,36
 -156 -308 -156 -308 -143 -308 c 0,37,38
 -129 -308 -129 -308 -120 -293.5 c 128,-1,39
 -111 -279 -111 -279 -106 -257.5 c 128,-1,40
 -101 -236 -101 -236 -100 -216 c 1,41,42
 -109 -214 -109 -214 -117 -214 c 0,43,44
 -141 -214 -141 -214 -155.5 -227.5 c 128,-1,45
 -170 -241 -170 -241 -170 -266 c 0,34,35
EndSplineSet
Ligature2: "'blwf' Below Base Forms lookup 0 subtable" virama_chakma khaa_chakma
EndChar

StartChar: gaa_chakma.below
Encoding: 1114156 -1 121
Width: 0
GlyphClass: 4
Flags: W
AnchorPoint: "+BBEENQQ3BEsEPARPBD0EPQQ+BDUA--3" -225 0 mark 0
LayerCount: 2
Fore
SplineSet
-337 -352 m 1,0,1
 -376 -326 -376 -326 -405 -286 c 128,-1,2
 -434 -246 -434 -246 -434 -190 c 0,3,4
 -434 -138 -434 -138 -407.5 -95 c 128,-1,5
 -381 -52 -381 -52 -334 -26 c 128,-1,6
 -287 0 -287 0 -225 0 c 256,7,8
 -163 0 -163 0 -116 -26 c 128,-1,9
 -69 -52 -69 -52 -42.5 -95 c 128,-1,10
 -16 -138 -16 -138 -16 -190 c 0,11,12
 -16 -246 -16 -246 -41 -286 c 128,-1,13
 -66 -326 -66 -326 -105 -352 c 1,14,-1
 -164 -313 l 1,15,16
 -134 -288 -134 -288 -116 -256.5 c 128,-1,17
 -98 -225 -98 -225 -98 -187 c 256,18,19
 -98 -149 -98 -149 -116 -120.5 c 128,-1,20
 -134 -92 -134 -92 -163 -76 c 128,-1,21
 -192 -60 -192 -60 -225 -60 c 256,22,23
 -258 -60 -258 -60 -287 -76 c 128,-1,24
 -316 -92 -316 -92 -334 -120.5 c 128,-1,25
 -352 -149 -352 -149 -352 -187 c 256,26,27
 -352 -225 -352 -225 -334 -256.5 c 128,-1,28
 -316 -288 -316 -288 -286 -313 c 1,29,-1
 -337 -352 l 1,0,1
EndSplineSet
Ligature2: "'blwf' Below Base Forms lookup 0 subtable" virama_chakma gaa_chakma
EndChar

StartChar: ghaa_chakma.below
Encoding: 1114157 -1 122
Width: 0
GlyphClass: 4
Flags: W
AnchorPoint: "+BBEENQQ3BEsEPARPBD0EPQQ+BDUA--3" -292 0 mark 0
LayerCount: 2
Fore
SplineSet
-146 -352 m 0,0,1
 -192 -352 -192 -352 -226.5 -337 c 128,-1,2
 -261 -322 -261 -322 -290 -297 c 1,3,4
 -357 -351 -357 -351 -461 -351 c 0,5,6
 -522 -351 -522 -351 -569 -335 c 128,-1,7
 -616 -319 -616 -319 -640 -307 c 1,8,-1
 -619 -256 l 1,9,10
 -590 -238 -590 -238 -566.5 -222 c 128,-1,11
 -543 -206 -543 -206 -529 -185 c 128,-1,12
 -515 -164 -515 -164 -515 -133 c 256,13,14
 -515 -102 -515 -102 -530 -84.5 c 128,-1,15
 -545 -67 -545 -67 -575 -67 c 0,16,17
 -596 -67 -596 -67 -620 -76 c 1,18,-1
 -620 -22 l 1,19,20
 -603 -16 -603 -16 -588 -13.5 c 128,-1,21
 -573 -11 -573 -11 -558 -11 c 0,22,23
 -499 -11 -499 -11 -466.5 -43.5 c 128,-1,24
 -434 -76 -434 -76 -434 -129 c 0,25,26
 -434 -216 -434 -216 -531 -276 c 1,27,28
 -518 -282 -518 -282 -500 -286.5 c 128,-1,29
 -482 -291 -482 -291 -458 -291 c 0,30,31
 -392 -291 -392 -291 -347 -254.5 c 128,-1,32
 -302 -218 -302 -218 -302 -150 c 0,33,34
 -302 -118 -302 -118 -314 -88 c 128,-1,35
 -326 -58 -326 -58 -353 -25 c 1,36,-1
 -276 -10 l 1,37,38
 -247 -39 -247 -39 -233.5 -76 c 128,-1,39
 -220 -113 -220 -113 -220 -151 c 0,40,41
 -220 -208 -220 -208 -249 -253 c 1,42,43
 -234 -267 -234 -267 -209 -279.5 c 128,-1,44
 -184 -292 -184 -292 -148 -292 c 0,45,46
 -94 -292 -94 -292 -60 -257 c 128,-1,47
 -26 -222 -26 -222 -26 -167 c 0,48,49
 -26 -114 -26 -114 -53.5 -84.5 c 128,-1,50
 -81 -55 -81 -55 -116 -50 c 1,51,-1
 -116 10 l 1,52,53
 -68 10 -68 10 -29 -12.5 c 128,-1,54
 10 -35 10 -35 33 -74 c 128,-1,55
 56 -113 56 -113 56 -163 c 0,56,57
 56 -212 56 -212 32.5 -255.5 c 128,-1,58
 9 -299 9 -299 -36 -325.5 c 128,-1,59
 -81 -352 -81 -352 -146 -352 c 0,0,1
EndSplineSet
Ligature2: "'blwf' Below Base Forms lookup 0 subtable" virama_chakma ghaa_chakma
EndChar

StartChar: ngaa_chakma.below
Encoding: 1114158 -1 123
Width: 0
GlyphClass: 4
Flags: W
AnchorPoint: "+BBEENQQ3BEsEPARPBD0EPQQ+BDUA--3" -190 0 mark 0
LayerCount: 2
Fore
SplineSet
-12 -247 m 1,0,1
 -24 -271 -24 -271 -43.5 -298 c 128,-1,2
 -63 -325 -63 -325 -98 -344.5 c 128,-1,3
 -133 -364 -133 -364 -194 -364 c 0,4,5
 -272 -364 -272 -364 -317.5 -331.5 c 128,-1,6
 -363 -299 -363 -299 -363 -252 c 0,7,8
 -363 -227 -363 -227 -349.5 -205 c 128,-1,9
 -336 -183 -336 -183 -308 -173 c 1,10,11
 -334 -159 -334 -159 -343.5 -140.5 c 128,-1,12
 -353 -122 -353 -122 -353 -104 c 0,13,14
 -353 -59 -353 -59 -310 -30 c 128,-1,15
 -267 -1 -267 -1 -191 -1 c 0,16,17
 -143 -1 -143 -1 -111.5 -12 c 128,-1,18
 -80 -23 -80 -23 -59.5 -39.5 c 128,-1,19
 -39 -56 -39 -56 -25 -74 c 1,20,-1
 -71 -102 l 1,21,22
 -81 -88 -81 -88 -105 -73.5 c 128,-1,23
 -129 -59 -129 -59 -179 -59 c 0,24,25
 -221 -59 -221 -59 -246 -71.5 c 128,-1,26
 -271 -84 -271 -84 -271 -108 c 0,27,28
 -271 -130 -271 -130 -250.5 -140.5 c 128,-1,29
 -230 -151 -230 -151 -204 -151 c 2,30,-1
 -191 -151 l 1,31,-1
 -191 -195 l 1,32,-1
 -207 -195 l 2,33,34
 -247 -195 -247 -195 -264.5 -209.5 c 128,-1,35
 -282 -224 -282 -224 -282 -247 c 0,36,37
 -282 -278 -282 -278 -255.5 -291 c 128,-1,38
 -229 -304 -229 -304 -190 -304 c 0,39,40
 -140 -304 -140 -304 -110.5 -285.5 c 128,-1,41
 -81 -267 -81 -267 -68 -239 c 1,42,-1
 -12 -247 l 1,0,1
EndSplineSet
Ligature2: "'blwf' Below Base Forms lookup 0 subtable" virama_chakma ngaa_chakma
EndChar

StartChar: caa_chakma.below
Encoding: 1114159 -1 124
Width: 0
GlyphClass: 4
Flags: W
AnchorPoint: "+BBEENQQ3BEsEPARPBD0EPQQ+BDUA--3" -207 0 mark 0
LayerCount: 2
Fore
SplineSet
-397 -21 m 1,0,1
 -380 -15 -380 -15 -365 -12.5 c 128,-1,2
 -350 -10 -350 -10 -334 -10 c 0,3,4
 -276 -10 -276 -10 -241 -41 c 128,-1,5
 -206 -72 -206 -72 -206 -135 c 0,6,7
 -206 -178 -206 -178 -227 -214.5 c 128,-1,8
 -248 -251 -248 -251 -304 -283 c 1,9,10
 -287 -293 -287 -293 -268 -297 c 128,-1,11
 -249 -301 -249 -301 -232 -301 c 0,12,13
 -192 -301 -192 -301 -157 -284.5 c 128,-1,14
 -122 -268 -122 -268 -100.5 -234.5 c 128,-1,15
 -79 -201 -79 -201 -79 -152 c 0,16,17
 -79 -118 -79 -118 -91 -83 c 128,-1,18
 -103 -48 -103 -48 -130 -15 c 1,19,-1
 -53 0 l 1,20,21
 -23 -34 -23 -34 -10 -73.5 c 128,-1,22
 3 -113 3 -113 3 -151 c 0,23,24
 3 -218 3 -218 -29.5 -265 c 128,-1,25
 -62 -312 -62 -312 -116.5 -336.5 c 128,-1,26
 -171 -361 -171 -361 -237 -361 c 0,27,28
 -299 -361 -299 -361 -346 -345 c 128,-1,29
 -393 -329 -393 -329 -417 -317 c 1,30,-1
 -398 -268 l 1,31,32
 -370 -256 -370 -256 -345 -237 c 128,-1,33
 -320 -218 -320 -218 -304 -193.5 c 128,-1,34
 -288 -169 -288 -169 -288 -139 c 0,35,36
 -288 -107 -288 -107 -306 -86.5 c 128,-1,37
 -324 -66 -324 -66 -356 -66 c 0,38,39
 -364 -66 -364 -66 -374.5 -67.5 c 128,-1,40
 -385 -69 -385 -69 -397 -74 c 1,41,-1
 -397 -21 l 1,0,1
EndSplineSet
Ligature2: "'blwf' Below Base Forms lookup 0 subtable" virama_chakma caa_chakma
EndChar

StartChar: chaa_chakma.below
Encoding: 1114160 -1 125
Width: 0
GlyphClass: 4
Flags: W
AnchorPoint: "+BBEENQQ3BEsEPARPBD0EPQQ+BDUA--3" -212 0 mark 0
LayerCount: 2
Fore
SplineSet
-398 -21 m 1,0,1
 -365 -10 -365 -10 -335 -10 c 0,2,3
 -276 -10 -276 -10 -241 -48 c 128,-1,4
 -206 -86 -206 -86 -206 -142 c 0,5,6
 -206 -166 -206 -166 -213 -196.5 c 128,-1,7
 -220 -227 -220 -227 -235 -257 c 1,8,9
 -219 -276 -219 -276 -203 -289 c 128,-1,10
 -187 -302 -187 -302 -165 -302 c 0,11,12
 -136 -302 -136 -302 -116 -279.5 c 128,-1,13
 -96 -257 -96 -257 -85.5 -223 c 128,-1,14
 -75 -189 -75 -189 -75 -156 c 0,15,16
 -75 -113 -75 -113 -90.5 -76.5 c 128,-1,17
 -106 -40 -106 -40 -130 -15 c 1,18,-1
 -55 0 l 1,19,20
 7 -64 7 -64 7 -154 c 0,21,22
 7 -186 7 -186 -3 -222 c 128,-1,23
 -13 -258 -13 -258 -34 -290 c 128,-1,24
 -55 -322 -55 -322 -88 -342 c 128,-1,25
 -121 -362 -121 -362 -168 -362 c 0,26,27
 -207 -362 -207 -362 -231 -348 c 128,-1,28
 -255 -334 -255 -334 -272 -315 c 1,29,30
 -291 -336 -291 -336 -315 -349 c 128,-1,31
 -339 -362 -339 -362 -369 -362 c 0,32,33
 -403 -362 -403 -362 -433 -340.5 c 128,-1,34
 -463 -319 -463 -319 -463 -269 c 0,35,36
 -463 -222 -463 -222 -433 -198 c 128,-1,37
 -403 -174 -403 -174 -363 -174 c 0,38,39
 -341 -174 -341 -174 -323.5 -180.5 c 128,-1,40
 -306 -187 -306 -187 -291 -198 c 1,41,42
 -288 -179 -288 -179 -288 -161 c 0,43,44
 -288 -116 -288 -116 -308 -91 c 128,-1,45
 -328 -66 -328 -66 -360 -66 c 0,46,47
 -367 -66 -367 -66 -376.5 -67.5 c 128,-1,48
 -386 -69 -386 -69 -398 -74 c 1,49,-1
 -398 -21 l 1,0,1
-398 -270 m 256,50,51
 -398 -288 -398 -288 -388 -296.5 c 128,-1,52
 -378 -305 -378 -305 -365 -305 c 0,53,54
 -349 -305 -349 -305 -335 -292.5 c 128,-1,55
 -321 -280 -321 -280 -311 -260 c 1,56,57
 -321 -247 -321 -247 -332 -238.5 c 128,-1,58
 -343 -230 -343 -230 -358 -230 c 0,59,60
 -375 -230 -375 -230 -386.5 -241 c 128,-1,61
 -398 -252 -398 -252 -398 -270 c 256,50,51
EndSplineSet
Ligature2: "'blwf' Below Base Forms lookup 0 subtable" virama_chakma chaa_chakma
EndChar

StartChar: jaa_chakma.below
Encoding: 1114161 -1 126
Width: 0
GlyphClass: 4
Flags: W
AnchorPoint: "+BBEENQQ3BEsEPARPBD0EPQQ+BDUA--3" -190 0 mark 0
LayerCount: 2
Fore
SplineSet
-311 -245 m 1,0,1
 -305 -252 -305 -252 -292 -264 c 128,-1,2
 -279 -276 -279 -276 -255.5 -285.5 c 128,-1,3
 -232 -295 -232 -295 -197 -295 c 0,4,5
 -158 -295 -158 -295 -122.5 -280 c 128,-1,6
 -87 -265 -87 -265 -79 -231 c 1,7,8
 -103 -242 -103 -242 -125 -242 c 0,9,10
 -155 -242 -155 -242 -176 -223.5 c 128,-1,11
 -197 -205 -197 -205 -197 -179 c 0,12,13
 -197 -150 -197 -150 -174 -129.5 c 128,-1,14
 -151 -109 -151 -109 -117 -109 c 0,15,16
 -98 -109 -98 -109 -78 -116 c 1,17,18
 -85 -92 -85 -92 -112.5 -76 c 128,-1,19
 -140 -60 -140 -60 -191 -60 c 0,20,21
 -200 -60 -200 -60 -211 -60.5 c 128,-1,22
 -222 -61 -222 -61 -233 -62 c 1,23,24
 -210 -80 -210 -80 -210 -108 c 256,25,26
 -210 -136 -210 -136 -234 -158.5 c 128,-1,27
 -258 -181 -258 -181 -292 -181 c 0,28,29
 -320 -181 -320 -181 -342 -163.5 c 128,-1,30
 -364 -146 -364 -146 -364 -113 c 0,31,32
 -364 -79 -364 -79 -337.5 -53.5 c 128,-1,33
 -311 -28 -311 -28 -268 -14 c 128,-1,34
 -225 0 -225 0 -174 0 c 0,35,36
 -97 0 -97 0 -47.5 -30.5 c 128,-1,37
 2 -61 2 -61 2 -113 c 0,38,39
 2 -142 2 -142 -14 -170 c 1,40,41
 1 -196 1 -196 1 -224 c 0,42,43
 1 -260 1 -260 -23 -289.5 c 128,-1,44
 -47 -319 -47 -319 -88 -337 c 128,-1,45
 -129 -355 -129 -355 -180 -355 c 0,46,47
 -248 -355 -248 -355 -303 -325.5 c 128,-1,48
 -358 -296 -358 -296 -381 -245 c 1,49,-1
 -311 -245 l 1,0,1
-310 -110 m 0,50,51
 -310 -121 -310 -121 -303.5 -128.5 c 128,-1,52
 -297 -136 -297 -136 -285 -136 c 0,53,54
 -274 -136 -274 -136 -266.5 -129.5 c 128,-1,55
 -259 -123 -259 -123 -259 -109 c 0,56,57
 -259 -98 -259 -98 -265 -88.5 c 128,-1,58
 -271 -79 -271 -79 -285 -79 c 0,59,60
 -288 -79 -288 -79 -292 -80 c 0,61,62
 -310 -91 -310 -91 -310 -110 c 0,50,51
-148 -177 m 0,63,64
 -148 -184 -148 -184 -142.5 -191 c 128,-1,65
 -137 -198 -137 -198 -125 -198 c 0,66,67
 -104 -198 -104 -198 -89 -174 c 1,68,69
 -102 -156 -102 -156 -122 -156 c 0,70,71
 -133 -156 -133 -156 -140.5 -162 c 128,-1,72
 -148 -168 -148 -168 -148 -177 c 0,63,64
EndSplineSet
Ligature2: "'blwf' Below Base Forms lookup 0 subtable" virama_chakma jaa_chakma
EndChar

StartChar: jhaa_chakma.below
Encoding: 1114162 -1 127
Width: 0
GlyphClass: 4
Flags: W
AnchorPoint: "+BBEENQQ3BEsEPARPBD0EPQQ+BDUA--3" -193 0 mark 0
LayerCount: 2
Fore
SplineSet
-138 -2 m 1,0,1
 -132 -11 -132 -11 -120 -24.5 c 128,-1,2
 -108 -38 -108 -38 -91 -48.5 c 128,-1,3
 -74 -59 -74 -59 -53 -59 c 0,4,5
 -24 -59 -24 -59 -7.5 -39 c 128,-1,6
 9 -19 9 -19 17 -1 c 1,7,-1
 76 13 l 1,8,9
 72 -6 72 -6 60.5 -29.5 c 128,-1,10
 49 -53 49 -53 30 -74 c 128,-1,11
 11 -95 11 -95 -16 -106 c 1,12,-1
 -16 -128 l 2,13,14
 -16 -202 -16 -202 -50.5 -251.5 c 128,-1,15
 -85 -301 -85 -301 -141 -325 c 128,-1,16
 -197 -349 -197 -349 -261 -349 c 0,17,18
 -319 -349 -319 -349 -365 -333.5 c 128,-1,19
 -411 -318 -411 -318 -435 -307 c 1,20,-1
 -410 -250 l 1,21,22
 -386 -241 -386 -241 -362 -226 c 128,-1,23
 -338 -211 -338 -211 -322 -188.5 c 128,-1,24
 -306 -166 -306 -166 -306 -134 c 256,25,26
 -306 -102 -306 -102 -324 -79.5 c 128,-1,27
 -342 -57 -342 -57 -374 -57 c 0,28,29
 -381 -57 -381 -57 -390.5 -58.5 c 128,-1,30
 -400 -60 -400 -60 -412 -65 c 1,31,-1
 -415 -14 l 1,32,33
 -398 -8 -398 -8 -383 -5.5 c 128,-1,34
 -368 -3 -368 -3 -352 -3 c 0,35,36
 -294 -3 -294 -3 -259 -32.5 c 128,-1,37
 -224 -62 -224 -62 -224 -120 c 0,38,39
 -224 -171 -224 -171 -252.5 -208 c 128,-1,40
 -281 -245 -281 -245 -331 -274 c 1,41,42
 -319 -279 -319 -279 -300.5 -283.5 c 128,-1,43
 -282 -288 -282 -288 -255 -288 c 0,44,45
 -186 -288 -186 -288 -142 -251 c 128,-1,46
 -98 -214 -98 -214 -98 -127 c 2,47,-1
 -98 -112 l 1,48,49
 -132 -103 -132 -103 -153.5 -81 c 128,-1,50
 -175 -59 -175 -59 -184 -45 c 1,51,-1
 -138 -2 l 1,0,1
EndSplineSet
Ligature2: "'blwf' Below Base Forms lookup 0 subtable" virama_chakma jhaa_chakma
EndChar

StartChar: nyaa_chakma.below
Encoding: 1114163 -1 128
Width: 0
GlyphClass: 4
Flags: W
AnchorPoint: "+BBEENQQ3BEsEPARPBD0EPQQ+BDUA--3" -220 0 mark 0
LayerCount: 2
Fore
SplineSet
-40 -4 m 1,0,1
 5 -35 5 -35 5 -91 c 0,2,3
 5 -144 5 -144 -35 -173 c 128,-1,4
 -75 -202 -75 -202 -137 -202 c 0,5,6
 -179 -202 -179 -202 -205.5 -190.5 c 128,-1,7
 -232 -179 -232 -179 -249 -163 c 1,8,9
 -272 -176 -272 -176 -293.5 -188 c 128,-1,10
 -315 -200 -315 -200 -329.5 -213 c 128,-1,11
 -344 -226 -344 -226 -344 -243 c 0,12,13
 -344 -262 -344 -262 -324.5 -273.5 c 128,-1,14
 -305 -285 -305 -285 -273 -285 c 0,15,16
 -238 -285 -238 -285 -217 -273.5 c 128,-1,17
 -196 -262 -196 -262 -189 -250 c 1,18,-1
 -120 -233 l 1,19,20
 -125 -261 -125 -261 -145.5 -286.5 c 128,-1,21
 -166 -312 -166 -312 -201.5 -328.5 c 128,-1,22
 -237 -345 -237 -345 -286 -345 c 0,23,24
 -321 -345 -321 -345 -353 -335 c 128,-1,25
 -385 -325 -385 -325 -405.5 -304.5 c 128,-1,26
 -426 -284 -426 -284 -426 -253 c 0,27,28
 -426 -224 -426 -224 -408.5 -203.5 c 128,-1,29
 -391 -183 -391 -183 -365.5 -167.5 c 128,-1,30
 -340 -152 -340 -152 -315 -140 c 128,-1,31
 -290 -128 -290 -128 -272.5 -116 c 128,-1,32
 -255 -104 -255 -104 -255 -89 c 0,33,34
 -255 -76 -255 -76 -268.5 -68 c 128,-1,35
 -282 -60 -282 -60 -302 -60 c 0,36,37
 -324 -60 -324 -60 -340.5 -69.5 c 128,-1,38
 -357 -79 -357 -79 -363 -94 c 1,39,-1
 -440 -106 l 1,40,41
 -435 -61 -435 -61 -393 -30.5 c 128,-1,42
 -351 0 -351 0 -288 0 c 0,43,44
 -261 0 -261 0 -234.5 -7 c 128,-1,45
 -208 -14 -208 -14 -191 -30 c 128,-1,46
 -174 -46 -174 -46 -174 -73 c 0,47,48
 -174 -91 -174 -91 -181.5 -105 c 128,-1,49
 -189 -119 -189 -119 -201 -130 c 1,50,51
 -192 -138 -192 -138 -177.5 -144 c 128,-1,52
 -163 -150 -163 -150 -143 -150 c 0,53,54
 -110 -150 -110 -150 -89.5 -134 c 128,-1,55
 -69 -118 -69 -118 -69 -92 c 0,56,57
 -69 -60 -69 -60 -102 -41 c 1,58,-1
 -40 -4 l 1,0,1
EndSplineSet
Ligature2: "'blwf' Below Base Forms lookup 0 subtable" virama_chakma nyaa_chakma
EndChar

StartChar: ttaa_chakma.below
Encoding: 1114164 -1 129
Width: 0
GlyphClass: 4
Flags: W
AnchorPoint: "+BBEENQQ3BEsEPARPBD0EPQQ+BDUA--3" -249 0 mark 0
LayerCount: 2
Fore
SplineSet
18 -345 m 1,0,-1
 -198 -345 l 1,1,-1
 -198 -312 l 1,2,-1
 -57 -183 l 1,3,-1
 -178 -183 l 1,4,5
 -181 -219 -181 -219 -201.5 -252 c 128,-1,6
 -222 -285 -222 -285 -259.5 -305.5 c 128,-1,7
 -297 -326 -297 -326 -350 -326 c 0,8,9
 -395 -326 -395 -326 -433.5 -309 c 128,-1,10
 -472 -292 -472 -292 -495.5 -258.5 c 128,-1,11
 -519 -225 -519 -225 -519 -175 c 0,12,13
 -519 -124 -519 -124 -495 -90 c 128,-1,14
 -471 -56 -471 -56 -430 -36.5 c 128,-1,15
 -389 -17 -389 -17 -336 -8.5 c 128,-1,16
 -283 0 -283 0 -226 0 c 0,17,18
 -131 0 -131 0 -71.5 -20 c 128,-1,19
 -12 -40 -12 -40 19 -56 c 1,20,-1
 19 -116 l 1,21,22
 -42 -87 -42 -87 -103.5 -73.5 c 128,-1,23
 -165 -60 -165 -60 -236 -60 c 0,24,25
 -241 -60 -241 -60 -245 -60 c 1,26,27
 -198 -88 -198 -88 -183 -135 c 1,28,-1
 11 -135 l 1,29,-1
 11 -183 l 1,30,-1
 -108 -297 l 1,31,-1
 18 -297 l 1,32,-1
 18 -345 l 1,0,-1
-437 -178 m 0,33,34
 -437 -217 -437 -217 -413 -241.5 c 128,-1,35
 -389 -266 -389 -266 -346 -266 c 0,36,37
 -304 -266 -304 -266 -282 -242 c 128,-1,38
 -260 -218 -260 -218 -260 -178 c 0,39,40
 -260 -128 -260 -128 -287 -105 c 128,-1,41
 -314 -82 -314 -82 -356 -76 c 1,42,43
 -390 -88 -390 -88 -413.5 -112 c 128,-1,44
 -437 -136 -437 -136 -437 -178 c 0,33,34
EndSplineSet
Ligature2: "'blwf' Below Base Forms lookup 0 subtable" virama_chakma ttaa_chakma
EndChar

StartChar: tthaa_chakma.below
Encoding: 1114165 -1 130
Width: 0
GlyphClass: 4
Flags: W
AnchorPoint: "+BBEENQQ3BEsEPARPBD0EPQQ+BDUA--3" -251 0 mark 0
LayerCount: 2
Fore
SplineSet
26 -244 m 0,0,1
 26 -297 26 -297 -8 -331 c 128,-1,2
 -42 -365 -42 -365 -90 -365 c 0,3,4
 -129 -365 -129 -365 -155 -343 c 128,-1,5
 -181 -321 -181 -321 -181 -287 c 256,6,7
 -181 -253 -181 -253 -154 -227.5 c 128,-1,8
 -127 -202 -127 -202 -82 -202 c 0,9,10
 -66 -202 -66 -202 -50 -206 c 1,11,12
 -68 -183 -68 -183 -111 -183 c 2,13,-1
 -178 -183 l 1,14,15
 -181 -219 -181 -219 -201.5 -252 c 128,-1,16
 -222 -285 -222 -285 -259.5 -305.5 c 128,-1,17
 -297 -326 -297 -326 -350 -326 c 0,18,19
 -395 -326 -395 -326 -433.5 -309 c 128,-1,20
 -472 -292 -472 -292 -495.5 -258.5 c 128,-1,21
 -519 -225 -519 -225 -519 -175 c 0,22,23
 -519 -124 -519 -124 -495 -90 c 128,-1,24
 -471 -56 -471 -56 -430 -36.5 c 128,-1,25
 -389 -17 -389 -17 -336 -8.5 c 128,-1,26
 -283 0 -283 0 -226 0 c 0,27,28
 -131 0 -131 0 -71.5 -20 c 128,-1,29
 -12 -40 -12 -40 19 -56 c 1,30,-1
 19 -116 l 1,31,32
 -42 -87 -42 -87 -103.5 -73.5 c 128,-1,33
 -165 -60 -165 -60 -236 -60 c 0,34,35
 -241 -60 -241 -60 -245 -60 c 1,36,37
 -198 -88 -198 -88 -183 -135 c 1,38,-1
 -96 -135 l 2,39,40
 -42 -135 -42 -135 -8 -164 c 128,-1,41
 26 -193 26 -193 26 -244 c 0,0,1
-437 -178 m 0,42,43
 -437 -217 -437 -217 -413 -241.5 c 128,-1,44
 -389 -266 -389 -266 -346 -266 c 0,45,46
 -304 -266 -304 -266 -282 -242 c 128,-1,47
 -260 -218 -260 -218 -260 -178 c 0,48,49
 -260 -128 -260 -128 -287 -105 c 128,-1,50
 -314 -82 -314 -82 -356 -76 c 1,51,52
 -390 -88 -390 -88 -413.5 -112 c 128,-1,53
 -437 -136 -437 -136 -437 -178 c 0,42,43
-120 -286 m 0,54,55
 -120 -299 -120 -299 -112 -308.5 c 128,-1,56
 -104 -318 -104 -318 -85 -318 c 0,57,58
 -68 -318 -68 -318 -52 -305.5 c 128,-1,59
 -36 -293 -36 -293 -36 -255 c 1,60,-1
 -36 -255 l 1,61,62
 -56 -246 -56 -246 -74 -246 c 0,63,64
 -97 -246 -97 -246 -108.5 -258.5 c 128,-1,65
 -120 -271 -120 -271 -120 -286 c 0,54,55
EndSplineSet
Ligature2: "'blwf' Below Base Forms lookup 0 subtable" virama_chakma tthaa_chakma
EndChar

StartChar: ddaa_chakma.below
Encoding: 1114166 -1 131
Width: 0
GlyphClass: 4
Flags: W
AnchorPoint: "+BBEENQQ3BEsEPARPBD0EPQQ+BDUA--3" -202 0 mark 0
LayerCount: 2
Fore
SplineSet
-41 -344 m 1,0,-1
 -378 -344 l 1,1,-1
 -378 -284 l 1,2,3
 -340 -278 -340 -278 -296 -257 c 128,-1,4
 -252 -236 -252 -236 -212.5 -207 c 128,-1,5
 -173 -178 -173 -178 -147.5 -148 c 128,-1,6
 -122 -118 -122 -118 -122 -94 c 0,7,8
 -122 -71 -122 -71 -144 -60 c 128,-1,9
 -166 -49 -166 -49 -194 -49 c 0,10,11
 -237 -49 -237 -49 -261 -72 c 128,-1,12
 -285 -95 -285 -95 -289 -129 c 1,13,-1
 -357 -150 l 1,14,15
 -360 -118 -360 -118 -342.5 -83 c 128,-1,16
 -325 -48 -325 -48 -285 -24 c 128,-1,17
 -245 0 -245 0 -181 0 c 0,18,19
 -144 0 -144 0 -112.5 -10 c 128,-1,20
 -81 -20 -81 -20 -61.5 -39.5 c 128,-1,21
 -42 -59 -42 -59 -42 -89 c 0,22,23
 -42 -123 -42 -123 -69 -155 c 128,-1,24
 -96 -187 -96 -187 -142 -218.5 c 128,-1,25
 -188 -250 -188 -250 -243 -284 c 1,26,-1
 -41 -284 l 1,27,-1
 -41 -344 l 1,0,-1
EndSplineSet
Ligature2: "'blwf' Below Base Forms lookup 0 subtable" virama_chakma ddaa_chakma
EndChar

StartChar: ddhaa_chakma.below
Encoding: 1114167 -1 132
Width: 0
GlyphClass: 4
Flags: W
AnchorPoint: "+BBEENQQ3BEsEPARPBD0EPQQ+BDUA--3" -218 0 mark 0
LayerCount: 2
Fore
SplineSet
-262 -293 m 0,0,1
 -223 -293 -223 -293 -184 -278.5 c 128,-1,2
 -145 -264 -145 -264 -115 -233.5 c 128,-1,3
 -85 -203 -85 -203 -73 -156 c 1,4,5
 -91 -161 -91 -161 -109 -161 c 0,6,7
 -129 -161 -129 -161 -149 -153 c 128,-1,8
 -169 -145 -169 -145 -182.5 -127.5 c 128,-1,9
 -196 -110 -196 -110 -196 -83 c 0,10,11
 -196 -48 -196 -48 -171 -24 c 128,-1,12
 -146 0 -146 0 -97 0 c 0,13,14
 -49 0 -49 0 -16.5 -28 c 128,-1,15
 16 -56 16 -56 16 -116 c 0,16,17
 16 -165 16 -165 -8 -208 c 128,-1,18
 -32 -251 -32 -251 -73.5 -284 c 128,-1,19
 -115 -317 -115 -317 -168 -335.5 c 128,-1,20
 -221 -354 -221 -354 -279 -354 c 0,21,22
 -341 -354 -341 -354 -387.5 -336 c 128,-1,23
 -434 -318 -434 -318 -459 -304 c 1,24,-1
 -440 -260 l 1,25,26
 -411 -249 -411 -249 -386 -233.5 c 128,-1,27
 -361 -218 -361 -218 -345 -194.5 c 128,-1,28
 -329 -171 -329 -171 -329 -138 c 0,29,30
 -329 -106 -329 -106 -345 -87.5 c 128,-1,31
 -361 -69 -361 -69 -394 -69 c 0,32,33
 -403 -69 -403 -69 -413.5 -70.5 c 128,-1,34
 -424 -72 -424 -72 -436 -77 c 1,35,-1
 -439 -29 l 1,36,37
 -423 -24 -423 -24 -407 -21 c 128,-1,38
 -391 -18 -391 -18 -374 -18 c 0,39,40
 -317 -18 -317 -18 -282 -51.5 c 128,-1,41
 -247 -85 -247 -85 -247 -138 c 0,42,43
 -247 -175 -247 -175 -267.5 -212 c 128,-1,44
 -288 -249 -288 -249 -346 -276 c 1,45,46
 -333 -282 -333 -282 -311.5 -287.5 c 128,-1,47
 -290 -293 -290 -293 -262 -293 c 0,0,1
-134 -82 m 0,48,49
 -134 -100 -134 -100 -121 -105.5 c 128,-1,50
 -108 -111 -108 -111 -97 -111 c 0,51,52
 -83 -111 -83 -111 -67 -105 c 1,53,-1
 -67 -103 l 2,54,55
 -67 -71 -67 -71 -77 -60 c 128,-1,56
 -87 -49 -87 -49 -101 -49 c 0,57,58
 -117 -49 -117 -49 -125.5 -58.5 c 128,-1,59
 -134 -68 -134 -68 -134 -82 c 0,48,49
EndSplineSet
Ligature2: "'blwf' Below Base Forms lookup 0 subtable" virama_chakma ddhaa_chakma
EndChar

StartChar: nnaa_chakma.below
Encoding: 1114168 -1 133
Width: 0
GlyphClass: 4
Flags: W
AnchorPoint: "+BBEENQQ3BEsEPARPBD0EPQQ+BDUA--3" -313 0 mark 0
LayerCount: 2
Fore
SplineSet
-157 -310 m 1,0,1
 -124 -285 -124 -285 -97.5 -249.5 c 128,-1,2
 -71 -214 -71 -214 -71 -158 c 0,3,4
 -71 -108 -71 -108 -96 -84 c 128,-1,5
 -121 -60 -121 -60 -157 -60 c 0,6,7
 -180 -60 -180 -60 -198.5 -71.5 c 128,-1,8
 -217 -83 -217 -83 -217 -109 c 0,9,10
 -217 -137 -217 -137 -208.5 -155.5 c 128,-1,11
 -200 -174 -200 -174 -200 -198 c 0,12,13
 -200 -226 -200 -226 -217 -246.5 c 128,-1,14
 -234 -267 -234 -267 -260 -278 c 128,-1,15
 -286 -289 -286 -289 -314 -289 c 0,16,17
 -340 -289 -340 -289 -366.5 -278 c 128,-1,18
 -393 -267 -393 -267 -410.5 -247 c 128,-1,19
 -428 -227 -428 -227 -428 -199 c 0,20,21
 -428 -176 -428 -176 -419.5 -155.5 c 128,-1,22
 -411 -135 -411 -135 -411 -110 c 0,23,24
 -411 -82 -411 -82 -428.5 -71 c 128,-1,25
 -446 -60 -446 -60 -469 -60 c 0,26,27
 -506 -60 -506 -60 -531.5 -84.5 c 128,-1,28
 -557 -109 -557 -109 -557 -161 c 0,29,30
 -557 -215 -557 -215 -530.5 -249.5 c 128,-1,31
 -504 -284 -504 -284 -475 -310 c 1,32,-1
 -518 -354 l 1,33,34
 -572 -320 -572 -320 -605.5 -270.5 c 128,-1,35
 -639 -221 -639 -221 -639 -161 c 0,36,37
 -639 -106 -639 -106 -615 -70.5 c 128,-1,38
 -591 -35 -591 -35 -552 -17.5 c 128,-1,39
 -513 0 -513 0 -469 0 c 0,40,41
 -435 0 -435 0 -405.5 -10.5 c 128,-1,42
 -376 -21 -376 -21 -358 -44 c 128,-1,43
 -340 -67 -340 -67 -340 -103 c 0,44,45
 -340 -132 -340 -132 -348 -149 c 128,-1,46
 -356 -166 -356 -166 -356 -190 c 0,47,48
 -356 -207 -356 -207 -346.5 -218 c 128,-1,49
 -337 -229 -337 -229 -314 -229 c 0,50,51
 -272 -229 -272 -229 -272 -190 c 0,52,53
 -272 -167 -272 -167 -280 -149 c 128,-1,54
 -288 -131 -288 -131 -288 -103 c 0,55,56
 -288 -67 -288 -67 -269 -44 c 128,-1,57
 -250 -21 -250 -21 -219 -10.5 c 128,-1,58
 -188 0 -188 0 -154 0 c 0,59,60
 -110 0 -110 0 -72.5 -17.5 c 128,-1,61
 -35 -35 -35 -35 -12 -70.5 c 128,-1,62
 11 -106 11 -106 11 -160 c 0,63,64
 11 -222 11 -222 -24.5 -271 c 128,-1,65
 -60 -320 -60 -320 -114 -354 c 1,66,-1
 -157 -310 l 1,0,1
EndSplineSet
Ligature2: "'blwf' Below Base Forms lookup 0 subtable" virama_chakma nnaa_chakma
EndChar

StartChar: taa_chakma.below
Encoding: 1114169 -1 134
Width: 0
GlyphClass: 4
Flags: W
AnchorPoint: "+BBEENQQ3BEsEPARPBD0EPQQ+BDUA--3" -323 0 mark 0
LayerCount: 2
Fore
SplineSet
-469 0 m 0,0,1
 -424 0 -424 0 -388.5 -17 c 128,-1,2
 -353 -34 -353 -34 -329 -62 c 1,3,4
 -306 -33 -306 -33 -270.5 -16.5 c 128,-1,5
 -235 0 -235 0 -189 0 c 0,6,7
 -131 0 -131 0 -89.5 -24.5 c 128,-1,8
 -48 -49 -48 -49 -25.5 -89 c 128,-1,9
 -3 -129 -3 -129 -3 -175 c 256,10,11
 -3 -221 -3 -221 -25.5 -261.5 c 128,-1,12
 -48 -302 -48 -302 -89.5 -327 c 128,-1,13
 -131 -352 -131 -352 -189 -352 c 0,14,15
 -239 -352 -239 -352 -276 -332 c 1,16,-1
 -234 -280 l 1,17,18
 -213 -292 -213 -292 -189 -292 c 0,19,20
 -160 -292 -160 -292 -136.5 -276 c 128,-1,21
 -113 -260 -113 -260 -99 -233.5 c 128,-1,22
 -85 -207 -85 -207 -85 -175 c 0,23,24
 -85 -127 -85 -127 -115 -93.5 c 128,-1,25
 -145 -60 -145 -60 -189 -60 c 0,26,27
 -228 -60 -228 -60 -255 -88.5 c 128,-1,28
 -282 -117 -282 -117 -288 -169 c 0,29,30
 -288 -172 -288 -172 -288 -175 c 0,31,32
 -288 -221 -288 -221 -310.5 -261.5 c 128,-1,33
 -333 -302 -333 -302 -373.5 -327 c 128,-1,34
 -414 -352 -414 -352 -469 -352 c 256,35,36
 -524 -352 -524 -352 -564 -327 c 128,-1,37
 -604 -302 -604 -302 -625.5 -261.5 c 128,-1,38
 -647 -221 -647 -221 -647 -175 c 256,39,40
 -647 -129 -647 -129 -625.5 -89 c 128,-1,41
 -604 -49 -604 -49 -564 -24.5 c 128,-1,42
 -524 0 -524 0 -469 0 c 0,0,1
-469 -292 m 256,43,44
 -422 -292 -422 -292 -396 -257.5 c 128,-1,45
 -370 -223 -370 -223 -370 -175 c 256,46,47
 -370 -127 -370 -127 -396 -93.5 c 128,-1,48
 -422 -60 -422 -60 -469 -60 c 256,49,50
 -516 -60 -516 -60 -540.5 -93.5 c 128,-1,51
 -565 -127 -565 -127 -565 -175 c 256,52,53
 -565 -223 -565 -223 -540.5 -257.5 c 128,-1,54
 -516 -292 -516 -292 -469 -292 c 256,43,44
EndSplineSet
Ligature2: "'blwf' Below Base Forms lookup 0 subtable" virama_chakma taa_chakma
EndChar

StartChar: thaa_chakma.below
Encoding: 1114170 -1 135
Width: 0
GlyphClass: 4
Flags: W
AnchorPoint: "+BBEENQQ3BEsEPARPBD0EPQQ+BDUA--3" -321 0 mark 0
LayerCount: 2
Fore
SplineSet
-183 0 m 0,0,1
 -128 0 -128 0 -87.5 -24.5 c 128,-1,2
 -47 -49 -47 -49 -24.5 -89 c 128,-1,3
 -2 -129 -2 -129 -2 -175 c 256,4,5
 -2 -221 -2 -221 -24.5 -261.5 c 128,-1,6
 -47 -302 -47 -302 -87.5 -327 c 128,-1,7
 -128 -352 -128 -352 -183 -352 c 0,8,9
 -228 -352 -228 -352 -263 -334.5 c 128,-1,10
 -298 -317 -298 -317 -321 -289 c 1,11,12
 -345 -317 -345 -317 -380.5 -334.5 c 128,-1,13
 -416 -352 -416 -352 -461 -352 c 0,14,15
 -516 -352 -516 -352 -556 -327 c 128,-1,16
 -596 -302 -596 -302 -617.5 -261.5 c 128,-1,17
 -639 -221 -639 -221 -639 -175 c 256,18,19
 -639 -129 -639 -129 -617.5 -89 c 128,-1,20
 -596 -49 -596 -49 -556 -24.5 c 128,-1,21
 -516 0 -516 0 -461 0 c 0,22,23
 -416 0 -416 0 -380.5 -17 c 128,-1,24
 -345 -34 -345 -34 -321 -62 c 1,25,26
 -298 -34 -298 -34 -263 -17 c 128,-1,27
 -228 0 -228 0 -183 0 c 0,0,1
-461 -292 m 256,28,29
 -414 -292 -414 -292 -388 -257.5 c 128,-1,30
 -362 -223 -362 -223 -362 -175 c 256,31,32
 -362 -127 -362 -127 -388 -93.5 c 128,-1,33
 -414 -60 -414 -60 -461 -60 c 256,34,35
 -508 -60 -508 -60 -532.5 -93.5 c 128,-1,36
 -557 -127 -557 -127 -557 -175 c 256,37,38
 -557 -223 -557 -223 -532.5 -257.5 c 128,-1,39
 -508 -292 -508 -292 -461 -292 c 256,28,29
-183 -292 m 256,40,41
 -136 -292 -136 -292 -110 -257.5 c 128,-1,42
 -84 -223 -84 -223 -84 -175 c 256,43,44
 -84 -127 -84 -127 -110 -93.5 c 128,-1,45
 -136 -60 -136 -60 -183 -60 c 256,46,47
 -230 -60 -230 -60 -254.5 -93.5 c 128,-1,48
 -279 -127 -279 -127 -279 -175 c 256,49,50
 -279 -223 -279 -223 -254.5 -257.5 c 128,-1,51
 -230 -292 -230 -292 -183 -292 c 256,40,41
EndSplineSet
Ligature2: "'blwf' Below Base Forms lookup 0 subtable" virama_chakma thaa_chakma
EndChar

StartChar: daa_chakma.below
Encoding: 1114171 -1 136
Width: 0
GlyphClass: 4
Flags: W
AnchorPoint: "+BBEENQQ3BEsEPARPBD0EPQQ+BDUA--3" -201 0 mark 0
LayerCount: 2
Fore
SplineSet
-201 -356 m 0,0,1
 -271 -356 -271 -356 -315.5 -324.5 c 128,-1,2
 -360 -293 -360 -293 -378 -242 c 1,3,-1
 -299 -224 l 1,4,5
 -285 -263 -285 -263 -258 -279.5 c 128,-1,6
 -231 -296 -231 -296 -201 -296 c 0,7,8
 -150 -296 -150 -296 -120 -261 c 128,-1,9
 -90 -226 -90 -226 -90 -177 c 0,10,11
 -90 -126 -90 -126 -121 -93 c 128,-1,12
 -152 -60 -152 -60 -200 -60 c 0,13,14
 -239 -60 -239 -60 -265 -80.5 c 128,-1,15
 -291 -101 -291 -101 -299 -133 c 1,16,-1
 -378 -124 l 1,17,18
 -361 -68 -361 -68 -314.5 -34 c 128,-1,19
 -268 0 -268 0 -198 0 c 0,20,21
 -139 0 -139 0 -96.5 -25 c 128,-1,22
 -54 -50 -54 -50 -31 -90.5 c 128,-1,23
 -8 -131 -8 -131 -8 -179 c 0,24,25
 -8 -226 -8 -226 -31 -266.5 c 128,-1,26
 -54 -307 -54 -307 -97 -331.5 c 128,-1,27
 -140 -356 -140 -356 -201 -356 c 0,0,1
EndSplineSet
Ligature2: "'blwf' Below Base Forms lookup 0 subtable" virama_chakma daa_chakma
EndChar

StartChar: dhaa_chakma.below
Encoding: 1114172 -1 137
Width: 0
GlyphClass: 4
Flags: W
AnchorPoint: "+BBEENQQ3BEsEPARPBD0EPQQ+BDUA--3" -225 0 mark 0
LayerCount: 2
Fore
SplineSet
-225 0 m 0,0,1
 -165 0 -165 0 -119.5 -24.5 c 128,-1,2
 -74 -49 -74 -49 -48.5 -93 c 128,-1,3
 -23 -137 -23 -137 -23 -196 c 0,4,5
 -23 -254 -23 -254 -48 -297.5 c 128,-1,6
 -73 -341 -73 -341 -121 -365 c 1,7,8
 -141 -344 -141 -344 -165.5 -327.5 c 128,-1,9
 -190 -311 -190 -311 -225 -311 c 256,10,11
 -260 -311 -260 -311 -282 -327.5 c 128,-1,12
 -304 -344 -304 -344 -324 -365 c 1,13,14
 -374 -342 -374 -342 -400.5 -298 c 128,-1,15
 -427 -254 -427 -254 -427 -196 c 0,16,17
 -427 -137 -427 -137 -401.5 -93 c 128,-1,18
 -376 -49 -376 -49 -330 -24.5 c 128,-1,19
 -284 0 -284 0 -225 0 c 0,0,1
-225 -251 m 256,20,21
 -191 -251 -191 -251 -166 -263 c 128,-1,22
 -141 -275 -141 -275 -126 -287 c 1,23,24
 -105 -250 -105 -250 -105 -194 c 0,25,26
 -105 -120 -105 -120 -140 -90 c 128,-1,27
 -175 -60 -175 -60 -225 -60 c 0,28,29
 -274 -60 -274 -60 -309.5 -90 c 128,-1,30
 -345 -120 -345 -120 -345 -194 c 0,31,32
 -345 -251 -345 -251 -323 -287 c 1,33,34
 -308 -275 -308 -275 -283.5 -263 c 128,-1,35
 -259 -251 -259 -251 -225 -251 c 256,20,21
EndSplineSet
Ligature2: "'blwf' Below Base Forms lookup 0 subtable" virama_chakma dhaa_chakma
EndChar

StartChar: naa_chakma.below
Encoding: 1114173 -1 138
Width: 0
GlyphClass: 4
Flags: W
AnchorPoint: "+BBEENQQ3BEsEPARPBD0EPQQ+BDUA--3" -286 0 mark 0
LayerCount: 2
Fore
SplineSet
-125 -315 m 1,0,1
 -98 -290 -98 -290 -78.5 -252.5 c 128,-1,2
 -59 -215 -59 -215 -59 -169 c 0,3,4
 -59 -121 -59 -121 -83 -90.5 c 128,-1,5
 -107 -60 -107 -60 -146 -60 c 0,6,7
 -189 -60 -189 -60 -219 -94 c 1,8,9
 -182 -109 -182 -109 -156.5 -139.5 c 128,-1,10
 -131 -170 -131 -170 -131 -213 c 0,11,12
 -131 -258 -131 -258 -158.5 -291 c 128,-1,13
 -186 -324 -186 -324 -227 -324 c 0,14,15
 -260 -324 -260 -324 -281 -302 c 1,16,17
 -302 -324 -302 -324 -338 -324 c 0,18,19
 -383 -324 -383 -324 -408 -291.5 c 128,-1,20
 -433 -259 -433 -259 -433 -214 c 0,21,22
 -433 -170 -433 -170 -408 -139 c 128,-1,23
 -383 -108 -383 -108 -346 -94 c 1,24,25
 -376 -60 -376 -60 -419 -60 c 0,26,27
 -459 -60 -459 -60 -485 -91 c 128,-1,28
 -511 -122 -511 -122 -511 -173 c 0,29,30
 -511 -216 -511 -216 -492.5 -253 c 128,-1,31
 -474 -290 -474 -290 -448 -315 c 1,32,-1
 -482 -349 l 1,33,34
 -536 -316 -536 -316 -564.5 -269.5 c 128,-1,35
 -593 -223 -593 -223 -593 -164 c 0,36,37
 -593 -94 -593 -94 -551.5 -47 c 128,-1,38
 -510 0 -510 0 -432 0 c 0,39,40
 -385 0 -385 0 -346 -21 c 128,-1,41
 -307 -42 -307 -42 -282 -79 c 1,42,43
 -259 -42 -259 -42 -220.5 -21 c 128,-1,44
 -182 0 -182 0 -135 0 c 0,45,46
 -83 0 -83 0 -48 -23 c 128,-1,47
 -13 -46 -13 -46 5 -83 c 128,-1,48
 23 -120 23 -120 23 -164 c 0,49,50
 23 -223 23 -223 -7 -269.5 c 128,-1,51
 -37 -316 -37 -316 -91 -349 c 1,52,-1
 -125 -315 l 1,0,1
-367 -213 m 0,53,54
 -367 -241 -367 -241 -355 -254.5 c 128,-1,55
 -343 -268 -343 -268 -333 -268 c 0,56,57
 -327 -265 -327 -265 -322.5 -250.5 c 128,-1,58
 -318 -236 -318 -236 -316 -217.5 c 128,-1,59
 -314 -199 -314 -199 -314 -185 c 0,60,61
 -314 -161 -314 -161 -320 -140 c 1,62,63
 -340 -149 -340 -149 -353.5 -167.5 c 128,-1,64
 -367 -186 -367 -186 -367 -213 c 0,53,54
-250 -185 m 0,65,66
 -250 -214 -250 -214 -243 -238.5 c 128,-1,67
 -236 -263 -236 -263 -227 -268 c 0,68,69
 -219 -268 -219 -268 -208 -254 c 128,-1,70
 -197 -240 -197 -240 -197 -213 c 256,71,72
 -197 -186 -197 -186 -210.5 -168 c 128,-1,73
 -224 -150 -224 -150 -244 -141 c 1,74,75
 -250 -161 -250 -161 -250 -185 c 0,65,66
EndSplineSet
Ligature2: "'blwf' Below Base Forms lookup 0 subtable" virama_chakma naa_chakma
EndChar

StartChar: paa_chakma.below
Encoding: 1114174 -1 139
Width: 0
GlyphClass: 4
Flags: W
AnchorPoint: "+BBEENQQ3BEsEPARPBD0EPQQ+BDUA--3" -218 0 mark 0
LayerCount: 2
Fore
SplineSet
-216 -349 m 0,0,1
 -275 -349 -275 -349 -321 -324 c 128,-1,2
 -367 -299 -367 -299 -392.5 -257.5 c 128,-1,3
 -418 -216 -418 -216 -418 -167 c 0,4,5
 -418 -117 -418 -117 -394 -73 c 128,-1,6
 -370 -29 -370 -29 -328 0 c 1,7,-1
 -271 -30 l 1,8,9
 -301 -58 -301 -58 -318.5 -92 c 128,-1,10
 -336 -126 -336 -126 -336 -166 c 0,11,12
 -336 -221 -336 -221 -300.5 -255 c 128,-1,13
 -265 -289 -265 -289 -216 -289 c 0,14,15
 -166 -289 -166 -289 -131 -254.5 c 128,-1,16
 -96 -220 -96 -220 -96 -166 c 0,17,18
 -96 -126 -96 -126 -115 -92 c 128,-1,19
 -134 -58 -134 -58 -167 -30 c 1,20,-1
 -109 0 l 1,21,22
 -65 -28 -65 -28 -39.5 -73.5 c 128,-1,23
 -14 -119 -14 -119 -14 -167 c 0,24,25
 -14 -216 -14 -216 -39.5 -257.5 c 128,-1,26
 -65 -299 -65 -299 -110.5 -324 c 128,-1,27
 -156 -349 -156 -349 -216 -349 c 0,0,1
EndSplineSet
Ligature2: "'blwf' Below Base Forms lookup 0 subtable" virama_chakma paa_chakma
EndChar

StartChar: phaa_chakma.below
Encoding: 1114175 -1 140
Width: 0
GlyphClass: 4
Flags: W
AnchorPoint: "+BBEENQQ3BEsEPARPBD0EPQQ+BDUA--3" -200 0 mark 0
LayerCount: 2
Fore
SplineSet
14 -153 m 0,0,1
 14 -211 14 -211 -12.5 -256.5 c 128,-1,2
 -39 -302 -39 -302 -86 -328.5 c 128,-1,3
 -133 -355 -133 -355 -197 -355 c 0,4,5
 -260 -355 -260 -355 -309 -330 c 128,-1,6
 -358 -305 -358 -305 -386 -261.5 c 128,-1,7
 -414 -218 -414 -218 -414 -165 c 0,8,9
 -414 -115 -414 -115 -390 -71.5 c 128,-1,10
 -366 -28 -366 -28 -324 -3 c 1,11,-1
 -267 -29 l 1,12,13
 -297 -54 -297 -54 -314.5 -88.5 c 128,-1,14
 -332 -123 -332 -123 -332 -160 c 0,15,16
 -332 -199 -332 -199 -313.5 -229.5 c 128,-1,17
 -295 -260 -295 -260 -264.5 -277.5 c 128,-1,18
 -234 -295 -234 -295 -198 -295 c 0,19,20
 -144 -295 -144 -295 -106 -257.5 c 128,-1,21
 -68 -220 -68 -220 -68 -144 c 2,22,-1
 -68 -141 l 1,23,24
 -83 -151 -83 -151 -99.5 -156.5 c 128,-1,25
 -116 -162 -116 -162 -135 -162 c 0,26,27
 -168 -162 -168 -162 -194.5 -142.5 c 128,-1,28
 -221 -123 -221 -123 -221 -85 c 0,29,30
 -221 -44 -221 -44 -191 -22 c 128,-1,31
 -161 0 -161 0 -118 0 c 0,32,33
 -73 0 -73 0 -44 -21 c 128,-1,34
 -15 -42 -15 -42 -0.5 -76.5 c 128,-1,35
 14 -111 14 -111 14 -153 c 0,0,1
-159 -80 m 0,36,37
 -159 -93 -159 -93 -148.5 -103 c 128,-1,38
 -138 -113 -138 -113 -121 -113 c 0,39,40
 -109 -113 -109 -113 -97 -107.5 c 128,-1,41
 -85 -102 -85 -102 -74 -94 c 1,42,43
 -88 -49 -88 -49 -122 -49 c 0,44,45
 -135 -49 -135 -49 -147 -56.5 c 128,-1,46
 -159 -64 -159 -64 -159 -80 c 0,36,37
EndSplineSet
Ligature2: "'blwf' Below Base Forms lookup 0 subtable" virama_chakma phaa_chakma
EndChar

StartChar: baa_chakma.below
Encoding: 1114176 -1 141
Width: 0
GlyphClass: 4
Flags: W
AnchorPoint: "+BBEENQQ3BEsEPARPBD0EPQQ+BDUA--3" -208 0 mark 0
LayerCount: 2
Fore
SplineSet
-105 0 m 1,0,1
 -62 -26 -62 -26 -35 -69 c 128,-1,2
 -8 -112 -8 -112 -8 -174 c 0,3,4
 -8 -232 -8 -232 -34.5 -275 c 128,-1,5
 -61 -318 -61 -318 -106 -341.5 c 128,-1,6
 -151 -365 -151 -365 -208 -365 c 256,7,8
 -265 -365 -265 -365 -310 -342.5 c 128,-1,9
 -355 -320 -355 -320 -381.5 -277 c 128,-1,10
 -408 -234 -408 -234 -408 -173 c 0,11,12
 -408 -111 -408 -111 -381 -68.5 c 128,-1,13
 -354 -26 -354 -26 -311 0 c 1,14,15
 -288 -23 -288 -23 -263.5 -38.5 c 128,-1,16
 -239 -54 -239 -54 -208 -54 c 256,17,18
 -177 -54 -177 -54 -152 -38.5 c 128,-1,19
 -127 -23 -127 -23 -105 0 c 1,0,1
-208 -305 m 0,20,21
 -161 -305 -161 -305 -125.5 -275 c 128,-1,22
 -90 -245 -90 -245 -90 -181 c 0,23,24
 -90 -155 -90 -155 -97 -132.5 c 128,-1,25
 -104 -110 -104 -110 -118 -88 c 1,26,27
 -135 -97 -135 -97 -158 -105.5 c 128,-1,28
 -181 -114 -181 -114 -208 -114 c 256,29,30
 -235 -114 -235 -114 -258 -105.5 c 128,-1,31
 -281 -97 -281 -97 -298 -88 c 1,32,33
 -312 -110 -312 -110 -319 -132.5 c 128,-1,34
 -326 -155 -326 -155 -326 -181 c 0,35,36
 -326 -245 -326 -245 -290 -275 c 128,-1,37
 -254 -305 -254 -305 -208 -305 c 0,20,21
EndSplineSet
Ligature2: "'blwf' Below Base Forms lookup 0 subtable" virama_chakma baa_chakma
EndChar

StartChar: bhaa_chakma.below
Encoding: 1114177 -1 142
Width: 0
GlyphClass: 4
Flags: W
AnchorPoint: "+BBEENQQ3BEsEPARPBD0EPQQ+BDUA--3" -246 0 mark 0
LayerCount: 2
Fore
SplineSet
-59 -126 m 1,0,1
 -47 -122 -47 -122 -33.5 -113.5 c 128,-1,2
 -20 -105 -20 -105 -20 -92 c 0,3,4
 -20 -81 -20 -81 -35 -69.5 c 128,-1,5
 -50 -58 -50 -58 -89 -58 c 0,6,7
 -157 -58 -157 -58 -216 -94 c 1,8,9
 -193 -135 -193 -135 -193 -183 c 0,10,11
 -193 -193 -193 -193 -194 -203 c 1,12,13
 -143 -189 -143 -189 -95 -189 c 0,14,15
 -22 -189 -22 -189 10.5 -217 c 128,-1,16
 43 -245 43 -245 43 -283 c 0,17,18
 43 -309 43 -309 29 -332.5 c 128,-1,19
 15 -356 15 -356 -9.5 -370.5 c 128,-1,20
 -34 -385 -34 -385 -66 -385 c 0,21,22
 -88 -385 -88 -385 -106.5 -377.5 c 128,-1,23
 -125 -370 -125 -370 -139 -357 c 1,24,-1
 -108 -311 l 1,25,26
 -91 -328 -91 -328 -73 -328 c 256,27,28
 -55 -328 -55 -328 -42.5 -316 c 128,-1,29
 -30 -304 -30 -304 -30 -291 c 0,30,31
 -30 -275 -30 -275 -50 -261 c 128,-1,32
 -70 -247 -70 -247 -114 -247 c 0,33,34
 -133 -247 -133 -247 -158.5 -251 c 128,-1,35
 -184 -255 -184 -255 -212 -263 c 1,36,37
 -234 -305 -234 -305 -278.5 -332.5 c 128,-1,38
 -323 -360 -323 -360 -386 -360 c 0,39,40
 -456 -360 -456 -360 -500.5 -328.5 c 128,-1,41
 -545 -297 -545 -297 -563 -246 c 1,42,-1
 -484 -228 l 1,43,44
 -470 -267 -470 -267 -443 -283.5 c 128,-1,45
 -416 -300 -416 -300 -386 -300 c 0,46,47
 -335 -300 -335 -300 -305 -265 c 128,-1,48
 -275 -230 -275 -230 -275 -181 c 0,49,50
 -275 -130 -275 -130 -306 -97 c 128,-1,51
 -337 -64 -337 -64 -385 -64 c 0,52,53
 -424 -64 -424 -64 -450 -84.5 c 128,-1,54
 -476 -105 -476 -105 -484 -137 c 1,55,-1
 -563 -128 l 1,56,57
 -546 -72 -546 -72 -499.5 -38 c 128,-1,58
 -453 -4 -453 -4 -383 -4 c 0,59,60
 -345 -4 -345 -4 -313 -15 c 128,-1,61
 -281 -26 -281 -26 -258 -46 c 1,62,63
 -211 -22 -211 -22 -167.5 -11 c 128,-1,64
 -124 0 -124 0 -83 0 c 0,65,66
 -23 0 -23 0 6 -15.5 c 128,-1,67
 35 -31 35 -31 44 -50 c 128,-1,68
 53 -69 53 -69 53 -82 c 0,69,70
 53 -109 53 -109 30 -135.5 c 128,-1,71
 7 -162 7 -162 -22 -173 c 1,72,-1
 -59 -126 l 1,0,1
EndSplineSet
Ligature2: "'blwf' Below Base Forms lookup 0 subtable" virama_chakma bhaa_chakma
EndChar

StartChar: maa_chakma.below
Encoding: 1114178 -1 143
Width: 0
GlyphClass: 4
Flags: W
AnchorPoint: "+BBEENQQ3BEsEPARPBD0EPQQ+BDUA--3" -208 0 mark 0
LayerCount: 2
Fore
SplineSet
-83 0 m 1,0,1
 -33 -31 -33 -31 1 -79 c 128,-1,2
 35 -127 35 -127 35 -186 c 0,3,4
 35 -226 35 -226 15.5 -263 c 128,-1,5
 -4 -300 -4 -300 -39 -324 c 128,-1,6
 -74 -348 -74 -348 -123 -348 c 0,7,8
 -146 -348 -146 -348 -168 -342 c 128,-1,9
 -190 -336 -190 -336 -209 -325 c 1,10,11
 -256 -348 -256 -348 -303 -348 c 0,12,13
 -351 -348 -351 -348 -384.5 -324.5 c 128,-1,14
 -418 -301 -418 -301 -435 -264 c 128,-1,15
 -452 -227 -452 -227 -452 -187 c 0,16,17
 -452 -128 -452 -128 -418 -79.5 c 128,-1,18
 -384 -31 -384 -31 -334 0 c 1,19,-1
 -281 -39 l 1,20,21
 -315 -64 -315 -64 -342.5 -103.5 c 128,-1,22
 -370 -143 -370 -143 -370 -192 c 0,23,24
 -370 -235 -370 -235 -347 -261.5 c 128,-1,25
 -324 -288 -324 -288 -290 -288 c 0,26,27
 -276 -288 -276 -288 -261 -283 c 1,28,29
 -292 -245 -292 -245 -292 -203 c 0,30,31
 -292 -165 -292 -165 -267 -138 c 128,-1,32
 -242 -111 -242 -111 -203 -111 c 256,33,34
 -164 -111 -164 -111 -139 -138 c 128,-1,35
 -114 -165 -114 -165 -114 -202 c 0,36,37
 -114 -225 -114 -225 -124.5 -246.5 c 128,-1,38
 -135 -268 -135 -268 -153 -286 c 1,39,40
 -143 -288 -143 -288 -134 -288 c 0,41,42
 -99 -288 -99 -288 -73 -258 c 128,-1,43
 -47 -228 -47 -228 -47 -185 c 0,44,45
 -47 -141 -47 -141 -74 -102 c 128,-1,46
 -101 -63 -101 -63 -136 -39 c 1,47,-1
 -83 0 l 1,0,1
-226 -201 m 0,48,49
 -226 -227 -226 -227 -206 -251 c 1,50,51
 -194 -240 -194 -240 -187 -226.5 c 128,-1,52
 -180 -213 -180 -213 -180 -199 c 256,53,54
 -180 -185 -180 -185 -187 -175 c 128,-1,55
 -194 -165 -194 -165 -203 -165 c 256,56,57
 -212 -165 -212 -165 -219 -175 c 128,-1,58
 -226 -185 -226 -185 -226 -201 c 0,48,49
EndSplineSet
Ligature2: "'blwf' Below Base Forms lookup 0 subtable" virama_chakma maa_chakma
EndChar

StartChar: yyaa_chakma.below
Encoding: 1114179 -1 144
Width: 0
GlyphClass: 4
Flags: W
AnchorPoint: "+BBEENQQ3BEsEPARPBD0EPQQ+BDUA--7" -79 382 mark 0
AnchorPoint: "+BBEENQQ3BEsEPARPBD0EPQQ+BDUA--2" -79 382 mark 0
LayerCount: 2
Fore
SplineSet
-114 135 m 1,0,1
 -103 120 -103 120 -84.5 100.5 c 128,-1,2
 -66 81 -66 81 -41.5 66.5 c 128,-1,3
 -17 52 -17 52 11 52 c 0,4,5
 52 52 52 52 80.5 86 c 128,-1,6
 109 120 109 120 109 175 c 2,7,-1
 109 700 l 1,8,-1
 199 700 l 1,9,-1
 199 159 l 2,10,11
 199 108 199 108 175.5 68.5 c 128,-1,12
 152 29 152 29 112 7 c 128,-1,13
 72 -15 72 -15 21 -15 c 0,14,15
 -41 -15 -41 -15 -87 15.5 c 128,-1,16
 -133 46 -133 46 -160 86 c 1,17,-1
 -114 135 l 1,0,1
EndSplineSet
Ligature2: "'blwf' Below Base Forms lookup 0 subtable" virama_chakma yyaa_chakma
EndChar

StartChar: yaa_chakma.below
Encoding: 1114180 -1 145
Width: 0
GlyphClass: 4
Flags: W
AnchorPoint: "+BBEENQQ3BEsEPARPBD0EPQQ+BDUA--3" -210 0 mark 0
LayerCount: 2
Fore
SplineSet
-155 -97 m 1,0,1
 -166 -79 -166 -79 -183 -70.5 c 128,-1,2
 -200 -62 -200 -62 -230 -62 c 0,3,4
 -268 -62 -268 -62 -282 -74 c 128,-1,5
 -296 -86 -296 -86 -296 -101 c 0,6,7
 -296 -114 -296 -114 -285.5 -128 c 128,-1,8
 -275 -142 -275 -142 -244 -164 c 0,9,10
 -237 -169 -237 -169 -229 -174 c 128,-1,11
 -221 -179 -221 -179 -213 -184 c 1,12,13
 -187 -167 -187 -167 -153 -155 c 128,-1,14
 -119 -143 -119 -143 -78 -143 c 0,15,16
 -28 -143 -28 -143 7.5 -165 c 128,-1,17
 43 -187 43 -187 43 -231 c 0,18,19
 43 -263 43 -263 24.5 -294.5 c 128,-1,20
 6 -326 6 -326 -21 -353.5 c 128,-1,21
 -48 -381 -48 -381 -74 -403 c 1,22,-1
 -107 -366 l 1,23,24
 -82 -342 -82 -342 -61 -307 c 128,-1,25
 -40 -272 -40 -272 -40 -240 c 0,26,27
 -40 -211 -40 -211 -58 -202.5 c 128,-1,28
 -76 -194 -76 -194 -97 -194 c 0,29,30
 -136 -194 -136 -194 -173 -215 c 1,31,32
 -156 -230 -156 -230 -145 -248.5 c 128,-1,33
 -134 -267 -134 -267 -134 -291 c 0,34,35
 -134 -332 -134 -332 -171 -364.5 c 128,-1,36
 -208 -397 -208 -397 -273 -397 c 0,37,38
 -318 -397 -318 -397 -350.5 -380 c 128,-1,39
 -383 -363 -383 -363 -405 -336 c 128,-1,40
 -427 -309 -427 -309 -442 -280 c 1,41,-1
 -368 -280 l 1,42,43
 -361 -292 -361 -292 -349.5 -306.5 c 128,-1,44
 -338 -321 -338 -321 -319.5 -332 c 128,-1,45
 -301 -343 -301 -343 -273 -343 c 0,46,47
 -216 -343 -216 -343 -216 -295 c 0,48,49
 -216 -269 -216 -269 -232 -253.5 c 128,-1,50
 -248 -238 -248 -238 -283 -213 c 0,51,52
 -320 -187 -320 -187 -349 -160 c 128,-1,53
 -378 -133 -378 -133 -378 -99 c 0,54,55
 -378 -59 -378 -59 -337 -33.5 c 128,-1,56
 -296 -8 -296 -8 -233 -8 c 0,57,58
 -134 -8 -134 -8 -91 -84 c 1,59,-1
 -155 -97 l 1,0,1
EndSplineSet
Ligature2: "'blwf' Below Base Forms lookup 0 subtable" virama_chakma yaa_chakma
EndChar

